<?xml version="1.0" encoding="utf-8"?>
<!-- Generator: Adobe Illustrator 18.0.0, SVG Export Plug-In . SVG Version: 6.00 Build 0)  -->
<!DOCTYPE svg PUBLIC "-//W3C//DTD SVG 1.1//EN" "http://www.w3.org/Graphics/SVG/1.1/DTD/svg11.dtd">
<svg version="1.1" id="Layer_1" xmlns="http://www.w3.org/2000/svg" xmlns:xlink="http://www.w3.org/1999/xlink" x="0px" y="0px"
	 viewBox="0 0 499.5 57.6" enable-background="new 0 0 499.5 57.6" xml:space="preserve">
<g>
	<path fill="#EA4970" d="M27.9,40.3c-2.9,2.8-7.1,4.2-11.8,4.2H0V0.2h16.1c4.8,0,8.9,1.4,11.8,4.2c4.9,4.8,4.6,11.3,4.6,17.7
		C32.5,28.4,32.8,35.5,27.9,40.3z M23.1,9.2c-1.9-2.1-4.5-3-7.8-3H6.9v32.2h8.4c3.3,0,5.8-0.9,7.8-3c2.4-2.5,2.4-7.3,2.4-13.4
		S25.5,11.8,23.1,9.2z"/>
	<path fill="#EA4970" d="M41.2,6.7V0h6.9v6.7H41.2z M41.4,44.4V12.9h6.6v31.5H41.4z"/>
	<path fill="#EA4970" d="M75.2,44.4v-2.9c-2.4,2.3-4.6,3.2-8.7,3.2c-4,0-6.7-0.9-8.7-2.9c-1.7-1.7-2.6-4.1-2.6-6.8
		c0-5.3,3.8-9.1,11.2-9.1h8.6v-2.2c0-4-2.1-5.9-7.1-5.9c-3.6,0-5.3,0.8-7.1,3l-4.3-3.9c3.1-3.5,6.3-4.5,11.7-4.5
		c8.9,0,13.4,3.7,13.4,10.8v21.1H75.2z M75.1,30.5h-7.6c-3.9,0-5.8,1.7-5.8,4.5c0,2.9,1.9,4.5,6,4.5c2.5,0,4.4-0.2,6.1-1.8
		c1-0.9,1.4-2.4,1.4-4.7V30.5z"/>
	<path fill="#EA4970" d="M130.8,44.4V25.2c0-4.9-2.9-7-6.6-7c-3.5,0-6.7,2.2-6.7,6.7v19.5h-6.6V25.2c0-4.9-2.9-7-6.6-7
		c-3.7,0-6.7,2.2-6.7,7v19.2h-6.6V12.9h6.4v3.2c2.2-2.3,5.4-3.5,8.7-3.5c4,0,7.2,1.6,9.2,4.6c2.6-3.1,5.9-4.6,10.2-4.6
		c3.3,0,6.3,1.1,8.2,2.9c2.5,2.4,3.5,5.3,3.5,8.9v20.1H130.8z"/>
	<path fill="#EA4970" d="M168.5,41.1c-2.1,2.1-5.3,3.7-9.8,3.7c-4.4,0-7.6-1.6-9.7-3.7c-3.1-3.1-3.9-7.1-3.9-12.4
		c0-5.3,0.8-9.3,3.9-12.4c2.1-2.1,5.3-3.7,9.7-3.7c4.4,0,7.6,1.6,9.8,3.7c3.1,3.1,3.9,7.1,3.9,12.4C172.4,34,171.6,38,168.5,41.1z
		 M163.6,20c-1.2-1.2-2.9-1.8-4.8-1.8c-1.9,0-3.5,0.6-4.8,1.8c-2,1.9-2.2,5.2-2.2,8.6c0,3.4,0.3,6.7,2.2,8.6
		c1.2,1.2,2.8,1.9,4.8,1.9c1.9,0,3.6-0.7,4.8-1.9c2-1.9,2.2-5.2,2.2-8.6C165.8,25.2,165.6,21.9,163.6,20z"/>
	<path fill="#EA4970" d="M200.4,44.4V25.2c0-4.9-2.9-7-6.6-7c-3.7,0-6.7,2.2-6.7,7v19.2h-6.6V12.9h6.4v3.2c2.2-2.4,5.4-3.5,8.7-3.5
		c3.3,0,6.1,1.1,8,2.9c2.5,2.4,3.3,5.3,3.3,8.9v20.1H200.4z"/>
	<path fill="#EA4970" d="M235.1,44.4v-3.4c-2.4,2.9-5.1,3.7-8.6,3.7c-3.3,0-6.2-1.1-8-2.8c-3.3-3.2-3.7-8.6-3.7-13.4
		s0.4-10.1,3.7-13.3c1.8-1.7,4.6-2.8,7.9-2.8c3.5,0,6.2,0.8,8.5,3.5V0.2h6.6v44.3H235.1z M228.3,18.2c-5.9,0-6.8,4.8-6.8,10.4
		c0,5.6,0.9,10.5,6.8,10.5c5.9,0,6.7-4.9,6.7-10.5C235,23.1,234.2,18.2,228.3,18.2z"/>
	<path fill="#EA4970" d="M304.2,44.4h-6l-9.3-31l-9.2,31h-6L261.6,0.2h7.3l8,31.6l9.2-31.6h5.6l9.2,31.6l8-31.6h7.3L304.2,44.4z"/>
	<path fill="#EA4970" d="M323.6,30.5c0,5.4,3,8.8,8.3,8.8c3.7,0,5.6-1,7.9-3.2l4.2,3.8c-3.3,3.2-6.5,4.9-12.2,4.9
		c-8.2,0-14.6-4.2-14.6-16.2c0-10.2,5.5-16.1,13.8-16.1c8.7,0,13.8,6.2,13.8,15.2v2.8H323.6z M337.4,21.8c-1-2.4-3.3-4-6.4-4
		c-3.1,0-5.5,1.6-6.5,4c-0.6,1.4-0.8,2.4-0.8,4.3h14.6C338.2,24.2,338,23.2,337.4,21.8z"/>
	<path fill="#EA4970" d="M371.5,44.4v-3.4c-2.4,2.9-5.1,3.7-8.6,3.7c-3.3,0-6.2-1.1-8-2.8c-3.3-3.2-3.7-8.6-3.7-13.4
		s0.4-10.1,3.7-13.3c1.8-1.7,4.6-2.8,7.9-2.8c3.5,0,6.2,0.8,8.5,3.5V0.2h6.6v44.3H371.5z M364.6,18.2c-5.9,0-6.8,4.8-6.8,10.4
		c0,5.6,0.9,10.5,6.8,10.5c5.9,0,6.7-4.9,6.7-10.5C371.3,23.1,370.5,18.2,364.6,18.2z"/>
	<path fill="#EA4970" d="M406.3,44.4v-3.4c-2.4,2.9-5.1,3.7-8.6,3.7c-3.3,0-6.2-1.1-8-2.8c-3.3-3.2-3.7-8.6-3.7-13.4
		s0.4-10.1,3.7-13.3c1.8-1.7,4.6-2.8,7.9-2.8c3.5,0,6.2,0.8,8.5,3.5V0.2h6.6v44.3H406.3z M399.5,18.2c-5.9,0-6.8,4.8-6.8,10.4
		c0,5.6,0.9,10.5,6.8,10.5s6.7-4.9,6.7-10.5C406.2,23.1,405.4,18.2,399.5,18.2z"/>
	<path fill="#EA4970" d="M422.3,6.7V0h6.9v6.7H422.3z M422.5,44.4V12.9h6.6v31.5H422.5z"/>
	<path fill="#EA4970" d="M458.7,44.4V25.2c0-4.9-2.9-7-6.6-7c-3.7,0-6.7,2.2-6.7,7v19.2h-6.6V12.9h6.4v3.2c2.2-2.4,5.4-3.5,8.7-3.5
		c3.3,0,6.1,1.1,8,2.9c2.5,2.4,3.3,5.3,3.3,8.9v20.1H458.7z"/>
	<path fill="#EA4970" d="M485.6,57.6c-4.9,0-8.1-1.1-11.5-4.2l4.2-4c2.1,1.9,3.9,2.8,7.1,2.8c5.5,0,7.6-3.8,7.6-8v-4
		c-2.4,2.7-5.1,3.6-8.4,3.6c-3.3,0-6-1.1-7.8-2.8c-3.1-3-3.7-7.5-3.7-12.8c0-5.3,0.5-9.8,3.7-12.8c1.8-1.7,4.6-2.7,7.8-2.7
		c3.5,0,6.1,0.9,8.5,3.7v-3.4h6.4v31.3C499.5,52,494.3,57.6,485.6,57.6z M486.4,18.2c-5.9,0-6.7,4.9-6.7,9.9c0,5,0.8,9.9,6.7,9.9
		c5.9,0,6.6-4.9,6.6-9.9C493,23.1,492.3,18.2,486.4,18.2z"/>
</g>
</svg>
