<?xml version="1.0" encoding="utf-8"?>
<!-- Generator: Adobe Illustrator 18.0.0, SVG Export Plug-In . SVG Version: 6.00 Build 0)  -->
<!DOCTYPE svg PUBLIC "-//W3C//DTD SVG 1.1//EN" "http://www.w3.org/Graphics/SVG/1.1/DTD/svg11.dtd">
<svg version="1.1" id="Слой_1" xmlns="http://www.w3.org/2000/svg" xmlns:xlink="http://www.w3.org/1999/xlink" x="0px" y="0px"
	 viewBox="0 0 66.9 71.9" enable-background="new 0 0 66.9 71.9" xml:space="preserve">
<g>
	<g>
		<g>
			<path fill="none" stroke="#3B2C31" stroke-width="2" stroke-linecap="round" stroke-linejoin="round" stroke-miterlimit="10" d="
				M17.4,44c0.1,0,10,0,10,0"/>
		</g>
		<g>
			<path fill="none" stroke="#3B2C31" stroke-width="2" stroke-linecap="round" stroke-linejoin="round" stroke-miterlimit="10" d="
				M17.4,41c-0.3,0,32,0,32,0"/>
		</g>
		<g>
			<path fill="none" stroke="#3B2C31" stroke-width="2" stroke-linecap="round" stroke-linejoin="round" stroke-miterlimit="10" d="
				M17.4,38c-0.6,0,32,0,32,0"/>
		</g>
		<g>
			<path fill="none" stroke="#3B2C31" stroke-width="2" stroke-linecap="round" stroke-linejoin="round" stroke-miterlimit="10" d="
				M17.4,32c0.3,0,20,0,20,0"/>
		</g>
		<g>
			<path fill="none" stroke="#3B2C31" stroke-width="2" stroke-linecap="round" stroke-linejoin="round" stroke-miterlimit="10" d="
				M17.4,29c0.4,0,32,0,32,0"/>
		</g>
		<g>
			<path fill="none" stroke="#3B2C31" stroke-width="2" stroke-linecap="round" stroke-linejoin="round" stroke-miterlimit="10" d="
				M17.4,26c0.3,0,32,0,32,0"/>
		</g>
		<g>
			<path fill="none" stroke="#3B2C31" stroke-width="2" stroke-linecap="round" stroke-linejoin="round" stroke-miterlimit="10" d="
				M17.4,23c0,0,32,0,32,0"/>
		</g>
		<g>
			<path fill="none" stroke="#3B2C31" stroke-width="2" stroke-linecap="round" stroke-linejoin="round" stroke-miterlimit="10" d="
				M25.4,16c0.3,0,16,0,16,0"/>
		</g>
		<g>
			<path fill="none" stroke="#3B2C31" stroke-width="2" stroke-linecap="round" stroke-linejoin="round" stroke-miterlimit="10" d="
				M26.1,7.5c-0.2-0.1,11.1-6.4,11.1-6.4c0.4-0.2,0.9-0.1,1.1,0.3c0.1-0.1,2,3.4,2,3.4"/>
		</g>
		<g>
			<path fill="none" stroke="#3B2C31" stroke-width="2" stroke-linecap="round" stroke-linejoin="round" stroke-miterlimit="10" d="
				M11.9,41.7C11.8,41.6,1,22.9,1,22.9c0-0.3-0.1-0.9,0.3-1.1c0.1-0.3,5-2.9,5-2.9"/>
		</g>
		<g>
			<path fill="none" stroke="#3B2C31" stroke-width="2" stroke-linecap="round" stroke-linejoin="round" stroke-miterlimit="10" d="
				M40.8,64.4c0-0.1-11.1,6.4-11.1,6.4c-0.6,0.2-0.9,0.1-1.1-0.3c-0.2,0.1-1.9-3.3-1.9-3.3"/>
		</g>
		<g>
			<path fill="none" stroke="#3B2C31" stroke-width="2" stroke-linecap="round" stroke-linejoin="round" stroke-miterlimit="10" d="
				M55,30.3C54.9,30.8,65.8,49,65.8,49c0.1,0.1,0.1,0.9-0.3,1.1c-0.2-0.3-5,2.9-5,2.9"/>
		</g>
		<g>
			<path fill="none" stroke="#3B2C31" stroke-width="2" stroke-linecap="round" stroke-linejoin="round" stroke-miterlimit="10" d="
				M11.8,38.4C11.7,38.4,5.5,15,5.5,15c0-0.1,0.1-0.9,0.6-1c0-0.4,5.4-1.5,5.4-1.5"/>
		</g>
		<g>
			<path fill="none" stroke="#3B2C31" stroke-width="2" stroke-linecap="round" stroke-linejoin="round" stroke-miterlimit="10" d="
				M37.2,64.3c0.2,0-16.5,4.4-16.5,4.4c-0.4,0-0.9-0.1-1-0.6c0.1,0-1-3.6-1-3.6"/>
		</g>
		<g>
			<path fill="none" stroke="#3B2C31" stroke-width="2" stroke-linecap="round" stroke-linejoin="round" stroke-miterlimit="10" d="
				M55,33.3C54.9,33.8,61.4,57,61.4,57c0.2,0.8-0.1,0.9-0.6,1c0.1-0.1-5.6,1.5-5.6,1.5"/>
		</g>
		<g>
			<path fill="none" stroke="#3B2C31" stroke-width="2" stroke-linecap="round" stroke-linejoin="round" stroke-miterlimit="10" d="
				M30.2,7.5c0,0,16-4.3,16-4.3c0.7-0.2,0.9,0.1,1,0.6c0.2,0,1,3.7,1,3.7"/>
		</g>
		<g>
			<path fill="none" stroke="#3B2C31" stroke-width="2" stroke-linecap="round" stroke-linejoin="round" stroke-miterlimit="10" d="
				M52.7,64c-0.8,0.7-38.6,0-38.6,0c-0.4,0.8-2-0.9-2-2c0.6-0.4,0-52,0-52c-0.2-0.1,0.9-2,2-2c0.5-0.3,38.6,0,38.6,0
				c1,0.1,2,0.9,2,2c0.4,0.1,0,52,0,52C54.5,63.4,53.8,64,52.7,64z"/>
		</g>
	</g>
</g>
<g>
	<g>
		<g>
			<path fill="#E7D3CA" d="M32.7,56.7c-0.2,0-0.5-2-0.5-2c0-0.2,0.1-0.5,0.3-0.6c0.4,0,17.7-4.4,17.7-4.4c0.4-0.2,1.3,0.2,1.5,0.9
				c0.3,0.1,0.1,0.6,0.1,0.6c0.4,0.7-0.2,1.3-0.9,1.5C50.8,52.5,33.3,57,33.3,57C32.9,57,32.8,56.9,32.7,56.7z"/>
			<path fill="none" stroke="#3B2C31" stroke-width="2" stroke-linecap="round" stroke-linejoin="round" stroke-miterlimit="10" d="
				M32.7,56.7c-0.2,0-0.5-2-0.5-2c0-0.2,0.1-0.5,0.3-0.6c0.4,0,17.7-4.4,17.7-4.4c0.4-0.2,1.3,0.2,1.5,0.9c0.3,0.1,0.1,0.6,0.1,0.6
				c0.4,0.7-0.2,1.3-0.9,1.5C50.8,52.5,33.3,57,33.3,57C32.9,57,32.8,56.9,32.7,56.7z"/>
		</g>
		<g>
			<path fill="#E7D3CA" d="M32.1,54c0.3,0.1,0.8,3.3,0.8,3.3c0,0.5-0.2,0.9-0.6,1c-0.1,0-12.8,3.2-12.8,3.2
				c-1.1,0.3-2.2-0.4-2.4-1.5c0.1,0.1-0.2-1-0.2-1c0-1.1,0.4-2.2,1.5-2.4c0.1-0.1,12.8-3.2,12.8-3.2C31.7,53.5,32,53.6,32.1,54z"/>
			<path fill="none" stroke="#3B2C31" stroke-width="2" stroke-linecap="round" stroke-linejoin="round" stroke-miterlimit="10" d="
				M32.1,54c0.3,0.1,0.8,3.3,0.8,3.3c0,0.5-0.2,0.9-0.6,1c-0.1,0-12.8,3.2-12.8,3.2c-1.1,0.3-2.2-0.4-2.4-1.5c0.1,0.1-0.2-1-0.2-1
				c0-1.1,0.4-2.2,1.5-2.4c0.1-0.1,12.8-3.2,12.8-3.2C31.7,53.5,32,53.6,32.1,54z"/>
		</g>
		<g>
			<path fill="none" stroke="#3B2C31" stroke-width="2" stroke-linecap="round" stroke-linejoin="round" stroke-miterlimit="10" d="
				M27.6,56.9c-0.1,0-7.7,1.9-7.7,1.9"/>
		</g>
	</g>
</g>
</svg>
