<?xml version="1.0" encoding="utf-8"?>
<!-- Generator: Adobe Illustrator 18.0.0, SVG Export Plug-In . SVG Version: 6.00 Build 0)  -->
<!DOCTYPE svg PUBLIC "-//W3C//DTD SVG 1.1//EN" "http://www.w3.org/Graphics/SVG/1.1/DTD/svg11.dtd">
<svg version="1.1" id="Слой_1" xmlns="http://www.w3.org/2000/svg" xmlns:xlink="http://www.w3.org/1999/xlink" x="0px" y="0px"
	 viewBox="0 0 112.5 52" enable-background="new 0 0 112.5 52" xml:space="preserve">
<g>
	<g>
		<g>
			<g>
				<path fill="#E7D3CA" d="M2,20.7c0-0.1,7.5-1.6,7.5-1.6c0.1-0.2-0.4-5.9-0.4-5.9C9,13,2,14.7,2,14.7"/>
				
					<path fill="none" stroke="#3B2C31" stroke-width="2" stroke-linecap="round" stroke-linejoin="round" stroke-miterlimit="10" d="
					M2,20.7c0-0.1,7.5-1.6,7.5-1.6c0.1-0.2-0.4-5.9-0.4-5.9C9,13,2,14.7,2,14.7"/>
			</g>
			<g>
				
					<path fill="none" stroke="#3B2C31" stroke-width="2" stroke-linecap="round" stroke-linejoin="round" stroke-miterlimit="10" d="
					M20,49c0,0.2,0.5-3.9,0.5-9c0-5.4-0.5-9-0.5-9"/>
			</g>
			<g>
				
					<path fill="none" stroke="#3B2C31" stroke-width="2" stroke-linecap="round" stroke-linejoin="round" stroke-miterlimit="10" d="
					M12,50c0,0.3,0.5-3.9,0.5-9c0-5.3-0.5-9-0.5-9"/>
			</g>
			<g>
				
					<path fill="none" stroke="#3B2C31" stroke-width="2" stroke-linecap="round" stroke-linejoin="round" stroke-miterlimit="10" d="
					M10,30c0-8.9-1-19-1-19"/>
			</g>
			<g>
				
					<path fill="none" stroke="#3B2C31" stroke-width="2" stroke-linecap="round" stroke-linejoin="round" stroke-miterlimit="10" d="
					M1,50c0-1,1-10.5,1-19c0-7.1-1-19-1-19"/>
			</g>
			<g>
				
					<path fill="none" stroke="#3B2C31" stroke-width="2" stroke-linecap="round" stroke-linejoin="round" stroke-miterlimit="10" d="
					M2,36.7c-0.2,0,10,1.6,10,1.6"/>
			</g>
			<g>
				
					<path fill="none" stroke="#3B2C31" stroke-width="2" stroke-linecap="round" stroke-linejoin="round" stroke-miterlimit="10" d="
					M9.7,22.1C9.9,22,2,23.7,2,23.7"/>
			</g>
			<g>
				
					<path fill="none" stroke="#3B2C31" stroke-width="2" stroke-linecap="round" stroke-linejoin="round" stroke-miterlimit="10" d="
					M20,36c-0.2,0-7.5-0.8-7.5-0.8"/>
			</g>
			<g>
				
					<path fill="none" stroke="#3B2C31" stroke-width="2" stroke-linecap="round" stroke-linejoin="round" stroke-miterlimit="10" d="
					M12,38.3c0-0.1,8-2.3,8-2.3"/>
			</g>
			<g>
				<path fill="#E7D3CA" d="M2,31.7c-0.7-0.1,10,1.6,10,1.6c0.4,0,8-2.3,8-2.3c0.1,0.1-10-1-10-1C10.3,30,2,31.7,2,31.7z"/>
				
					<path fill="none" stroke="#3B2C31" stroke-width="2" stroke-linecap="round" stroke-linejoin="round" stroke-miterlimit="10" d="
					M2,31.7c-0.7-0.1,10,1.6,10,1.6c0.4,0,8-2.3,8-2.3c0.1,0.1-10-1-10-1C10.3,30,2,31.7,2,31.7z"/>
			</g>
		</g>
		<g>
			<g>
				
					<path fill="none" stroke="#3B2C31" stroke-width="2" stroke-linecap="round" stroke-linejoin="round" stroke-miterlimit="10" d="
					M49.5,17c0,0.3,0-16,0-16"/>
			</g>
			<g>
				
					<path fill="none" stroke="#3B2C31" stroke-width="2" stroke-linecap="round" stroke-linejoin="round" stroke-miterlimit="10" d="
					M63.5,14c0.3,0-14,0-14,0"/>
			</g>
			<g>
				<path fill="#E7D3CA" d="M49.5,5c-0.4,0,14,0,14,0c0.4,0.1,0,6,0,6c0.3,0-14,0-14,0C49.4,11.2,49.5,5,49.5,5z"/>
				
					<path fill="none" stroke="#3B2C31" stroke-width="2" stroke-linecap="round" stroke-linejoin="round" stroke-miterlimit="10" d="
					M49.5,5c-0.4,0,14,0,14,0c0.4,0.1,0,6,0,6c0.3,0-14,0-14,0C49.4,11.2,49.5,5,49.5,5z"/>
			</g>
			<g>
				
					<path fill="none" stroke="#3B2C31" stroke-width="2" stroke-linecap="round" stroke-linejoin="round" stroke-miterlimit="10" d="
					M63.5,17c0-0.4,0-16,0-16"/>
			</g>
		</g>
		<g>
			<path fill="none" stroke="#3B2C31" stroke-width="2" stroke-linecap="round" stroke-linejoin="round" stroke-miterlimit="10" d="
				M32.5,20c1.5,0.3-6.1,28-6.1,28c-0.6,1.4,2.5,0.2,6.8,0.7c0.2,1,4.6,1.7,7.4,1.8c2.4,0.3,4.8-0.9,7.4-0.9c4.5,1,5.5,1.3,8.4,1.3
				c2.7-0.2,5.4-1.2,8-1.3c0.8-1.2,5.1,1,7.4,0.9c2.7,0.9,5.3-1.6,7.4-1.8c4.4-1.2,7.2,0,7.2-0.7c2.2,0.8-5.7-28-5.7-28"/>
		</g>
		<g>
			<path fill="none" stroke="#3B2C31" stroke-width="2" stroke-linecap="round" stroke-linejoin="round" stroke-miterlimit="10" d="
				M80.5,20c-1.4,1.7-10.7,3-24,3c-11.5-0.2-24-1.3-24-3c1.5-1.7,10.7-3,24-3C68.8,16.8,80.5,18.3,80.5,20z"/>
		</g>
		<g>
			<path fill="none" stroke="#3B2C31" stroke-width="2" stroke-linecap="round" stroke-linejoin="round" stroke-miterlimit="10" d="
				M69.5,46.5c0-0.5-3-19.5-3-19.5"/>
		</g>
		<g>
			<path fill="none" stroke="#3B2C31" stroke-width="2" stroke-linecap="round" stroke-linejoin="round" stroke-miterlimit="10" d="
				M43.6,46.5C43.5,46.3,46.5,27,46.5,27"/>
		</g>
		<g>
			<path fill="none" stroke="#3B2C31" stroke-width="2" stroke-linecap="round" stroke-linejoin="round" stroke-miterlimit="10" d="
				M32.5,44c0-0.6,4.4-18.3,4.4-18.3"/>
		</g>
		<g>
			<path fill="none" stroke="#3B2C31" stroke-width="2" stroke-linecap="round" stroke-linejoin="round" stroke-miterlimit="10" d="
				M80.5,44c0.1,0.7-4.4-18.3-4.4-18.3"/>
		</g>
		<g>
			<path fill="none" stroke="#3B2C31" stroke-width="2" stroke-linecap="round" stroke-linejoin="round" stroke-miterlimit="10" d="
				M56.5,47c0,0.3,0-20,0-20"/>
		</g>
		<g>
			<g>
				<path fill="#E7D3CA" d="M110.5,20.7c0.2-0.2-7.5-1.6-7.5-1.6c-0.1,0,0.4-5.9,0.4-5.9c0.1,0,7.1,1.5,7.1,1.5"/>
				
					<path fill="none" stroke="#3B2C31" stroke-width="2" stroke-linecap="round" stroke-linejoin="round" stroke-miterlimit="10" d="
					M110.5,20.7c0.2-0.2-7.5-1.6-7.5-1.6c-0.1,0,0.4-5.9,0.4-5.9c0.1,0,7.1,1.5,7.1,1.5"/>
			</g>
			<g>
				
					<path fill="none" stroke="#3B2C31" stroke-width="2" stroke-linecap="round" stroke-linejoin="round" stroke-miterlimit="10" d="
					M92.5,49c0-0.2-0.5-3.9-0.5-9c0-5.1,0.5-9,0.5-9"/>
			</g>
			<g>
				
					<path fill="none" stroke="#3B2C31" stroke-width="2" stroke-linecap="round" stroke-linejoin="round" stroke-miterlimit="10" d="
					M100.5,50c0,0.5-0.5-3.9-0.5-9c0-5.7,0.5-9,0.5-9"/>
			</g>
			<g>
				
					<path fill="none" stroke="#3B2C31" stroke-width="2" stroke-linecap="round" stroke-linejoin="round" stroke-miterlimit="10" d="
					M102.5,30c0-8.2,1-19,1-19"/>
			</g>
			<g>
				
					<path fill="none" stroke="#3B2C31" stroke-width="2" stroke-linecap="round" stroke-linejoin="round" stroke-miterlimit="10" d="
					M111.5,50c0-0.2-1-10.5-1-19c0-8.1,1-19,1-19"/>
			</g>
			<g>
				
					<path fill="none" stroke="#3B2C31" stroke-width="2" stroke-linecap="round" stroke-linejoin="round" stroke-miterlimit="10" d="
					M110.5,36.7c-0.4,0-10,1.6-10,1.6"/>
			</g>
			<g>
				
					<path fill="none" stroke="#3B2C31" stroke-width="2" stroke-linecap="round" stroke-linejoin="round" stroke-miterlimit="10" d="
					M102.8,22.1c-0.2,0.1,7.7,1.7,7.7,1.7"/>
			</g>
			<g>
				
					<path fill="none" stroke="#3B2C31" stroke-width="2" stroke-linecap="round" stroke-linejoin="round" stroke-miterlimit="10" d="
					M92.5,36c-0.3,0,8-1,8-1"/>
			</g>
			<g>
				
					<path fill="none" stroke="#3B2C31" stroke-width="2" stroke-linecap="round" stroke-linejoin="round" stroke-miterlimit="10" d="
					M100.5,38.3c-0.3,0.1-8-2.3-8-2.3"/>
			</g>
			<g>
				<path fill="#E7D3CA" d="M110.5,31.7c-0.3-0.1-10,1.6-10,1.6c-0.4-0.1-8-2.3-8-2.3c-0.5,0,10-1,10-1
					C103.2,30.1,110.5,31.7,110.5,31.7z"/>
				
					<path fill="none" stroke="#3B2C31" stroke-width="2" stroke-linecap="round" stroke-linejoin="round" stroke-miterlimit="10" d="
					M110.5,31.7c-0.3-0.1-10,1.6-10,1.6c-0.4-0.1-8-2.3-8-2.3c-0.5,0,10-1,10-1C103.2,30.1,110.5,31.7,110.5,31.7z"/>
			</g>
		</g>
	</g>
</g>
</svg>
