<?xml version="1.0" encoding="utf-8"?>
<!-- Generator: Adobe Illustrator 18.0.0, SVG Export Plug-In . SVG Version: 6.00 Build 0)  -->
<!DOCTYPE svg PUBLIC "-//W3C//DTD SVG 1.1//EN" "http://www.w3.org/Graphics/SVG/1.1/DTD/svg11.dtd">
<svg version="1.1" id="Слой_1" xmlns="http://www.w3.org/2000/svg" xmlns:xlink="http://www.w3.org/1999/xlink" x="0px" y="0px"
	 viewBox="0 0 132.1 59.1" enable-background="new 0 0 132.1 59.1" xml:space="preserve">
<g>
	<path fill="#E7D3CA" d="M93,4c0.2,1.3,1.3,3,3,3c2-0.3,3-1.3,3-3c-0.2-1.9-1.3-3-3-3C94.6,0.7,93,2.4,93,4z"/>
	<path fill="none" stroke="#3B2C31" stroke-width="2" stroke-linecap="round" stroke-linejoin="round" stroke-miterlimit="10" d="
		M93,4c0.2,1.3,1.3,3,3,3c2-0.3,3-1.3,3-3c-0.2-1.9-1.3-3-3-3C94.6,0.7,93,2.4,93,4z"/>
</g>
<g>
	<path fill="none" stroke="#3B2C31" stroke-width="2" stroke-linecap="round" stroke-linejoin="round" stroke-miterlimit="10" d="
		M99,4c0.3,1.9,1.3,3,3,3c1.5-0.1,3-1.3,3-3c0.2-1.7-1.3-3-3-3C100.2,1.2,99,2.4,99,4z"/>
</g>
<g>
	<path fill="#E7D3CA" d="M81,4c0.1,1.7,1.3,3,3,3c2-0.3,3-1.3,3-3c0.2-1.7-1.3-3-3-3C82.5,1.2,81,2.4,81,4z"/>
	<path fill="none" stroke="#3B2C31" stroke-width="2" stroke-linecap="round" stroke-linejoin="round" stroke-miterlimit="10" d="
		M81,4c0.1,1.7,1.3,3,3,3c2-0.3,3-1.3,3-3c0.2-1.7-1.3-3-3-3C82.5,1.2,81,2.4,81,4z"/>
</g>
<g>
	<path fill="none" stroke="#3B2C31" stroke-width="2" stroke-linecap="round" stroke-linejoin="round" stroke-miterlimit="10" d="
		M87,4c0.2,1.9,1.3,3,3,3c1.8,0.1,3-1.3,3-3c0.3-1.8-1.3-3-3-3C88.6,0.9,87,2.4,87,4z"/>
</g>
<g>
	<path fill="#E7D3CA" d="M69,4c-0.2,1.6,1.3,3,3,3c1.9,0,3-1.3,3-3c0-1.7-1.3-3-3-3C70,0.9,69,2.4,69,4z"/>
	<path fill="none" stroke="#3B2C31" stroke-width="2" stroke-linecap="round" stroke-linejoin="round" stroke-miterlimit="10" d="
		M69,4c-0.2,1.6,1.3,3,3,3c1.9,0,3-1.3,3-3c0-1.7-1.3-3-3-3C70,0.9,69,2.4,69,4z"/>
</g>
<g>
	<path fill="none" stroke="#3B2C31" stroke-width="2" stroke-linecap="round" stroke-linejoin="round" stroke-miterlimit="10" d="
		M75,4c-0.3,2,1.3,3,3,3c1.4,0.3,3-1.3,3-3c0.3-1.4-1.3-3-3-3C76,1.1,75,2.4,75,4z"/>
</g>
<g>
	<path fill="none" stroke="#3B2C31" stroke-width="2" stroke-linecap="round" stroke-linejoin="round" stroke-miterlimit="10" d="
		M66,7c0.8,2.9,5.6,5.5,12.8,5.9"/>
</g>
<g>
	<path fill="#E7D3CA" d="M93,35c0.3,1.9,1.3,3,3,3c1.4,0.1,3-1.3,3-3c0.3-1.4-1.3-3-3-3C94,32.1,93,33.4,93,35z"/>
	<path fill="none" stroke="#3B2C31" stroke-width="2" stroke-linecap="round" stroke-linejoin="round" stroke-miterlimit="10" d="
		M93,35c0.3,1.9,1.3,3,3,3c1.4,0.1,3-1.3,3-3c0.3-1.4-1.3-3-3-3C94,32.1,93,33.4,93,35z"/>
</g>
<g>
	<path fill="none" stroke="#3B2C31" stroke-width="2" stroke-linecap="round" stroke-linejoin="round" stroke-miterlimit="10" d="
		M99,35c0.2,1.5,1.3,3,3,3c1.4-0.1,3-1.3,3-3c0.3-1.4-1.3-3-3-3C100,31.8,99,33.4,99,35z"/>
</g>
<g>
	<path fill="none" stroke="#3B2C31" stroke-width="2" stroke-linecap="round" stroke-linejoin="round" stroke-miterlimit="10" d="
		M87,11c0,0.2,8,18,8,18"/>
</g>
<g>
	<path fill="none" stroke="#3B2C31" stroke-width="2" stroke-linecap="round" stroke-linejoin="round" stroke-miterlimit="10" d="
		M94,11c-0.1-0.5,4,18,4,18"/>
</g>
<g>
	<path fill="none" stroke="#3B2C31" stroke-width="2" stroke-linecap="round" stroke-linejoin="round" stroke-miterlimit="10" d="
		M97,42c0,0.1,0,12,0,12"/>
</g>
<g>
	<path fill="none" stroke="#3B2C31" stroke-width="2" stroke-linecap="round" stroke-linejoin="round" stroke-miterlimit="10" d="
		M101,42c0,0.2,0,12,0,12"/>
</g>
<g>
	<path fill="none" stroke="#3B2C31" stroke-width="2" stroke-linecap="round" stroke-linejoin="round" stroke-miterlimit="10" d="
		M101,11c0-1,0,18,0,18"/>
</g>
<g>
	<path fill="none" stroke="#3B2C31" stroke-width="2" stroke-linecap="round" stroke-linejoin="round" stroke-miterlimit="10" d="
		M95,57c1.6-1.4,8,0,8,0c1.7,1.2,2-0.9,2-2c0.1-0.9,0-46,0-46c0.6,0.7-0.9-2-2-2c-1-0.8-25,0-25,0c-2.4-2.3-2,0.9-2,2
		c0,2.8,17,23,17,23c-0.7-2.8,0,23,0,23C91.4,55,93.9,57,95,57z"/>
</g>
<g>
	<path fill="none" stroke="#3B2C31" stroke-width="2" stroke-linecap="round" stroke-linejoin="round" stroke-miterlimit="10" d="
		M66,7c0,3.2-5.6,5.5-12.8,5.9"/>
</g>
<g>
	<path fill="none" stroke="#3B2C31" stroke-width="2" stroke-linecap="round" stroke-linejoin="round" stroke-miterlimit="10" d="
		M69,4c-0.3,1.5-1.3,3-3,3c-1.6,0-3-1.3-3-3c0.1-1.9,1.3-3,3-3C67.4,1.1,69,2.4,69,4z"/>
</g>
<g>
	<path fill="#E7D3CA" d="M39,35c0.3,1.8-1.3,3-3,3c-1.8,0.1-3-1.3-3-3c-0.3-1.4,1.3-3,3-3C37.7,32.3,39,33.4,39,35z"/>
	<path fill="none" stroke="#3B2C31" stroke-width="2" stroke-linecap="round" stroke-linejoin="round" stroke-miterlimit="10" d="
		M39,35c0.3,1.8-1.3,3-3,3c-1.8,0.1-3-1.3-3-3c-0.3-1.4,1.3-3,3-3C37.7,32.3,39,33.4,39,35z"/>
</g>
<g>
	<path fill="none" stroke="#3B2C31" stroke-width="2" stroke-linecap="round" stroke-linejoin="round" stroke-miterlimit="10" d="
		M33,35c-0.3,1.8-1.3,3-3,3c-1.7-0.3-3-1.3-3-3c-0.3-1.6,1.3-3,3-3C31.5,32,33,33.4,33,35z"/>
</g>
<g>
	<path fill="#E7D3CA" d="M39,4c0,1.8-1.3,3-3,3c-1.3,0.2-3-1.3-3-3c0.3-1.5,1.3-3,3-3C37.5,0.7,39,2.4,39,4z"/>
	<path fill="none" stroke="#3B2C31" stroke-width="2" stroke-linecap="round" stroke-linejoin="round" stroke-miterlimit="10" d="
		M39,4c0,1.8-1.3,3-3,3c-1.3,0.2-3-1.3-3-3c0.3-1.5,1.3-3,3-3C37.5,0.7,39,2.4,39,4z"/>
</g>
<g>
	<path fill="none" stroke="#3B2C31" stroke-width="2" stroke-linecap="round" stroke-linejoin="round" stroke-miterlimit="10" d="
		M33,4c0.2,1.7-1.3,3-3,3c-2,0.2-3-1.3-3-3c0.4-1.5,1.3-3,3-3C31.9,1,33,2.4,33,4z"/>
</g>
<g>
	<path fill="#E7D3CA" d="M51,4c0.1,1.5-1.3,3-3,3c-1.6-0.3-3-1.3-3-3c0.3-1.6,1.3-3,3-3C49.8,1,51,2.4,51,4z"/>
	<path fill="none" stroke="#3B2C31" stroke-width="2" stroke-linecap="round" stroke-linejoin="round" stroke-miterlimit="10" d="
		M51,4c0.1,1.5-1.3,3-3,3c-1.6-0.3-3-1.3-3-3c0.3-1.6,1.3-3,3-3C49.8,1,51,2.4,51,4z"/>
</g>
<g>
	<path fill="none" stroke="#3B2C31" stroke-width="2" stroke-linecap="round" stroke-linejoin="round" stroke-miterlimit="10" d="
		M45,4c-0.1,1.4-1.3,3-3,3c-1.4,0-3-1.3-3-3c0.3-1.4,1.3-3,3-3C44,1.2,45,2.4,45,4z"/>
</g>
<g>
	<path fill="#E7D3CA" d="M63,4c0.3,1.6-1.3,3-3,3c-1.8-0.2-3-1.3-3-3c-0.2-1.5,1.3-3,3-3C61.7,0.8,63,2.4,63,4z"/>
	<path fill="none" stroke="#3B2C31" stroke-width="2" stroke-linecap="round" stroke-linejoin="round" stroke-miterlimit="10" d="
		M63,4c0.3,1.6-1.3,3-3,3c-1.8-0.2-3-1.3-3-3c-0.2-1.5,1.3-3,3-3C61.7,0.8,63,2.4,63,4z"/>
</g>
<g>
	<path fill="none" stroke="#3B2C31" stroke-width="2" stroke-linecap="round" stroke-linejoin="round" stroke-miterlimit="10" d="
		M57,4c0.1,1.6-1.3,3-3,3c-1.4,0.1-3-1.3-3-3c0-1.6,1.3-3,3-3C55.8,1.2,57,2.4,57,4z"/>
</g>
<g>
	<path fill="none" stroke="#3B2C31" stroke-width="2" stroke-linecap="round" stroke-linejoin="round" stroke-miterlimit="10" d="
		M123,43c0,0.1,0-7,0-7"/>
</g>
<g>
	<path fill="none" stroke="#3B2C31" stroke-width="2" stroke-linecap="round" stroke-linejoin="round" stroke-miterlimit="10" d="
		M120,57c0.2,0,6,0,6,0"/>
</g>
<g>
	<path fill="none" stroke="#3B2C31" stroke-width="2" stroke-linecap="round" stroke-linejoin="round" stroke-miterlimit="10" d="
		M131,43c0.6,4.5-3.6,8-8,8c-5.2,0.2-8-3.6-8-8C114.5,43.2,131,43,131,43z"/>
</g>
<g>
	<path fill="none" stroke="#3B2C31" stroke-width="2" stroke-linecap="round" stroke-linejoin="round" stroke-miterlimit="10" d="
		M124.5,54c-0.1,2-0.7,3-1.5,3c-0.7,0.1-1.5-1.3-1.5-3c-0.1-1.6,0.7-3,1.5-3C123.8,51.4,124.5,52.4,124.5,54z"/>
</g>
<g>
	<path fill="none" stroke="#3B2C31" stroke-width="2" stroke-linecap="round" stroke-linejoin="round" stroke-miterlimit="10" d="
		M121.6,31.6c-0.7,0.8-2,0.8-2.8,0c-1-0.8-0.8-2,0-2.8c0.8-0.9,2-0.8,2.8,0C122.3,29.4,122.4,30.8,121.6,31.6z"/>
</g>
<g>
	<path fill="none" stroke="#3B2C31" stroke-width="2" stroke-linecap="round" stroke-linejoin="round" stroke-miterlimit="10" d="
		M127.2,37.3c-0.9,0.9-2,0.8-2.8,0c-0.9-1-0.8-2,0-2.8c0.8-0.6,2-0.8,2.8,0C128.2,35.1,128,36.5,127.2,37.3z"/>
</g>
<g>
	<path fill="none" stroke="#3B2C31" stroke-width="2" stroke-linecap="round" stroke-linejoin="round" stroke-miterlimit="10" d="
		M121.6,37.3c-0.7,1-2,0.8-2.8,0c-0.6-0.6-0.8-2,0-2.8c0.8-0.8,2-0.8,2.8,0C122.3,35.2,122.4,36.5,121.6,37.3z"/>
</g>
<g>
	<path fill="none" stroke="#3B2C31" stroke-width="2" stroke-linecap="round" stroke-linejoin="round" stroke-miterlimit="10" d="
		M127.2,31.6c-0.6,0.5-2,0.8-2.8,0c-0.7-0.5-0.8-2,0-2.8c0.6-0.9,2-0.8,2.8,0C128,29.5,128,30.8,127.2,31.6z"/>
</g>
<g>
	<path fill="none" stroke="#3B2C31" stroke-width="2" stroke-linecap="round" stroke-linejoin="round" stroke-miterlimit="10" d="
		M124.1,34.1c-0.5,0.6-1.5,0.6-2.1,0c-0.6-0.7-0.6-1.5,0-2.1c0.5-0.6,1.5-0.6,2.1,0C124.6,32.6,124.6,33.5,124.1,34.1z"/>
</g>
<g>
	<path fill="none" stroke="#3B2C31" stroke-width="2" stroke-linecap="round" stroke-linejoin="round" stroke-miterlimit="10" d="
		M9,43c0-0.1,0-7,0-7"/>
</g>
<g>
	<path fill="none" stroke="#3B2C31" stroke-width="2" stroke-linecap="round" stroke-linejoin="round" stroke-miterlimit="10" d="
		M6,57c-0.4,0,6,0,6,0"/>
</g>
<g>
	<path fill="none" stroke="#3B2C31" stroke-width="2" stroke-linecap="round" stroke-linejoin="round" stroke-miterlimit="10" d="
		M17,43c-0.6,4.1-3.6,8-8,8c-3.5,0.1-8-3.6-8-8C1.6,43.4,17,43,17,43z"/>
</g>
<g>
	<path fill="none" stroke="#3B2C31" stroke-width="2" stroke-linecap="round" stroke-linejoin="round" stroke-miterlimit="10" d="
		M10.5,54c0,1.5-0.7,3-1.5,3c-0.8,0-1.5-1.3-1.5-3c0.1-1.4,0.7-3,1.5-3C9.9,50.9,10.5,52.4,10.5,54z"/>
</g>
<g>
	<path fill="none" stroke="#3B2C31" stroke-width="2" stroke-linecap="round" stroke-linejoin="round" stroke-miterlimit="10" d="
		M7.6,31.6c-0.7,0.9-2,0.8-2.8,0c-0.7-0.6-0.8-2,0-2.8c0.6-0.8,2-0.8,2.8,0C8.4,29.6,8.4,30.8,7.6,31.6z"/>
</g>
<g>
	<path fill="none" stroke="#3B2C31" stroke-width="2" stroke-linecap="round" stroke-linejoin="round" stroke-miterlimit="10" d="
		M13.2,37.3c-1,0.7-2,0.8-2.8,0c-0.9-0.8-0.8-2,0-2.8c1-0.9,2-0.8,2.8,0C13.9,35,14,36.5,13.2,37.3z"/>
</g>
<g>
	<path fill="none" stroke="#3B2C31" stroke-width="2" stroke-linecap="round" stroke-linejoin="round" stroke-miterlimit="10" d="
		M7.6,37.3c-1,0.7-2,0.8-2.8,0c-0.7-0.9-0.8-2,0-2.8c0.9-0.9,2-0.8,2.8,0C8.5,35.1,8.4,36.5,7.6,37.3z"/>
</g>
<g>
	<path fill="none" stroke="#3B2C31" stroke-width="2" stroke-linecap="round" stroke-linejoin="round" stroke-miterlimit="10" d="
		M13.2,31.6c-0.9,0.7-2,0.8-2.8,0c-0.7-1-0.8-2,0-2.8c0.7-0.7,2-0.8,2.8,0C14.2,29.7,14,30.8,13.2,31.6z"/>
</g>
<g>
	<path fill="none" stroke="#3B2C31" stroke-width="2" stroke-linecap="round" stroke-linejoin="round" stroke-miterlimit="10" d="
		M10.1,34.1c-0.5,0.6-1.5,0.6-2.1,0c-0.7-0.6-0.6-1.5,0-2.1c0.8-0.5,1.5-0.6,2.1,0C10.8,32.4,10.6,33.5,10.1,34.1z"/>
</g>
<g>
	<path fill="none" stroke="#3B2C31" stroke-width="2" stroke-linecap="round" stroke-linejoin="round" stroke-miterlimit="10" d="
		M45,11c-0.4-0.6-8,18-8,18"/>
</g>
<g>
	<path fill="none" stroke="#3B2C31" stroke-width="2" stroke-linecap="round" stroke-linejoin="round" stroke-miterlimit="10" d="
		M38,11c-0.2-0.4-4,18-4,18"/>
</g>
<g>
	<path fill="none" stroke="#3B2C31" stroke-width="2" stroke-linecap="round" stroke-linejoin="round" stroke-miterlimit="10" d="
		M35,42c0,0.5,0,12,0,12"/>
</g>
<g>
	<path fill="none" stroke="#3B2C31" stroke-width="2" stroke-linecap="round" stroke-linejoin="round" stroke-miterlimit="10" d="
		M31,42c0,0.2,0,12,0,12"/>
</g>
<g>
	<path fill="none" stroke="#3B2C31" stroke-width="2" stroke-linecap="round" stroke-linejoin="round" stroke-miterlimit="10" d="
		M31,11c0,0.8,0,18,0,18"/>
</g>
<g>
	<path fill="none" stroke="#3B2C31" stroke-width="2" stroke-linecap="round" stroke-linejoin="round" stroke-miterlimit="10" d="
		M37,57c-1.1,2.4-8,0-8,0c-2.7-0.3-2-0.9-2-2c1.3-2.7,0-46,0-46c-0.1-1.4,0.9-2,2-2c1.3,0.5,25,0,25,0c-0.6,0.4,2,0.9,2,2
		c-0.2,2-17,23-17,23c-0.7,1.6,0,23,0,23C37.7,57.8,38.1,57,37,57z"/>
</g>
</svg>
