<?xml version="1.0" encoding="utf-8"?>
<!-- Generator: Adobe Illustrator 18.0.0, SVG Export Plug-In . SVG Version: 6.00 Build 0)  -->
<!DOCTYPE svg PUBLIC "-//W3C//DTD SVG 1.1//EN" "http://www.w3.org/Graphics/SVG/1.1/DTD/svg11.dtd">
<svg version="1.1" id="Слой_1" xmlns="http://www.w3.org/2000/svg" xmlns:xlink="http://www.w3.org/1999/xlink" x="0px" y="0px"
	 viewBox="0 0 114.6 69.3" enable-background="new 0 0 114.6 69.3" xml:space="preserve">
<path fill="#FFFFFF" stroke="#3B2C31" stroke-width="2" stroke-linecap="round" stroke-linejoin="round" stroke-miterlimit="10" d="
	M1.1,30.2c0,0,1.7,0.4,2.5-0.4l6.4-6.4c0.8-0.8,0.9-1.9,0.4-2.5l0,0c-0.6-0.6-1.7-0.4-2.5,0.4l-6.4,6.4C0.7,28.5,1.1,30.2,1.1,30.2z
	"/>
<path fill="#FFFFFF" stroke="#3B2C31" stroke-width="2" stroke-linecap="round" stroke-linejoin="round" stroke-miterlimit="10" d="
	M10.7,23.5l0.7-0.7c0.6-0.6,0.6-1.5,0-2.1L10.7,20c-0.6-0.6-1.5-0.6-2.1,0l-0.7,0.7c-0.6,0.6-0.6,1.5,0,2.1l0.7,0.7
	C9.1,24.1,10.1,24.1,10.7,23.5z"/>
<g>
	<path fill="none" stroke="#3B2C31" stroke-width="2" stroke-linecap="round" stroke-linejoin="round" stroke-miterlimit="10" d="
		M28.1,14.1C27.5,14.6,28.1,14.1,28.1,14.1c-2.2,0.1-5-2.2-5-5c0,0.4,0-6,0-6c-0.6-1.5,0.9-2,2-2c0.1,0,6,0,6,0c1.6-0.6,2,0.9,2,2
		c-0.1,0,0,6,0,6C33.2,11.9,30.8,14.1,28.1,14.1z"/>
</g>
<g>
	<path fill="none" stroke="#3B2C31" stroke-width="2" stroke-linecap="round" stroke-linejoin="round" stroke-miterlimit="10" d="
		M30.7,40.3c0.3-0.8-2.7-3.9-2.7-3.9c0.5,0.8-2.7,2.6-2.7,3.9c0.9,0.5-4,0-4,0c-1.5-1.1-1.3-0.6-1.3-1.3c0.4-1,0-23.4,0-23.4
		c0.5-0.8,0.6-1.3,1.3-1.3c-0.7-0.2,13.3,0,13.3,0c0.8,1.5,1.3,0.6,1.3,1.3c0.6,0.6,0,23.4,0,23.4c-0.9,1.5-0.6,1.3-1.3,1.3
		C35.6,40.5,30.7,40.3,30.7,40.3z"/>
</g>
<g>
	<path fill="none" stroke="#3B2C31" stroke-width="2" stroke-linecap="round" stroke-linejoin="round" stroke-miterlimit="10" d="
		M28.1,28.3c-0.3-0.1-8-4.8-8-7.6c-0.1-0.2,0-5.1,0-5.1c0.5-1.5,0.9-1.3,2-1.3c-0.8-0.4,12,0,12,0c0.5-0.3,2,0.6,2,1.3
		c0-0.3,0,5.1,0,5.1C35.3,22.7,28.1,28.3,28.1,28.3z"/>
</g>
<g>
	<path fill="none" stroke="#3B2C31" stroke-width="2" stroke-linecap="round" stroke-linejoin="round" stroke-miterlimit="10" d="
		M28.1,28.3c-0.2-0.6-5-4.8-5-7.6c0.1-0.7,0-5.1,0-5.1c-0.6-0.5,0.6-1.3,1.2-1.3c0-0.4,7.5,0,7.5,0c0.9,0.8,1.2,0.6,1.2,1.3
		c-0.1-0.1,0,5.1,0,5.1C32.6,23.5,28.1,28.3,28.1,28.3z"/>
</g>
<g>
	<path fill="#E7D3CA" d="M30.9,16.8C30.8,16.8,30.9,16.8,30.9,16.8c-0.7,0.5-1.5,0.6-2.1,0.1c-0.2-0.2-0.1-0.1-0.1-0.1
		c-0.4-0.6-0.6-1.5,0-2c-0.1-0.1,0.1-0.1,0.1-0.1c0.4-0.5,1.5-0.6,2,0c0-0.1,0.1,0.1,0.1,0.1C31.4,15.1,31.5,16.2,30.9,16.8z"/>
	<path fill="none" stroke="#3B2C31" stroke-width="2" stroke-linecap="round" stroke-linejoin="round" stroke-miterlimit="10" d="
		M30.9,16.8C30.8,16.8,30.9,16.8,30.9,16.8c-0.7,0.5-1.5,0.6-2.1,0.1c-0.2-0.2-0.1-0.1-0.1-0.1c-0.4-0.6-0.6-1.5,0-2
		c-0.1-0.1,0.1-0.1,0.1-0.1c0.4-0.5,1.5-0.6,2,0c0-0.1,0.1,0.1,0.1,0.1C31.4,15.1,31.5,16.2,30.9,16.8z"/>
</g>
<g>
	<path fill="#E7D3CA" d="M27.4,16.8C27.5,16.9,27.3,16.8,27.4,16.8c-0.7,0.6-1.5,0.6-2.1,0.1c0-0.1-0.1-0.1-0.1-0.1
		c-0.7-0.6-0.6-1.5,0-2c0-0.2,0.1-0.1,0.1-0.1c0.4-0.4,1.5-0.6,2,0c0,0.2,0.1,0.1,0.1,0.1C28,15.5,27.9,16.2,27.4,16.8z"/>
	<path fill="none" stroke="#3B2C31" stroke-width="2" stroke-linecap="round" stroke-linejoin="round" stroke-miterlimit="10" d="
		M27.4,16.8C27.5,16.9,27.3,16.8,27.4,16.8c-0.7,0.6-1.5,0.6-2.1,0.1c0-0.1-0.1-0.1-0.1-0.1c-0.7-0.6-0.6-1.5,0-2
		c0-0.2,0.1-0.1,0.1-0.1c0.4-0.4,1.5-0.6,2,0c0,0.2,0.1,0.1,0.1,0.1C28,15.5,27.9,16.2,27.4,16.8z"/>
</g>
<g>
	<path fill="#3B2C31" d="M33.1,7.3c0.4,0.1-1.2-1.2-1.2-1.2c0,0.1,0-2.4,0-2.4c0.2-0.5-0.6-1.2-1.2-1.2c0-0.2-5,0-5,0
		c-0.7-0.3-1.2,0.5-1.2,1.2c0,0.1,0,2.4,0,2.4c-0.1,0.1-1.2,1.2-1.2,1.2c-0.3,0.2,0-4.8,0-4.8c0-0.4,0.6-1.2,1.2-1.2
		c-0.4,0.1,7.5,0,7.5,0c0.5,0.3,1.2,0.5,1.2,1.2C32.8,2.3,33.1,7.3,33.1,7.3z"/>
	<path fill="none" stroke="#3B2C31" stroke-width="2" stroke-linecap="round" stroke-linejoin="round" stroke-miterlimit="10" d="
		M33.1,7.3c0.4,0.1-1.2-1.2-1.2-1.2c0,0.1,0-2.4,0-2.4c0.2-0.5-0.6-1.2-1.2-1.2c0-0.2-5,0-5,0c-0.7-0.3-1.2,0.5-1.2,1.2
		c0,0.1,0,2.4,0,2.4c-0.1,0.1-1.2,1.2-1.2,1.2c-0.3,0.2,0-4.8,0-4.8c0-0.4,0.6-1.2,1.2-1.2c-0.4,0.1,7.5,0,7.5,0
		c0.5,0.3,1.2,0.5,1.2,1.2C32.8,2.3,33.1,7.3,33.1,7.3z"/>
</g>
<g>
	<path fill="#3B2C31" d="M27.8,7.3c-0.1,0.6-0.4,1-1,1c-0.6,0.1-1-0.4-1-1c0.1-0.5,0.4-1,1-1C27.4,6.3,27.8,6.7,27.8,7.3z"/>
</g>
<g>
	<path fill="#3B2C31" d="M30.4,7.3c-0.1,0.6-0.4,1-1,1c-0.7,0-1-0.4-1-1c0.1-0.7,0.4-1,1-1C29.9,6.3,30.4,6.7,30.4,7.3z"/>
</g>
<g>
	<path fill="none" stroke="#3B2C31" stroke-width="2" stroke-linecap="round" stroke-linejoin="round" stroke-miterlimit="10" d="
		M30.1,10c-0.2,0.5-0.3,1-0.7,1c-0.1,0-2.7,0-2.7,0c-0.4,0-0.7-0.4-0.7-1"/>
</g>
<g>
	<path fill="none" stroke="#3B2C31" stroke-width="2" stroke-linecap="round" stroke-linejoin="round" stroke-miterlimit="10" d="
		M7.1,26.5c0-0.2,0-0.4,0-0.4c-0.2-0.6-0.6-1.3-1.3-1.3c0.1,0-1.4,0-1.4,0c-0.6,0.1-1.3,0.6-1.3,1.3c0,0.1,0,0.4,0,0.4
		c0.1,0.6,0.6,1.3,1.3,1.3c0.2,0.1,1.4,0,1.4,0C6.3,27.8,7.1,27.2,7.1,26.5z"/>
</g>
<g>
	<path fill="none" stroke="#3B2C31" stroke-width="2" stroke-linecap="round" stroke-linejoin="round" stroke-miterlimit="10" d="
		M37.9,44.3c-0.1,0.2,0.4,0,0.4,0c0.8,0,1.3-0.6,1.3-1.3c-0.1-0.1,0-1.4,0-1.4c-0.2-0.6-0.6-1.3-1.3-1.3c-0.1-0.1-0.4,0-0.4,0
		c-0.6,0.2-1.3,0.6-1.3,1.3c0.2,0,0,1.4,0,1.4C36.5,43.5,37.2,44.3,37.9,44.3z"/>
</g>
<g>
	<path fill="none" stroke="#3B2C31" stroke-width="2" stroke-linecap="round" stroke-linejoin="round" stroke-miterlimit="10" d="
		M37.4,40.3c-0.1,0.8,0.4,0,0.4,0c0.8-1.5,1.3-0.6,1.3-1.3c0.1,0.1,0-23.4,0-23.4c-0.1-1.7-0.6-1.3-1.3-1.3c-0.1,1.3-0.4,0-0.4,0
		c-0.9,0.6-1.3,0.6-1.3,1.3c-0.1-1.2,0,23.4,0,23.4C36.2,40.5,36.7,40.3,37.4,40.3z"/>
</g>
<g>
	<path fill="none" stroke="#3B2C31" stroke-width="2" stroke-linecap="round" stroke-linejoin="round" stroke-miterlimit="10" d="
		M20.1,29c-0.5,0,0-0.4,0-0.4c0-0.8-0.6-1.3-1.3-1.3c-0.1-0.1-10.4,0-10.4,0c-0.5,0.1-1.3,0.6-1.3,1.3c-0.2-0.1,0,0.4,0,0.4
		c-0.6,0.8,0.6,1.3,1.3,1.3c0.1-0.1,10.4,0,10.4,0C20.1,30.4,20.1,29.7,20.1,29z"/>
</g>
<g>
	<path fill="none" stroke="#3B2C31" stroke-width="2" stroke-linecap="round" stroke-linejoin="round" stroke-miterlimit="10" d="
		M18.4,27.3c-0.1-0.1,0.4,0,0.4,0c0.7-0.1,1.3-0.6,1.3-1.3c0-0.5,0-10.4,0-10.4c0.1-0.2-0.6-1.3-1.3-1.3c-0.1-0.6-0.4,0-0.4,0
		c-0.9,0.5-1.3,0.6-1.3,1.3c0-0.3,0,10.4,0,10.4C17.2,27.2,17.7,27.3,18.4,27.3z"/>
</g>
<g>
	<path fill="none" stroke="#3B2C31" stroke-width="2" stroke-linecap="round" stroke-linejoin="round" stroke-miterlimit="10" d="
		M17.4,68.3c-0.2,0.1,7.4,0,7.4,0c1.2-0.1,1.3-0.6,1.3-1.3c0,0.1,0-0.4,0-0.4c0.5-0.8-0.6-1.3-1.3-1.3c-0.4,0-7.4,0-7.4,0
		c-0.9-0.1-1.3,0.6-1.3,1.3c0.5,0,0,0.4,0,0.4C16.3,67.6,16.7,68.3,17.4,68.3z"/>
</g>
<g>
	<path fill="none" stroke="#3B2C31" stroke-width="2" stroke-linecap="round" stroke-linejoin="round" stroke-miterlimit="10" d="
		M31.4,68.3c-0.2,0.1,7.4,0,7.4,0c1.2-0.1,1.3-0.6,1.3-1.3c0,0.1,0-0.4,0-0.4c0.5-0.8-0.6-1.3-1.3-1.3c-0.4,0-7.4,0-7.4,0
		c-0.9-0.1-1.3,0.6-1.3,1.3c0.5,0,0,0.4,0,0.4C30.3,67.6,30.7,68.3,31.4,68.3z"/>
</g>
<g>
	<path fill="none" stroke="#3B2C31" stroke-width="2" stroke-linecap="round" stroke-linejoin="round" stroke-miterlimit="10" d="
		M21.1,40.3c0.1,0.1,0,23.7,0,23.7c0.3,1.8,0.6,1.3,1.3,1.3c0.2-0.7,2.5,0,2.5,0c0.8-1.3,1.3-0.6,1.3-1.3
		c-0.6,0.3,1.3-17.1,1.3-17.1c0.6,0.3,1.3,0,1.3,0C28.6,46.1,30,63.9,30,63.9c-0.4,0.6,0.6,1.3,1.3,1.3c-0.6-0.5,2.5,0,2.5,0
		c1.4,1.1,1.3-0.6,1.3-1.3c-0.8,1.2,0-23.7,0-23.7"/>
</g>
<g>
	<path fill="none" stroke="#3B2C31" stroke-width="2" stroke-linecap="round" stroke-linejoin="round" stroke-miterlimit="10" d="
		M80.1,14.1C79.5,14.6,80.1,14.1,80.1,14.1c-2.2,0.1-5-2.2-5-5c0,0.4,0-6,0-6c-0.6-1.5,0.9-2,2-2c0.1,0,6,0,6,0c1.6-0.6,2,0.9,2,2
		c-0.1,0,0,6,0,6C85.2,11.9,82.8,14.1,80.1,14.1z"/>
</g>
<g>
	<path fill="#E7D3CA" d="M108.9,17.3c-0.1,0.2,0.4,0,0.4,0c0.6,0.1,1.3-0.6,1.3-1.3c0-0.2,0-2,0-2c0-0.4-0.3-0.7-0.7-0.7
		c0.1,0-1.7,0-1.7,0c-0.3,0.1-0.7,0.3-0.7,0.7c0.1,0.1,0,2,0,2C107.4,16.8,108.2,17.3,108.9,17.3z"/>
	<path fill="none" stroke="#3B2C31" stroke-width="2" stroke-linecap="round" stroke-linejoin="round" stroke-miterlimit="10" d="
		M108.9,17.3c-0.1,0.2,0.4,0,0.4,0c0.6,0.1,1.3-0.6,1.3-1.3c0-0.2,0-2,0-2c0-0.4-0.3-0.7-0.7-0.7c0.1,0-1.7,0-1.7,0
		c-0.3,0.1-0.7,0.3-0.7,0.7c0.1,0.1,0,2,0,2C107.4,16.8,108.2,17.3,108.9,17.3z"/>
</g>
<g>
	<path fill="none" stroke="#3B2C31" stroke-width="2" stroke-linecap="round" stroke-linejoin="round" stroke-miterlimit="10" d="
		M82.7,40.3c0.4,0.2-2.7-3.9-2.7-3.9c-0.4,0.1-2.7,2.6-2.7,3.9c-0.1-0.7-4,0-4,0c-1.6-0.1-1.3-0.6-1.3-1.3c0-1.4,0-23.4,0-23.4
		c-0.7,0.7,0.6-1.3,1.3-1.3c-0.2,1.5,13.3,0,13.3,0c1.1,1.4,1.3,0.6,1.3,1.3c-0.7,0.2,0,23.4,0,23.4c-0.4-0.2-0.6,1.3-1.3,1.3
		C85.8,38.8,82.7,40.3,82.7,40.3z"/>
</g>
<g>
	<path fill="none" stroke="#3B2C31" stroke-width="2" stroke-linecap="round" stroke-linejoin="round" stroke-miterlimit="10" d="
		M109.1,17.3c0-0.3,0,6,0,6"/>
</g>
<g>
	<path fill="#E7D3CA" d="M102.9,17.3c-0.1,0.2,0.4,0,0.4,0c0.8-0.2,1.3-0.6,1.3-1.3c0,0,0-2,0-2c0.2-0.4-0.3-0.7-0.7-0.7
		c-0.1,0.2-1.7,0-1.7,0c-0.2,0-0.7,0.3-0.7,0.7c-0.1,0,0,2,0,2C101.5,16.9,102.2,17.3,102.9,17.3z"/>
	<path fill="none" stroke="#3B2C31" stroke-width="2" stroke-linecap="round" stroke-linejoin="round" stroke-miterlimit="10" d="
		M102.9,17.3c-0.1,0.2,0.4,0,0.4,0c0.8-0.2,1.3-0.6,1.3-1.3c0,0,0-2,0-2c0.2-0.4-0.3-0.7-0.7-0.7c-0.1,0.2-1.7,0-1.7,0
		c-0.2,0-0.7,0.3-0.7,0.7c-0.1,0,0,2,0,2C101.5,16.9,102.2,17.3,102.9,17.3z"/>
</g>
<g>
	<path fill="none" stroke="#3B2C31" stroke-width="2" stroke-linecap="round" stroke-linejoin="round" stroke-miterlimit="10" d="
		M103.1,17.3c0,0.2,0,6,0,6"/>
</g>
<g>
	<path fill="#E7D3CA" d="M96.9,17.3c-0.1,0.1,0.4,0,0.4,0c0.7,0.2,1.3-0.6,1.3-1.3c0-0.1,0-2,0-2c0.1-0.3-0.3-0.7-0.7-0.7
		c0.1,0.1-1.7,0-1.7,0c-0.2,0.1-0.7,0.3-0.7,0.7c-0.1-0.2,0,2,0,2C95.6,16.5,96.2,17.3,96.9,17.3z"/>
	<path fill="none" stroke="#3B2C31" stroke-width="2" stroke-linecap="round" stroke-linejoin="round" stroke-miterlimit="10" d="
		M96.9,17.3c-0.1,0.1,0.4,0,0.4,0c0.7,0.2,1.3-0.6,1.3-1.3c0-0.1,0-2,0-2c0.1-0.3-0.3-0.7-0.7-0.7c0.1,0.1-1.7,0-1.7,0
		c-0.2,0.1-0.7,0.3-0.7,0.7c-0.1-0.2,0,2,0,2C95.6,16.5,96.2,17.3,96.9,17.3z"/>
</g>
<g>
	<path fill="none" stroke="#3B2C31" stroke-width="2" stroke-linecap="round" stroke-linejoin="round" stroke-miterlimit="10" d="
		M93.6,21.3C92.6,21.2,93.6,21.3,93.6,21.3c-0.6,1.2,0.6,2,1.3,2c-0.1-0.1,17.3,0,17.3,0c0.6,0,1.3-0.9,1.3-2c-1.2,0,0,0,0,0"/>
</g>
<g>
	<path fill="none" stroke="#3B2C31" stroke-width="2" stroke-linecap="round" stroke-linejoin="round" stroke-miterlimit="10" d="
		M80.1,28.3c-0.3-0.1-8-4.8-8-7.6c-0.1-0.2,0-5.1,0-5.1c0.5-1.5,0.9-1.3,2-1.3c-0.8-0.4,12,0,12,0c0.5-0.3,2,0.6,2,1.3
		c0-0.3,0,5.1,0,5.1C87.3,22.7,80.1,28.3,80.1,28.3z"/>
</g>
<g>
	<path fill="none" stroke="#3B2C31" stroke-width="2" stroke-linecap="round" stroke-linejoin="round" stroke-miterlimit="10" d="
		M80.1,28.3c-0.2-0.6-5-4.8-5-7.6c0.1-0.7,0-5.1,0-5.1c-0.6-0.5,0.6-1.3,1.2-1.3c0-0.4,7.5,0,7.5,0c0.9,0.8,1.2,0.6,1.2,1.3
		c-0.1-0.1,0,5.1,0,5.1C84.6,23.5,80.1,28.3,80.1,28.3z"/>
</g>
<g>
	<path fill="#E7D3CA" d="M82.9,16.8C82.8,16.8,82.9,16.8,82.9,16.8c-0.7,0.5-1.5,0.6-2.1,0.1c-0.2-0.2-0.1-0.1-0.1-0.1
		c-0.4-0.6-0.6-1.5,0-2c-0.1-0.1,0.1-0.1,0.1-0.1c0.4-0.5,1.5-0.6,2,0c0-0.1,0.1,0.1,0.1,0.1C83.4,15.1,83.5,16.2,82.9,16.8z"/>
	<path fill="none" stroke="#3B2C31" stroke-width="2" stroke-linecap="round" stroke-linejoin="round" stroke-miterlimit="10" d="
		M82.9,16.8C82.8,16.8,82.9,16.8,82.9,16.8c-0.7,0.5-1.5,0.6-2.1,0.1c-0.2-0.2-0.1-0.1-0.1-0.1c-0.4-0.6-0.6-1.5,0-2
		c-0.1-0.1,0.1-0.1,0.1-0.1c0.4-0.5,1.5-0.6,2,0c0-0.1,0.1,0.1,0.1,0.1C83.4,15.1,83.5,16.2,82.9,16.8z"/>
</g>
<g>
	<path fill="#E7D3CA" d="M79.4,16.8C79.5,16.9,79.3,16.8,79.4,16.8c-0.7,0.6-1.5,0.6-2.1,0.1c0-0.1-0.1-0.1-0.1-0.1
		c-0.7-0.6-0.6-1.5,0-2c0-0.2,0.1-0.1,0.1-0.1c0.4-0.4,1.5-0.6,2,0c0,0.2,0.1,0.1,0.1,0.1C80,15.5,79.9,16.2,79.4,16.8z"/>
	<path fill="none" stroke="#3B2C31" stroke-width="2" stroke-linecap="round" stroke-linejoin="round" stroke-miterlimit="10" d="
		M79.4,16.8C79.5,16.9,79.3,16.8,79.4,16.8c-0.7,0.6-1.5,0.6-2.1,0.1c0-0.1-0.1-0.1-0.1-0.1c-0.7-0.6-0.6-1.5,0-2
		c0-0.2,0.1-0.1,0.1-0.1c0.4-0.4,1.5-0.6,2,0c0,0.2,0.1,0.1,0.1,0.1C80,15.5,79.9,16.2,79.4,16.8z"/>
</g>
<g>
	<path fill="#3B2C31" d="M85.1,7.3c0.4,0.1-1.2-1.2-1.2-1.2c0,0.1,0-2.4,0-2.4c0.2-0.5-0.6-1.2-1.2-1.2c0-0.2-5,0-5,0
		c-0.7-0.3-1.2,0.5-1.2,1.2c0,0.1,0,2.4,0,2.4c-0.1,0.1-1.2,1.2-1.2,1.2c-0.3,0.2,0-4.8,0-4.8c0-0.4,0.6-1.2,1.2-1.2
		c-0.4,0.1,7.5,0,7.5,0c0.5,0.3,1.2,0.5,1.2,1.2C84.8,2.3,85.1,7.3,85.1,7.3z"/>
	<path fill="none" stroke="#3B2C31" stroke-width="2" stroke-linecap="round" stroke-linejoin="round" stroke-miterlimit="10" d="
		M85.1,7.3c0.4,0.1-1.2-1.2-1.2-1.2c0,0.1,0-2.4,0-2.4c0.2-0.5-0.6-1.2-1.2-1.2c0-0.2-5,0-5,0c-0.7-0.3-1.2,0.5-1.2,1.2
		c0,0.1,0,2.4,0,2.4c-0.1,0.1-1.2,1.2-1.2,1.2c-0.3,0.2,0-4.8,0-4.8c0-0.4,0.6-1.2,1.2-1.2c-0.4,0.1,7.5,0,7.5,0
		c0.5,0.3,1.2,0.5,1.2,1.2C84.8,2.3,85.1,7.3,85.1,7.3z"/>
</g>
<g>
	<path fill="none" stroke="#3B2C31" stroke-width="2" stroke-linecap="round" stroke-linejoin="round" stroke-miterlimit="10" d="
		M97.1,17.3c0,0,0,6,0,6"/>
</g>
<g>
	<path fill="#3B2C31" d="M79.8,7.3c-0.1,0.6-0.4,1-1,1c-0.6,0.1-1-0.4-1-1c0.1-0.5,0.4-1,1-1C79.4,6.3,79.8,6.7,79.8,7.3z"/>
</g>
<g>
	<path fill="#3B2C31" d="M82.4,7.3c-0.1,0.6-0.4,1-1,1c-0.7,0-1-0.4-1-1c0.1-0.7,0.4-1,1-1C81.9,6.3,82.4,6.7,82.4,7.3z"/>
</g>
<g>
	<path fill="none" stroke="#3B2C31" stroke-width="2" stroke-linecap="round" stroke-linejoin="round" stroke-miterlimit="10" d="
		M82.1,10c-0.2,0.5-0.3,1-0.7,1c-0.1,0-2.7,0-2.7,0c-0.4,0-0.7-0.4-0.7-1"/>
</g>
<g>
	<path fill="#3B2C31" d="M53.8,7.3c-0.1,0.6-0.4,1-1,1c-0.6,0.1-1-0.4-1-1c0.1-0.5,0.4-1,1-1C53.4,6.3,53.8,6.7,53.8,7.3z"/>
</g>
<g>
	<path fill="#3B2C31" d="M56.4,7.3c-0.1,0.6-0.4,1-1,1c-0.7,0-1-0.4-1-1c0.1-0.7,0.4-1,1-1C55.9,6.3,56.4,6.7,56.4,7.3z"/>
</g>
<g>
	<path fill="none" stroke="#3B2C31" stroke-width="2" stroke-linecap="round" stroke-linejoin="round" stroke-miterlimit="10" d="
		M56.1,10c-0.2,0.5-0.3,1-0.7,1c-0.1,0-2.7,0-2.7,0c-0.4,0-0.7-0.4-0.7-1"/>
</g>
<g>
	<path fill="none" stroke="#3B2C31" stroke-width="2" stroke-linecap="round" stroke-linejoin="round" stroke-miterlimit="10" d="
		M104.1,26.5c0-0.2,0-0.4,0-0.4c-0.2-0.6-0.6-1.3-1.3-1.3c0.1,0-1.4,0-1.4,0c-0.6,0.1-1.3,0.6-1.3,1.3c0,0.1,0,0.4,0,0.4
		c0.1,0.6,0.6,1.3,1.3,1.3c0.2,0.1,1.4,0,1.4,0C103.3,27.8,104.1,27.2,104.1,26.5z"/>
</g>
<g>
	<path fill="none" stroke="#3B2C31" stroke-width="2" stroke-linecap="round" stroke-linejoin="round" stroke-miterlimit="10" d="
		M69.9,44.3c-0.1,0.2,0.4,0,0.4,0c0.8,0,1.3-0.6,1.3-1.3c-0.1-0.1,0-1.4,0-1.4c-0.2-0.6-0.6-1.3-1.3-1.3c-0.1-0.1-0.4,0-0.4,0
		c-0.6,0.2-1.3,0.6-1.3,1.3c0.2,0,0,1.4,0,1.4C68.5,43.5,69.2,44.3,69.9,44.3z"/>
</g>
<g>
	<path fill="none" stroke="#3B2C31" stroke-width="2" stroke-linecap="round" stroke-linejoin="round" stroke-miterlimit="10" d="
		M70.4,40.3c-0.1,0.8,0.4,0,0.4,0c0.8-1.5,1.3-0.6,1.3-1.3c0.1,0.1,0-23.4,0-23.4c-0.1-1.7-0.6-1.3-1.3-1.3c-0.1,1.3-0.4,0-0.4,0
		c-0.9,0.6-1.3,0.6-1.3,1.3c-0.1-1.2,0,23.4,0,23.4C69.2,40.5,69.7,40.3,70.4,40.3z"/>
</g>
<g>
	<path fill="none" stroke="#3B2C31" stroke-width="2" stroke-linecap="round" stroke-linejoin="round" stroke-miterlimit="10" d="
		M101.1,29c-0.5,0,0-0.4,0-0.4c0-0.8-0.6-1.3-1.3-1.3c-0.1-0.1-10.4,0-10.4,0c-0.5,0.1-1.3,0.6-1.3,1.3c-0.2-0.1,0,0.4,0,0.4
		c-0.6,0.8,0.6,1.3,1.3,1.3c0.1-0.1,10.4,0,10.4,0C101.1,30.4,101.1,29.7,101.1,29z"/>
</g>
<g>
	<path fill="none" stroke="#3B2C31" stroke-width="2" stroke-linecap="round" stroke-linejoin="round" stroke-miterlimit="10" d="
		M89.4,27.3c-0.1-0.1,0.4,0,0.4,0c0.7-0.1,1.3-0.6,1.3-1.3c0-0.5,0-10.4,0-10.4c0.1-0.2-0.6-1.3-1.3-1.3c-0.1-0.6-0.4,0-0.4,0
		c-0.9,0.5-1.3,0.6-1.3,1.3c0-0.3,0,10.4,0,10.4C88.2,27.2,88.7,27.3,89.4,27.3z"/>
</g>
<g>
	<path fill="none" stroke="#3B2C31" stroke-width="2" stroke-linecap="round" stroke-linejoin="round" stroke-miterlimit="10" d="
		M63.9,44.3c0-0.2,0.4,0,0.4,0c0.5,0.2,1.3-0.6,1.3-1.3c0,0,0-1.4,0-1.4c0.1-0.7-0.6-1.3-1.3-1.3c0,0.1-0.4,0-0.4,0
		c-0.6-0.1-1.3,0.6-1.3,1.3c0.2,0.2,0,1.4,0,1.4C62.4,43.7,63.2,44.3,63.9,44.3z"/>
</g>
<g>
	<path fill="none" stroke="#3B2C31" stroke-width="2" stroke-linecap="round" stroke-linejoin="round" stroke-miterlimit="10" d="
		M43.9,44.3c-0.1,0.2,0.4,0,0.4,0c0.8,0,1.3-0.6,1.3-1.3c-0.1-0.1,0-1.4,0-1.4c-0.2-0.6-0.6-1.3-1.3-1.3c-0.1-0.1-0.4,0-0.4,0
		c-0.6,0.2-1.3,0.6-1.3,1.3c0.2,0,0,1.4,0,1.4C42.5,43.5,43.2,44.3,43.9,44.3z"/>
</g>
<g>
	<path fill="none" stroke="#3B2C31" stroke-width="2" stroke-linecap="round" stroke-linejoin="round" stroke-miterlimit="10" d="
		M44.4,40.3c-0.1,0.8,0.4,0,0.4,0c0.8-1.5,1.3-0.6,1.3-1.3c0.1,0.1,0-23.4,0-23.4c-0.1-1.7-0.6-1.3-1.3-1.3c-0.1,1.3-0.4,0-0.4,0
		c-0.9,0.6-1.3,0.6-1.3,1.3c-0.1-1.2,0,23.4,0,23.4C43.2,40.5,43.7,40.3,44.4,40.3z"/>
</g>
<g>
	<path fill="none" stroke="#3B2C31" stroke-width="2" stroke-linecap="round" stroke-linejoin="round" stroke-miterlimit="10" d="
		M63.4,40.3c-0.1-0.1,0.4,0,0.4,0c0.7-0.3,1.3-0.6,1.3-1.3c0-1,0-23.4,0-23.4c0.1,0.4-0.6-1.3-1.3-1.3c-0.1-1.2-0.4,0-0.4,0
		c-0.9,1-1.3,0.6-1.3,1.3c0-0.6,0,23.4,0,23.4C62.2,40.7,62.7,40.3,63.4,40.3z"/>
</g>
<g>
	<path fill="none" stroke="#3B2C31" stroke-width="2" stroke-linecap="round" stroke-linejoin="round" stroke-miterlimit="10" d="
		M69.4,68.3c-0.2,0.1,7.4,0,7.4,0c1.2-0.1,1.3-0.6,1.3-1.3c0,0.1,0-0.4,0-0.4c0.5-0.8-0.6-1.3-1.3-1.3c-0.4,0-7.4,0-7.4,0
		c-0.9-0.1-1.3,0.6-1.3,1.3c0.5,0,0,0.4,0,0.4C68.3,67.6,68.7,68.3,69.4,68.3z"/>
</g>
<g>
	<path fill="none" stroke="#3B2C31" stroke-width="2" stroke-linecap="round" stroke-linejoin="round" stroke-miterlimit="10" d="
		M83.4,68.3c-0.2,0.1,7.4,0,7.4,0c1.2-0.1,1.3-0.6,1.3-1.3c0,0.1,0-0.4,0-0.4c0.5-0.8-0.6-1.3-1.3-1.3c-0.4,0-7.4,0-7.4,0
		c-0.9-0.1-1.3,0.6-1.3,1.3c0.5,0,0,0.4,0,0.4C82.3,67.6,82.7,68.3,83.4,68.3z"/>
</g>
<g>
	<path fill="none" stroke="#3B2C31" stroke-width="2" stroke-linecap="round" stroke-linejoin="round" stroke-miterlimit="10" d="
		M43.4,68.3c-0.2,0.1,7.4,0,7.4,0c1.2-0.1,1.3-0.6,1.3-1.3c0,0.1,0-0.4,0-0.4c0.5-0.8-0.6-1.3-1.3-1.3c-0.4,0-7.4,0-7.4,0
		c-0.9-0.1-1.3,0.6-1.3,1.3c0.5,0,0,0.4,0,0.4C42.3,67.6,42.7,68.3,43.4,68.3z"/>
</g>
<g>
	<path fill="none" stroke="#3B2C31" stroke-width="2" stroke-linecap="round" stroke-linejoin="round" stroke-miterlimit="10" d="
		M57.4,68.3c-0.2,0.1,7.4,0,7.4,0c1.2-0.1,1.3-0.6,1.3-1.3c0,0.1,0-0.4,0-0.4c0.5-0.8-0.6-1.3-1.3-1.3c-0.4,0-7.4,0-7.4,0
		c-0.9-0.1-1.3,0.6-1.3,1.3c0.5,0,0,0.4,0,0.4C56.3,67.6,56.7,68.3,57.4,68.3z"/>
</g>
<g>
	<path fill="none" stroke="#3B2C31" stroke-width="2" stroke-linecap="round" stroke-linejoin="round" stroke-miterlimit="10" d="
		M73.1,40.3c0.1,0.1,0,23.7,0,23.7c0.3,1.8,0.6,1.3,1.3,1.3c0.2-0.7,2.5,0,2.5,0c0.8-1.3,1.3-0.6,1.3-1.3
		c-0.6,0.3,1.3-17.1,1.3-17.1c0.6,0.3,1.3,0,1.3,0C80.6,46.1,82,63.9,82,63.9c-0.4,0.6,0.6,1.3,1.3,1.3c-0.6-0.5,2.5,0,2.5,0
		c1.4,1.1,1.3-0.6,1.3-1.3c-0.8,1.2,0-23.7,0-23.7"/>
</g>
<g>
	<path fill="#E7D3CA" d="M47.1,40.3c0.1,0.1,0,23.7,0,23.7c0.3,1.8,0.6,1.3,1.3,1.3c0.2-0.7,2.5,0,2.5,0c0.8-1.3,1.3-0.6,1.3-1.3
		c-0.6,0.3,1.3-17.1,1.3-17.1c0.6,0.3,1.3,0,1.3,0C54.6,46.1,56,63.9,56,63.9c-0.4,0.6,0.6,1.3,1.3,1.3c-0.6-0.5,2.5,0,2.5,0
		c1.4,1.1,1.3-0.6,1.3-1.3c-0.8,1.2,0-23.7,0-23.7"/>
	<path fill="none" stroke="#3B2C31" stroke-width="2" stroke-linecap="round" stroke-linejoin="round" stroke-miterlimit="10" d="
		M47.1,40.3c0.1,0.1,0,23.7,0,23.7c0.3,1.8,0.6,1.3,1.3,1.3c0.2-0.7,2.5,0,2.5,0c0.8-1.3,1.3-0.6,1.3-1.3
		c-0.6,0.3,1.3-17.1,1.3-17.1c0.6,0.3,1.3,0,1.3,0C54.6,46.1,56,63.9,56,63.9c-0.4,0.6,0.6,1.3,1.3,1.3c-0.6-0.5,2.5,0,2.5,0
		c1.4,1.1,1.3-0.6,1.3-1.3c-0.8,1.2,0-23.7,0-23.7"/>
</g>
<g>
	<path fill="none" stroke="#3B2C31" stroke-width="2" stroke-linecap="round" stroke-linejoin="round" stroke-miterlimit="10" d="
		M47.4,40.3c-1,1.3-1.3-0.6-1.3-1.3c0.4,1.1,0-23.4,0-23.4c0.6-2.2,0.6-1.3,1.3-1.3c0.5-0.5,13.3,0,13.3,0c-0.1,0.2,1.3,0.6,1.3,1.3
		c0.1-0.8,0,23.4,0,23.4c-0.6-0.3-0.6,1.3-1.3,1.3C60.5,39.7,47.4,40.3,47.4,40.3z"/>
</g>
<g>
	<path fill="none" stroke="#3B2C31" stroke-width="2" stroke-linecap="round" stroke-linejoin="round" stroke-miterlimit="10" d="
		M52.1,26.3c0.1-0.1,0-0.7,0-0.7c0.1-0.7,0.6-1.3,1.3-1.3c0.1,0.1,1.3,0,1.3,0c0.6,0,1.3,0.6,1.3,1.3c0,0,0,0.7,0,0.7"/>
</g>
<g>
	<path fill="none" stroke="#3B2C31" stroke-width="2" stroke-linecap="round" stroke-linejoin="round" stroke-miterlimit="10" d="
		M50.1,14.3c0,0.7,0,13,0,13"/>
</g>
<g>
	<path fill="none" stroke="#3B2C31" stroke-width="2" stroke-linecap="round" stroke-linejoin="round" stroke-miterlimit="10" d="
		M58.1,14.3c0,0.7,0,13,0,13"/>
</g>
<g>
	<path fill="none" stroke="#3B2C31" stroke-width="2" stroke-linecap="round" stroke-linejoin="round" stroke-miterlimit="10" d="
		M57.1,33.3c-0.1,0.4-6,0-6,0c-1.6-0.1-2-0.9-2-2c-0.4,0,0-2,0-2c0.5-1.2,0.9-2,2-2c-0.4-0.3,6,0,6,0c1.5,0.3,2,0.9,2,2
		c0.3-0.1,0,2,0,2C58.9,32.3,58.2,33.3,57.1,33.3z"/>
</g>
<g>
	<path fill="none" stroke="#3B2C31" stroke-width="2" stroke-linecap="round" stroke-linejoin="round" stroke-miterlimit="10" d="
		M57.1,14.3c0,1.8-1.3,3-3,3c-1.5,0.1-3-1.3-3-3"/>
</g>
<g>
	<path fill="none" stroke="#3B2C31" stroke-width="2" stroke-linecap="round" stroke-linejoin="round" stroke-miterlimit="10" d="
		M54.3,14.4c-0.5-0.3-0.5,0-0.5,0c-2.6-0.3-5-2.2-5-5c0.3-0.4,0-3.1,0-3.1c0.5-3.2,2.2-5,5-5c0.6-0.5,0.5,0,0.5,0c2.5-0.4,5,2.2,5,5
		c0.5-0.7,0,3.1,0,3.1C59.5,12.7,57.1,14.4,54.3,14.4z"/>
</g>
<g>
	<path fill="none" stroke="#3B2C31" stroke-width="2" stroke-linecap="round" stroke-linejoin="round" stroke-miterlimit="10" d="
		M55.6,30.8c-0.1,0.9-0.7,1.5-1.5,1.5c-0.9,0.1-1.5-0.7-1.5-1.5c-0.1-0.7,0.7-1.5,1.5-1.5C55,29.2,55.6,29.9,55.6,30.8z"/>
</g>
</svg>
