<?xml version="1.0" encoding="utf-8"?>
<!-- Generator: Adobe Illustrator 18.0.0, SVG Export Plug-In . SVG Version: 6.00 Build 0)  -->
<!DOCTYPE svg PUBLIC "-//W3C//DTD SVG 1.1//EN" "http://www.w3.org/Graphics/SVG/1.1/DTD/svg11.dtd">
<svg version="1.1" id="Слой_1" xmlns="http://www.w3.org/2000/svg" xmlns:xlink="http://www.w3.org/1999/xlink" x="0px" y="0px"
	 viewBox="0 0 128.2 85.3" enable-background="new 0 0 128.2 85.3" xml:space="preserve">
<g>
	<g>
		<path fill="#E7D3CA" d="M47,10.3c0.2,1.7-1.3,3-3,3c-1.4,0.1-3-1.3-3-3C41,10.3,47,10.3,47,10.3z"/>
		<path fill="none" stroke="#3B2C31" stroke-width="2" stroke-linecap="round" stroke-linejoin="round" stroke-miterlimit="10" d="
			M47,10.3c0.2,1.7-1.3,3-3,3c-1.4,0.1-3-1.3-3-3C41,10.3,47,10.3,47,10.3z"/>
	</g>
	<g>
		<path fill="none" stroke="#3B2C31" stroke-width="2" stroke-linecap="round" stroke-linejoin="round" stroke-miterlimit="10" d="
			M46.2,18.3c-0.4,0.5-4,0-4,0c-1.4,0.3-2-0.9-2-2c0,0,0-5,0-5c-0.3-0.8,0.5-1,1-1c0.4,0.1,6,0,6,0c0.8-0.1,1,0.5,1,1
			c0.3,0.1,0,5,0,5C47.8,17.5,47.3,18.3,46.2,18.3z"/>
	</g>
	<g>
		<path fill="#E7D3CA" d="M47,28.3c-0.5,1.7,1.3,3,3,3c1.9,0.1,3-1.3,3-3c-0.5,1.7,1.3,3,3,3c1.9,0,3-1.3,3-3
			C58.9,28.2,47,28.3,47,28.3z"/>
		<path fill="none" stroke="#3B2C31" stroke-width="2" stroke-linecap="round" stroke-linejoin="round" stroke-miterlimit="10" d="
			M47,28.3c-0.5,1.7,1.3,3,3,3c1.9,0.1,3-1.3,3-3c-0.5,1.7,1.3,3,3,3c1.9,0,3-1.3,3-3C58.9,28.2,47,28.3,47,28.3z"/>
	</g>
	<g>
		<path fill="#E7D3CA" d="M29,28.3c-0.1,1.5,1.3,3,3,3c1.9,0.1,3-1.3,3-3c-0.7,1.5,1.3,3,3,3c1.4,0,3-1.3,3-3c-0.6,1.7,1.3,3,3,3
			c1,0,3-1.3,3-3C47.4,28.5,29,28.3,29,28.3z"/>
		<path fill="none" stroke="#3B2C31" stroke-width="2" stroke-linecap="round" stroke-linejoin="round" stroke-miterlimit="10" d="
			M29,28.3c-0.1,1.5,1.3,3,3,3c1.9,0.1,3-1.3,3-3c-0.7,1.5,1.3,3,3,3c1.4,0,3-1.3,3-3c-0.6,1.7,1.3,3,3,3c1,0,3-1.3,3-3
			C47.4,28.5,29,28.3,29,28.3z"/>
	</g>
	<g>
		<path fill="#E7D3CA" d="M35,18.3c-0.1,1.7,1.3,3,3,3c1.3,0.1,3-1.3,3-3c-0.7,1.6,1.3,3,3,3c1.3-0.1,3-1.3,3-3c0.8,1.6,1.3,3,3,3
			c2.3,0.2,3-1.3,3-3C53.2,18.2,35,18.3,35,18.3z"/>
		<path fill="none" stroke="#3B2C31" stroke-width="2" stroke-linecap="round" stroke-linejoin="round" stroke-miterlimit="10" d="
			M35,18.3c-0.1,1.7,1.3,3,3,3c1.3,0.1,3-1.3,3-3c-0.7,1.6,1.3,3,3,3c1.3-0.1,3-1.3,3-3c0.8,1.6,1.3,3,3,3c2.3,0.2,3-1.3,3-3
			C53.2,18.2,35,18.3,35,18.3z"/>
	</g>
	<g>
		<path fill="none" stroke="#3B2C31" stroke-width="2" stroke-linecap="round" stroke-linejoin="round" stroke-miterlimit="10" d="
			M52.2,28.3c-0.8,0.2-16,0-16,0c-1.4,0.4-2-0.9-2-2c-0.3,0.1,0-7,0-7c0.6,0,0.5-1,1-1c-1,0.4,18,0,18,0c-0.4-0.2,1,0.5,1,1
			c0.4,0.2,0,7,0,7C55.3,26.9,53.3,28.3,52.2,28.3z"/>
	</g>
	<g>
		<path fill="none" stroke="#3B2C31" stroke-width="2" stroke-linecap="round" stroke-linejoin="round" stroke-miterlimit="10" d="
			M58.2,40.3c1.8,0.6-28,0-28,0c-0.6,0.5-2-0.9-2-2c0.6,0.2,0-9,0-9c1.2-0.9,0.5-1,1-1c-0.9,0.3,30,0,30,0c-0.8,0.7,1,0.5,1,1
			c0.9-0.6,0,9,0,9C59.6,39.8,59.3,40.3,58.2,40.3z"/>
	</g>
</g>
<g>
	<g>
		<path fill="none" stroke="#3B2C31" stroke-width="2" stroke-linecap="round" stroke-linejoin="round" stroke-miterlimit="10" d="
			M82.6,33.7c0.6,0.3,4.2-4.2,4.2-4.2c0.1,0.2,6.4,3.5,6.4,3.5c-0.5-0.1-7.1,7.1-7.1,7.1C86,40,82.6,33.7,82.6,33.7z"/>
	</g>
	<g>
		<path fill="none" stroke="#3B2C31" stroke-width="2" stroke-linecap="round" stroke-linejoin="round" stroke-miterlimit="10" d="
			M86.9,29.5c0.8-1.4-4.2,4.2-4.2,4.2c0.4,0.6-26.2-12-26.2-12C55.3,22.8,74.8,3.3,74.8,3.3C73.8,1.9,86.9,29.5,86.9,29.5z"/>
	</g>
	<g>
		<path fill="#E7D3CA" d="M74.8,3.3c1.2,1.2,1.2,3.1,0,4.2c-1.3,0.9-3.1,1.2-4.2,0c-1-1.1-1.2-3.1,0-4.2C71.5,2,73.7,2.2,74.8,3.3z"
			/>
		<path fill="none" stroke="#3B2C31" stroke-width="2" stroke-linecap="round" stroke-linejoin="round" stroke-miterlimit="10" d="
			M74.8,3.3c1.2,1.2,1.2,3.1,0,4.2c-1.3,0.9-3.1,1.2-4.2,0c-1-1.1-1.2-3.1,0-4.2C71.5,2,73.7,2.2,74.8,3.3z"/>
	</g>
	<g>
		<path fill="#E7D3CA" d="M67.8,1.9c1.1,1.5,1.2,3.1,0,4.2c-1.5,1-3.1,1.2-4.2,0c-1.4-1-1.2-3.1,0-4.2C64.4,0.7,66.6,0.7,67.8,1.9z"
			/>
		<path fill="none" stroke="#3B2C31" stroke-width="2" stroke-linecap="round" stroke-linejoin="round" stroke-miterlimit="10" d="
			M67.8,1.9c1.1,1.5,1.2,3.1,0,4.2c-1.5,1-3.1,1.2-4.2,0c-1.4-1-1.2-3.1,0-4.2C64.4,0.7,66.6,0.7,67.8,1.9z"/>
	</g>
	<g>
		<path fill="#E7D3CA" d="M63.5,6.2c1.3,1.5,1.2,3.1,0,4.2c-1,1-3.1,1.2-4.2,0c-0.9-1.3-1.2-3.1,0-4.2C60.6,4.8,62.4,5,63.5,6.2z"/>
		<path fill="none" stroke="#3B2C31" stroke-width="2" stroke-linecap="round" stroke-linejoin="round" stroke-miterlimit="10" d="
			M63.5,6.2c1.3,1.5,1.2,3.1,0,4.2c-1,1-3.1,1.2-4.2,0c-0.9-1.3-1.2-3.1,0-4.2C60.6,4.8,62.4,5,63.5,6.2z"/>
	</g>
	<g>
		<path fill="#E7D3CA" d="M70.6,7.6c1.3,1.1,1.2,3.1,0,4.2c-1.3,1.5-3.1,1.2-4.2,0c-1.4-1.4-1.2-3.1,0-4.2
			C67.2,6.2,69.4,6.4,70.6,7.6z"/>
		<path fill="none" stroke="#3B2C31" stroke-width="2" stroke-linecap="round" stroke-linejoin="round" stroke-miterlimit="10" d="
			M70.6,7.6c1.3,1.1,1.2,3.1,0,4.2c-1.3,1.5-3.1,1.2-4.2,0c-1.4-1.4-1.2-3.1,0-4.2C67.2,6.2,69.4,6.4,70.6,7.6z"/>
	</g>
	<g>
		<path fill="#E7D3CA" d="M59.3,10.4c1.2,1.1,1.2,3.1,0,4.2c-1.5,1-3.1,1.2-4.2,0c-1.2-1-1.2-3.1,0-4.2C56.3,9.2,58.1,9.2,59.3,10.4
			z"/>
		<path fill="none" stroke="#3B2C31" stroke-width="2" stroke-linecap="round" stroke-linejoin="round" stroke-miterlimit="10" d="
			M59.3,10.4c1.2,1.1,1.2,3.1,0,4.2c-1.5,1-3.1,1.2-4.2,0c-1.2-1-1.2-3.1,0-4.2C56.3,9.2,58.1,9.2,59.3,10.4z"/>
	</g>
	<g>
		<path fill="#E7D3CA" d="M65.7,12.5c1,1.2,1.2,3.1,0,4.2c-0.9,1-3.1,1.2-4.2,0c-1.4-1.1-1.2-3.1,0-4.2
			C62.9,11.6,64.5,11.3,65.7,12.5z"/>
		<path fill="none" stroke="#3B2C31" stroke-width="2" stroke-linecap="round" stroke-linejoin="round" stroke-miterlimit="10" d="
			M65.7,12.5c1,1.2,1.2,3.1,0,4.2c-0.9,1-3.1,1.2-4.2,0c-1.4-1.1-1.2-3.1,0-4.2C62.9,11.6,64.5,11.3,65.7,12.5z"/>
	</g>
	<g>
		<path fill="#E7D3CA" d="M60.7,17.5c1.5,1.2,1.2,3.1,0,4.2c-1.3,1.1-3.1,1.2-4.2,0c-1.5-1.2-1.2-3.1,0-4.2
			C57.6,16.1,59.5,16.3,60.7,17.5z"/>
		<path fill="none" stroke="#3B2C31" stroke-width="2" stroke-linecap="round" stroke-linejoin="round" stroke-miterlimit="10" d="
			M60.7,17.5c1.5,1.2,1.2,3.1,0,4.2c-1.3,1.1-3.1,1.2-4.2,0c-1.5-1.2-1.2-3.1,0-4.2C57.6,16.1,59.5,16.3,60.7,17.5z"/>
	</g>
</g>
<g>
	<path fill="none" stroke="#3B2C31" stroke-width="2" stroke-linecap="round" stroke-linejoin="round" stroke-miterlimit="10" d="
		M124,69.6c-1.6,0,0,3.8,0,3.8c0,0.5-0.5,1-1,1c-0.2-0.2-8,0-8,0c0.7-7.5-6.3-14-14-14c-8.5-0.2-14,6.3-14,14c-1.9,0.2-39,0-39,0
		c0.2-7.8-6.3-14-14-14c-5.9,0.2-14,6.3-14,14c-1.7,0.2-15,0-15,0c-0.1-0.3-1-0.4-1-1c1.5,0,0,0,0,0c-1.7-1.5,0.1-2.6,0.2-3.9"/>
</g>
<g>
	<path fill="none" stroke="#3B2C31" stroke-width="2" stroke-linecap="round" stroke-linejoin="round" stroke-miterlimit="10" d="
		M5.3,64.2C7.7,50.4,22,40.3,37,40.3c0-0.1,51,0,51,0c7.9-0.3,14.8,6.1,15.9,13.9c0.7,0.3,14.1,0.1,14.1,0.1c2.6-0.4,6,2.7,6,6
		c-1.9,0.3,0,4,0,4"/>
</g>
<g>
	<path fill="none" stroke="#3B2C31" stroke-width="2" stroke-linecap="round" stroke-linejoin="round" stroke-miterlimit="10" d="
		M37.5,45.3c-0.4,0.3-4,0-4,0c-4.4,0-7,3.1-7,7c0.4-0.4,0,0,0,0c0,0.5,0.4,1,1,1c0.4,0.1,10,0,10,0c-0.2,0.2,1-0.4,1-1
		c0.1,0.3,0-6,0-6C38.3,46.1,38.1,45.3,37.5,45.3z"/>
</g>
<g>
	<path fill="none" stroke="#3B2C31" stroke-width="2" stroke-linecap="round" stroke-linejoin="round" stroke-miterlimit="10" d="
		M66.5,45.3c-0.4-0.3-23,0-23,0c-0.4,0.1-1,0.4-1,1c-0.9,0.2,0,6,0,6c0.4,0.5,0.5,1,1,1c-1.2,0.2,23,0,23,0c-0.2,0.2,1-0.4,1-1
		c1.6,0.1,0-6,0-6C68.6,46.1,67.1,45.3,66.5,45.3z"/>
</g>
<g>
	<path fill="none" stroke="#3B2C31" stroke-width="2" stroke-linecap="round" stroke-linejoin="round" stroke-miterlimit="10" d="
		M89.5,45.3c-1.1-0.4-17,0-17,0c-1.8,0.3-1,0.4-1,1c0-0.3,0,6,0,6c0.1,0.5,0.4,1,1,1c-1.5,0.2,23,0,23,0c-0.2-0.3,1-0.4,1-1
		c2,0.1,0,0,0,0C97.5,48.8,93.4,45.3,89.5,45.3z"/>
</g>
<g>
	<path fill="none" stroke="#3B2C31" stroke-width="2" stroke-linecap="round" stroke-linejoin="round" stroke-miterlimit="10" d="
		M124,56.3c1.6-0.3,3,1.3,3,3c0.1,1.4-1.3,3-3,3"/>
</g>
<g>
	<path fill="#E7D3CA" d="M106,74.3c-0.1,2.7-2.2,5-5,5c-2.6,0.2-5-2.2-5-5c0.2-2.7,2.2-5,5-5C103.8,69.2,106,71.6,106,74.3z"/>
	<path fill="none" stroke="#3B2C31" stroke-width="2" stroke-linecap="round" stroke-linejoin="round" stroke-miterlimit="10" d="
		M106,74.3c-0.1,2.7-2.2,5-5,5c-2.6,0.2-5-2.2-5-5c0.2-2.7,2.2-5,5-5C103.8,69.2,106,71.6,106,74.3z"/>
</g>
<g>
	<path fill="none" stroke="#3B2C31" stroke-width="2" stroke-linecap="round" stroke-linejoin="round" stroke-miterlimit="10" d="
		M111,74.3c-0.2,5.9-4.5,10-10,10c-5.4-0.1-10-4.5-10-10c-0.2-5.6,4.5-10,10-10C106.2,64.6,111,68.8,111,74.3z"/>
</g>
<g>
	<path fill="#E7D3CA" d="M39,74.3c-0.1,2.7-2.2,5-5,5c-2.8-0.1-5-2.2-5-5c0.2-2.8,2.2-5,5-5C36.9,69.2,39,71.6,39,74.3z"/>
	<path fill="none" stroke="#3B2C31" stroke-width="2" stroke-linecap="round" stroke-linejoin="round" stroke-miterlimit="10" d="
		M39,74.3c-0.1,2.7-2.2,5-5,5c-2.8-0.1-5-2.2-5-5c0.2-2.8,2.2-5,5-5C36.9,69.2,39,71.6,39,74.3z"/>
</g>
<g>
	<path fill="none" stroke="#3B2C31" stroke-width="2" stroke-linecap="round" stroke-linejoin="round" stroke-miterlimit="10" d="
		M44,74.3c-0.1,5.8-4.5,10-10,10c-5.2-0.3-10-4.5-10-10c0-5.2,4.5-10,10-10C39.9,64.2,44,68.8,44,74.3z"/>
</g>
<g>
	<path fill="none" stroke="#3B2C31" stroke-width="2" stroke-linecap="round" stroke-linejoin="round" stroke-miterlimit="10" d="
		M125,69.3c0-0.2-6,0-6,0c-1,0-2-0.9-2-2c-0.3,0.1,0-1,0-1c0.2-1.1,0.9-2,2-2c-0.3,0.1,6,0,6,0c0.9,0.2,2,0.9,2,2c0.4,0.1,0,1,0,1
		C127.3,68.6,126.1,69.3,125,69.3z"/>
</g>
<g>
	<path fill="none" stroke="#3B2C31" stroke-width="2" stroke-linecap="round" stroke-linejoin="round" stroke-miterlimit="10" d="
		M15,69.3c-0.8-0.1-12,0-12,0c-1.6,0.1-2-0.9-2-2c-0.1-0.2,0-1,0-1c-0.1-1.2,0.9-2,2-2c-1,0.1,12,0,12,0c0.5-0.1,2,0.9,2,2
		c0.9,0,0,1,0,1C17.9,68.6,16.1,69.3,15,69.3z"/>
</g>
<g>
	<path fill="none" stroke="#3B2C31" stroke-width="2" stroke-linecap="round" stroke-linejoin="round" stroke-miterlimit="10" d="
		M62,57.3c0.2,0,4,0,4,0"/>
</g>
<g>
	
		<line fill="none" stroke="#3B2C31" stroke-width="2" stroke-linecap="round" stroke-linejoin="round" stroke-miterlimit="10" x1="74" y1="57.3" x2="78" y2="57.3"/>
</g>
<g>
	<path fill="none" stroke="#3B2C31" stroke-width="2" stroke-linecap="round" stroke-linejoin="round" stroke-miterlimit="10" d="
		M40,55.3c0,0,0,3,0,3"/>
</g>
<g>
	<path fill="none" stroke="#3B2C31" stroke-width="2" stroke-linecap="round" stroke-linejoin="round" stroke-miterlimit="10" d="
		M70,55.3c0-0.9,0,16,0,16"/>
</g>
</svg>
