<?xml version="1.0" encoding="utf-8"?>
<!-- Generator: Adobe Illustrator 18.0.0, SVG Export Plug-In . SVG Version: 6.00 Build 0)  -->
<!DOCTYPE svg PUBLIC "-//W3C//DTD SVG 1.1//EN" "http://www.w3.org/Graphics/SVG/1.1/DTD/svg11.dtd">
<svg version="1.1" id="Слой_1" xmlns="http://www.w3.org/2000/svg" xmlns:xlink="http://www.w3.org/1999/xlink" x="0px" y="0px"
	 viewBox="0 0 86.1 74.2" enable-background="new 0 0 86.1 74.2" xml:space="preserve">
<g>
	<path fill="none" stroke="#3B2C31" stroke-width="2" stroke-linecap="round" stroke-linejoin="round" stroke-miterlimit="10" d="
		M72.4,42.1c-0.6,0.4-1.2,1-1.7,1.6"/>
</g>
<g>
	<path fill="none" stroke="#3B2C31" stroke-width="2" stroke-linecap="round" stroke-linejoin="round" stroke-miterlimit="10" d="
		M81.5,43.7c-0.4-0.6-1.1-1.2-1.8-1.7"/>
</g>
<g>
	<path fill="none" stroke="#3B2C31" stroke-width="2" stroke-linecap="round" stroke-linejoin="round" stroke-miterlimit="10" d="
		M69.1,51.1c0.4,0.5,0,8.7,0,8.7c0.5,1,0.6,1.3,1.4,1.3c-0.4,0,11.2,0,11.2,0c0.6,0.2,1.4-0.6,1.4-1.3c-0.5,0,0-8.7,0-8.7"/>
</g>
<g>
	<path fill="none" stroke="#3B2C31" stroke-width="2" stroke-linecap="round" stroke-linejoin="round" stroke-miterlimit="10" d="
		M82.1,37.3c0.1-0.1,0,8.3,0,8.3c0,0.9,0.7,1.4,1.5,1.4c0,0.8,0,0,0,0c0.8,0.3,1.5-0.6,1.5-1.4c0.1,0.6,0-11.2,0-11.2
		c0.1-0.4-0.7-1.4-1.5-1.4"/>
</g>
<g>
	<path fill="none" stroke="#3B2C31" stroke-width="2" stroke-linecap="round" stroke-linejoin="round" stroke-miterlimit="10" d="
		M83.5,51c0.1,0.2,0.3,0,0.3,0c0.6,0.2,1.4-0.6,1.4-1.4c-0.2,0,0-1.3,0-1.3c0.2-0.9-0.6-1.4-1.4-1.4c0,0-0.3,0-0.3,0
		c-0.6,0.1-1.4,0.6-1.4,1.4c-0.2,0.1,0,1.3,0,1.3C82.1,50.6,82.7,51,83.5,51z"/>
</g>
<g>
	<path fill="none" stroke="#3B2C31" stroke-width="2" stroke-linecap="round" stroke-linejoin="round" stroke-miterlimit="10" d="
		M70.1,37.3c0.1-0.1,0,8.3,0,8.3c0,0.9-0.7,1.4-1.5,1.4c0,0.8,0,0,0,0c-0.9,0.3-1.5-0.6-1.5-1.4c0.1,0.6,0-11.2,0-11.2
		c0.1-0.4,0.7-1.4,1.5-1.4"/>
</g>
<g>
	<path fill="none" stroke="#3B2C31" stroke-width="2" stroke-linecap="round" stroke-linejoin="round" stroke-miterlimit="10" d="
		M80.3,39c1.4-2,2.8-5.9,2.8-5.9c0.6-2.3-1.9-4-4.2-4c0.6-0.4-1.4,0-1.4,0c-0.5-0.3-2.8,0-2.8,0c0.9-0.6-1.4,0-1.4,0
		c-2.2,0.2-4.2,1.8-4.2,4c0.2,0.5,1.8,4.4,2.9,6"/>
</g>
<g>
	<path fill="none" stroke="#3B2C31" stroke-width="2" stroke-linecap="round" stroke-linejoin="round" stroke-miterlimit="10" d="
		M76.2,30c0,0-0.3,0-0.3,0c-0.9-0.2-1.4-0.6-1.4-1.4c-0.1,0,0-2.3,0-2.3c-0.1-0.1,0.2-0.3,0.3-0.3c0,0.1,2.3,0,2.3,0
		c0.3,0,0.3,0.2,0.3,0.3c-0.1,0,0,2.3,0,2.3C77.7,29.4,77,30,76.2,30z"/>
</g>
<g>
	<path fill="none" stroke="#3B2C31" stroke-width="2" stroke-linecap="round" stroke-linejoin="round" stroke-miterlimit="10" d="
		M76.1,26C75.6,25.6,76.1,26,76.1,26c-2.3-0.5-4-1.8-4-4c-0.4,0,0-6,0-6c0.1-0.9,0.4-1,1-1c-0.2,0.3,6,0,6,0c0.9,0.3,1,0.5,1,1
		c0.3,0.2,0,6,0,6C80.5,24.8,78.3,26,76.1,26z"/>
</g>
<g>
	<path fill="#3B2C31" d="M81.1,28c-0.6-0.6-1.2-1.4-1.2-1.4c-0.4,0.6,0-9.8,0-9.8c0.2-0.9-0.6-1.4-1.2-1.4c-0.1-0.3-5,0-5,0
		c-0.2,0.3-1.2,0.6-1.2,1.4c0.5-0.5,0,9.8,0,9.8c0.4-0.2-1.2,1.4-1.2,1.4c-0.3-0.6,0-12.6,0-12.6c0-0.3,0.6-1.4,1.2-1.4
		c0-0.9,7.5,0,7.5,0c0.6,0.1,1.2,0.6,1.2,1.4C81.5,15.5,81.1,28,81.1,28z"/>
	<path fill="none" stroke="#3B2C31" stroke-width="2" stroke-linecap="round" stroke-linejoin="round" stroke-miterlimit="10" d="
		M81.1,28c-0.6-0.6-1.2-1.4-1.2-1.4c-0.4,0.6,0-9.8,0-9.8c0.2-0.9-0.6-1.4-1.2-1.4c-0.1-0.3-5,0-5,0c-0.2,0.3-1.2,0.6-1.2,1.4
		c0.5-0.5,0,9.8,0,9.8c0.4-0.2-1.2,1.4-1.2,1.4c-0.3-0.6,0-12.6,0-12.6c0-0.3,0.6-1.4,1.2-1.4c0-0.9,7.5,0,7.5,0
		c0.6,0.1,1.2,0.6,1.2,1.4C81.5,15.5,81.1,28,81.1,28z"/>
</g>
<g>
	<path fill="none" stroke="#3B2C31" stroke-width="2" stroke-linecap="round" stroke-linejoin="round" stroke-miterlimit="10" d="
		M72.9,73c-0.2,0.2,0.3,0,0.3,0c0.6,0.6,1.3-0.6,1.3-1.3c0.1,0.4,0-10.7,0-10.7c0.1-0.1-3,0-3,0c0,0.6,0,10.7,0,10.7
		C71.7,72.6,72.2,73,72.9,73z"/>
</g>
<g>
	<path fill="none" stroke="#3B2C31" stroke-width="2" stroke-linecap="round" stroke-linejoin="round" stroke-miterlimit="10" d="
		M73.1,73C72.9,73.1,73.1,73,73.1,73c0.6,0.2,1.5-0.7,1.5-1.5c0.2,0.2,0,0,0,0c0.2-0.9-0.7-1.5-1.5-1.5c-0.1,0.1,0,0,0,0
		c-0.8,0.2-1.5,0.7-1.5,1.5c0-0.2,0,0,0,0C71.6,72.3,72.3,73,73.1,73z"/>
</g>
<g>
	<path fill="none" stroke="#3B2C31" stroke-width="2" stroke-linecap="round" stroke-linejoin="round" stroke-miterlimit="10" d="
		M79.1,73C78.9,73.1,79.1,73,79.1,73c0.6,0.2,1.5-0.7,1.5-1.5c0.2,0.2,0,0,0,0c0.2-0.9-0.7-1.5-1.5-1.5c-0.1,0.1,0,0,0,0
		c-0.8,0.2-1.5,0.7-1.5,1.5c0-0.2,0,0,0,0C77.6,72.3,78.3,73,79.1,73z"/>
</g>
<g>
	<path fill="none" stroke="#3B2C31" stroke-width="2" stroke-linecap="round" stroke-linejoin="round" stroke-miterlimit="10" d="
		M78.9,73c-0.2,0.2,0.3,0,0.3,0c0.6,0.6,1.3-0.6,1.3-1.3c0.1,0.4,0-10.7,0-10.7c0.1-0.1-3,0-3,0c0,0.6,0,10.7,0,10.7
		C77.7,72.6,78.2,73,78.9,73z"/>
</g>
<g>
	<path fill="none" stroke="#3B2C31" stroke-width="2" stroke-linecap="round" stroke-linejoin="round" stroke-miterlimit="10" d="
		M80.1,40.5C80,40.6,80.1,40.5,80.1,40.5c-0.3,0.9-0.6,1.5-1.3,1.5c-0.3,0.1-5.3,0-5.3,0c-0.4,0.1-1.3-0.7-1.3-1.5c-0.2,0.2,0,0,0,0
		c0-0.8,0.6-1.5,1.3-1.5c-0.2,0,5.3,0,5.3,0C79.7,39.2,80.1,39.7,80.1,40.5z"/>
</g>
<g>
	<path fill="none" stroke="#3B2C31" stroke-width="2" stroke-linecap="round" stroke-linejoin="round" stroke-miterlimit="10" d="
		M68.7,51c0.1,0.2-0.3,0-0.3,0c-0.9,0.2-1.4-0.6-1.4-1.4c-0.2,0,0-1.3,0-1.3c0.2-0.9,0.6-1.4,1.4-1.4c0,0,0.3,0,0.3,0
		c0.9,0.1,1.4,0.6,1.4,1.4c-0.2,0.1,0,1.3,0,1.3C70.1,50.6,69.5,51,68.7,51z"/>
</g>
<g>
	<path fill="none" stroke="#EA4870" stroke-width="2" stroke-linecap="round" stroke-linejoin="round" stroke-miterlimit="10" d="
		M79.9,1c-0.4-0.1-8.2,0-8.2,0c-0.4,0.1-2.6,2.2-2.6,2.2c0-0.3,0,0.5,0,0.5c-0.3,0,7,6.3,7,6.3c-0.7,0.1,7-6.3,7-6.3
		c-0.6-0.1,0-0.5,0-0.5C83.8,3.3,79.9,1,79.9,1z"/>
</g>
<g>
	<path fill="#3B2C31" d="M75.8,19c-0.1,0.6-0.4,1-1,1c-0.6,0.1-1-0.4-1-1c0.1-0.6,0.4-1,1-1C75.4,18.1,75.8,18.5,75.8,19z"/>
</g>
<g>
	<path fill="#3B2C31" d="M78.4,19c0,0.7-0.4,1-1,1c-0.7,0-1-0.4-1-1c0.1-0.6,0.4-1,1-1C77.9,18.1,78.4,18.5,78.4,19z"/>
</g>
<g>
	<path fill="none" stroke="#3B2C31" stroke-width="2" stroke-linecap="round" stroke-linejoin="round" stroke-miterlimit="10" d="
		M77.1,22.8c-0.1,0-0.2,0-0.3,0c-0.1,0-1.3,0-1.3,0c-0.2,0-0.3,0-0.3,0"/>
</g>
<g>
	<path fill="none" stroke="#3B2C31" stroke-width="2" stroke-linecap="round" stroke-linejoin="round" stroke-miterlimit="10" d="
		M50.4,42.1c-0.6,0.4-1.2,1-1.7,1.6"/>
</g>
<g>
	<path fill="none" stroke="#3B2C31" stroke-width="2" stroke-linecap="round" stroke-linejoin="round" stroke-miterlimit="10" d="
		M59.5,43.7c-0.4-0.6-1.1-1.2-1.8-1.7"/>
</g>
<g>
	<path fill="none" stroke="#3B2C31" stroke-width="2" stroke-linecap="round" stroke-linejoin="round" stroke-miterlimit="10" d="
		M47.1,51.1c0.4,0.5,0,8.7,0,8.7c0.5,1,0.6,1.3,1.4,1.3c-0.4,0,11.2,0,11.2,0c0.6,0.2,1.4-0.6,1.4-1.3c-0.5,0,0-8.7,0-8.7"/>
</g>
<g>
	<path fill="none" stroke="#3B2C31" stroke-width="2" stroke-linecap="round" stroke-linejoin="round" stroke-miterlimit="10" d="
		M60.1,37.3c0.1-0.1,0,8.3,0,8.3c0,0.9,0.7,1.4,1.5,1.4c0,0.8,0,0,0,0c0.8,0.3,1.5-0.6,1.5-1.4c0.1,0.6,0-11.2,0-11.2
		c0.1-0.4-0.7-1.4-1.5-1.4"/>
</g>
<g>
	<path fill="none" stroke="#3B2C31" stroke-width="2" stroke-linecap="round" stroke-linejoin="round" stroke-miterlimit="10" d="
		M61.5,51c0.1,0.2,0.3,0,0.3,0c0.6,0.2,1.4-0.6,1.4-1.4c-0.2,0,0-1.3,0-1.3c0.2-0.9-0.6-1.4-1.4-1.4c0,0-0.3,0-0.3,0
		c-0.6,0.1-1.4,0.6-1.4,1.4c-0.2,0.1,0,1.3,0,1.3C60.1,50.6,60.7,51,61.5,51z"/>
</g>
<g>
	<path fill="none" stroke="#3B2C31" stroke-width="2" stroke-linecap="round" stroke-linejoin="round" stroke-miterlimit="10" d="
		M48.1,37.3c0.1-0.1,0,8.3,0,8.3c0,0.9-0.7,1.4-1.5,1.4c0,0.8,0,0,0,0c-0.9,0.3-1.5-0.6-1.5-1.4c0.1,0.6,0-11.2,0-11.2
		c0.1-0.4,0.7-1.4,1.5-1.4"/>
</g>
<g>
	<path fill="none" stroke="#3B2C31" stroke-width="2" stroke-linecap="round" stroke-linejoin="round" stroke-miterlimit="10" d="
		M58.3,39c1.4-2,2.8-5.9,2.8-5.9c0.6-2.3-1.9-4-4.2-4c0.6-0.4-1.4,0-1.4,0c-0.5-0.3-2.8,0-2.8,0c0.9-0.6-1.4,0-1.4,0
		c-2.2,0.2-4.2,1.8-4.2,4c0.2,0.5,1.8,4.4,2.9,6"/>
</g>
<g>
	<path fill="none" stroke="#3B2C31" stroke-width="2" stroke-linecap="round" stroke-linejoin="round" stroke-miterlimit="10" d="
		M54.2,30c0,0-0.3,0-0.3,0c-0.9-0.2-1.4-0.6-1.4-1.4c-0.1,0,0-2.3,0-2.3c-0.1-0.1,0.2-0.3,0.3-0.3c0,0.1,2.3,0,2.3,0
		c0.3,0,0.3,0.2,0.3,0.3c-0.1,0,0,2.3,0,2.3C55.7,29.4,55,30,54.2,30z"/>
</g>
<g>
	<path fill="none" stroke="#3B2C31" stroke-width="2" stroke-linecap="round" stroke-linejoin="round" stroke-miterlimit="10" d="
		M54.1,26C53.6,25.6,54.1,26,54.1,26c-2.3-0.5-4-1.8-4-4c-0.4,0,0-6,0-6c0.1-0.9,0.5-1,1-1c-0.2,0.3,6,0,6,0c0.9,0.3,1,0.5,1,1
		c0.3,0.2,0,6,0,6C58.5,24.8,56.3,26,54.1,26z"/>
</g>
<g>
	<path fill="#3B2C31" d="M59.1,28c-0.6-0.6-1.2-1.4-1.2-1.4c-0.4,0.6,0-9.8,0-9.8c0.2-0.9-0.6-1.4-1.2-1.4c-0.1-0.3-5,0-5,0
		c-0.2,0.3-1.2,0.6-1.2,1.4c0.5-0.5,0,9.8,0,9.8c0.4-0.2-1.2,1.4-1.2,1.4c-0.3-0.6,0-12.6,0-12.6c0-0.3,0.6-1.4,1.2-1.4
		c0-0.9,7.5,0,7.5,0c0.6,0.1,1.2,0.6,1.2,1.4C59.5,15.5,59.1,28,59.1,28z"/>
	<path fill="none" stroke="#3B2C31" stroke-width="2" stroke-linecap="round" stroke-linejoin="round" stroke-miterlimit="10" d="
		M59.1,28c-0.6-0.6-1.2-1.4-1.2-1.4c-0.4,0.6,0-9.8,0-9.8c0.2-0.9-0.6-1.4-1.2-1.4c-0.1-0.3-5,0-5,0c-0.2,0.3-1.2,0.6-1.2,1.4
		c0.5-0.5,0,9.8,0,9.8c0.4-0.2-1.2,1.4-1.2,1.4c-0.3-0.6,0-12.6,0-12.6c0-0.3,0.6-1.4,1.2-1.4c0-0.9,7.5,0,7.5,0
		c0.6,0.1,1.2,0.6,1.2,1.4C59.5,15.5,59.1,28,59.1,28z"/>
</g>
<g>
	<path fill="none" stroke="#3B2C31" stroke-width="2" stroke-linecap="round" stroke-linejoin="round" stroke-miterlimit="10" d="
		M50.9,73c-0.2,0.2,0.3,0,0.3,0c0.6,0.6,1.3-0.6,1.3-1.3c0.1,0.4,0-10.7,0-10.7c0.1-0.1-3,0-3,0c0,0.6,0,10.7,0,10.7
		C49.7,72.6,50.2,73,50.9,73z"/>
</g>
<g>
	<path fill="none" stroke="#3B2C31" stroke-width="2" stroke-linecap="round" stroke-linejoin="round" stroke-miterlimit="10" d="
		M51.1,73C50.9,73.1,51.1,73,51.1,73c0.6,0.2,1.5-0.7,1.5-1.5c0.2,0.2,0,0,0,0c0.2-0.9-0.7-1.5-1.5-1.5c-0.1,0.1,0,0,0,0
		c-0.8,0.2-1.5,0.7-1.5,1.5c0-0.2,0,0,0,0C49.6,72.3,50.3,73,51.1,73z"/>
</g>
<g>
	<path fill="none" stroke="#3B2C31" stroke-width="2" stroke-linecap="round" stroke-linejoin="round" stroke-miterlimit="10" d="
		M57.1,73C56.9,73.1,57.1,73,57.1,73c0.6,0.2,1.5-0.7,1.5-1.5c0.2,0.2,0,0,0,0c0.2-0.9-0.7-1.5-1.5-1.5c-0.1,0.1,0,0,0,0
		c-0.8,0.2-1.5,0.7-1.5,1.5c0-0.2,0,0,0,0C55.6,72.3,56.3,73,57.1,73z"/>
</g>
<g>
	<path fill="none" stroke="#3B2C31" stroke-width="2" stroke-linecap="round" stroke-linejoin="round" stroke-miterlimit="10" d="
		M56.9,73c-0.2,0.2,0.3,0,0.3,0c0.6,0.6,1.3-0.6,1.3-1.3c0.1,0.4,0-10.7,0-10.7c0.1-0.1-3,0-3,0c0,0.6,0,10.7,0,10.7
		C55.7,72.6,56.2,73,56.9,73z"/>
</g>
<g>
	<path fill="none" stroke="#3B2C31" stroke-width="2" stroke-linecap="round" stroke-linejoin="round" stroke-miterlimit="10" d="
		M58.1,40.5C58,40.6,58.1,40.5,58.1,40.5c-0.3,0.9-0.6,1.5-1.3,1.5c-0.3,0.1-5.3,0-5.3,0c-0.4,0.1-1.3-0.7-1.3-1.5c-0.2,0.2,0,0,0,0
		c0-0.8,0.6-1.5,1.3-1.5c-0.2,0,5.3,0,5.3,0C57.7,39.2,58.1,39.7,58.1,40.5z"/>
</g>
<g>
	<path fill="none" stroke="#3B2C31" stroke-width="2" stroke-linecap="round" stroke-linejoin="round" stroke-miterlimit="10" d="
		M46.7,51c0.1,0.2-0.3,0-0.3,0c-0.9,0.2-1.4-0.6-1.4-1.4c-0.2,0,0-1.3,0-1.3c0.2-0.9,0.6-1.4,1.4-1.4c0,0,0.3,0,0.3,0
		c0.9,0.1,1.4,0.6,1.4,1.4c-0.2,0.1,0,1.3,0,1.3C48.1,50.6,47.5,51,46.7,51z"/>
</g>
<g>
	<path fill="none" stroke="#EA4870" stroke-width="2" stroke-linecap="round" stroke-linejoin="round" stroke-miterlimit="10" d="
		M57.9,1c-0.4-0.1-8.2,0-8.2,0c-0.4,0.1-2.6,2.2-2.6,2.2c0-0.3,0,0.5,0,0.5c-0.3,0,7,6.3,7,6.3c-0.7,0.1,7-6.3,7-6.3
		c-0.6-0.1,0-0.5,0-0.5C61.8,3.3,57.9,1,57.9,1z"/>
</g>
<g>
	<path fill="#3B2C31" d="M53.8,19c-0.1,0.6-0.4,1-1,1c-0.6,0.1-1-0.4-1-1c0.1-0.6,0.4-1,1-1C53.4,18.1,53.8,18.5,53.8,19z"/>
</g>
<g>
	<path fill="#3B2C31" d="M56.4,19c0,0.7-0.4,1-1,1c-0.7,0-1-0.4-1-1c0.1-0.6,0.4-1,1-1C55.9,18.1,56.4,18.5,56.4,19z"/>
</g>
<g>
	<path fill="none" stroke="#3B2C31" stroke-width="2" stroke-linecap="round" stroke-linejoin="round" stroke-miterlimit="10" d="
		M55.1,22.8c-0.1,0-0.1,0-0.3,0c-0.1,0-1.3,0-1.3,0c-0.2,0-0.3,0-0.3,0"/>
</g>
<g>
	<path fill="none" stroke="#3B2C31" stroke-width="2" stroke-linecap="round" stroke-linejoin="round" stroke-miterlimit="10" d="
		M28.4,42.1c-0.6,0.4-1.2,1-1.7,1.6"/>
</g>
<g>
	<path fill="none" stroke="#3B2C31" stroke-width="2" stroke-linecap="round" stroke-linejoin="round" stroke-miterlimit="10" d="
		M37.5,43.7c-0.4-0.6-1.1-1.2-1.8-1.7"/>
</g>
<g>
	<path fill="none" stroke="#3B2C31" stroke-width="2" stroke-linecap="round" stroke-linejoin="round" stroke-miterlimit="10" d="
		M25.1,51.1c0.4,0.5,0,8.7,0,8.7c0.5,1,0.6,1.3,1.4,1.3c-0.4,0,11.2,0,11.2,0c0.6,0.2,1.4-0.6,1.4-1.3c-0.5,0,0-8.7,0-8.7"/>
</g>
<g>
	<path fill="none" stroke="#3B2C31" stroke-width="2" stroke-linecap="round" stroke-linejoin="round" stroke-miterlimit="10" d="
		M38.1,37.3c0.1-0.1,0,8.3,0,8.3c0,0.9,0.7,1.4,1.5,1.4c0,0.8,0,0,0,0c0.8,0.3,1.5-0.6,1.5-1.4c0.1,0.6,0-11.2,0-11.2
		c0.1-0.4-0.7-1.4-1.5-1.4"/>
</g>
<g>
	<path fill="none" stroke="#3B2C31" stroke-width="2" stroke-linecap="round" stroke-linejoin="round" stroke-miterlimit="10" d="
		M39.5,51c0.1,0.2,0.3,0,0.3,0c0.6,0.2,1.4-0.6,1.4-1.4c-0.2,0,0-1.3,0-1.3c0.2-0.9-0.6-1.4-1.4-1.4c0,0-0.3,0-0.3,0
		c-0.6,0.1-1.4,0.6-1.4,1.4c-0.2,0.1,0,1.3,0,1.3C38.1,50.6,38.7,51,39.5,51z"/>
</g>
<g>
	<path fill="none" stroke="#3B2C31" stroke-width="2" stroke-linecap="round" stroke-linejoin="round" stroke-miterlimit="10" d="
		M26.1,37.3c0.1-0.1,0,8.3,0,8.3c0,0.9-0.7,1.4-1.5,1.4c0,0.8,0,0,0,0c-0.9,0.3-1.5-0.6-1.5-1.4c0.1,0.6,0-11.2,0-11.2
		c0.1-0.4,0.7-1.4,1.5-1.4"/>
</g>
<g>
	<path fill="none" stroke="#3B2C31" stroke-width="2" stroke-linecap="round" stroke-linejoin="round" stroke-miterlimit="10" d="
		M36.3,39c1.4-2,2.8-5.9,2.8-5.9c0.6-2.3-1.9-4-4.2-4c0.6-0.4-1.4,0-1.4,0c-0.5-0.3-2.8,0-2.8,0c0.9-0.6-1.4,0-1.4,0
		c-2.2,0.2-4.2,1.8-4.2,4c0.2,0.5,1.8,4.4,2.9,6"/>
</g>
<g>
	<path fill="none" stroke="#3B2C31" stroke-width="2" stroke-linecap="round" stroke-linejoin="round" stroke-miterlimit="10" d="
		M32.2,30c0,0-0.3,0-0.3,0c-0.9-0.2-1.4-0.6-1.4-1.4c-0.1,0,0-2.3,0-2.3c-0.1-0.1,0.2-0.3,0.3-0.3c0,0.1,2.3,0,2.3,0
		c0.3,0,0.3,0.2,0.3,0.3c-0.1,0,0,2.3,0,2.3C33.7,29.4,33,30,32.2,30z"/>
</g>
<g>
	<path fill="none" stroke="#3B2C31" stroke-width="2" stroke-linecap="round" stroke-linejoin="round" stroke-miterlimit="10" d="
		M32.1,26C31.6,25.6,32.1,26,32.1,26c-2.3-0.5-4-1.8-4-4c-0.4,0,0-6,0-6c0.1-0.9,0.5-1,1-1c-0.2,0.3,6,0,6,0c0.9,0.3,1,0.5,1,1
		c0.3,0.2,0,6,0,6C36.5,24.8,34.3,26,32.1,26z"/>
</g>
<g>
	<path fill="#3B2C31" d="M37.1,28c-0.6-0.6-1.2-1.4-1.2-1.4c-0.4,0.6,0-9.8,0-9.8c0.2-0.9-0.6-1.4-1.2-1.4c-0.1-0.3-5,0-5,0
		c-0.2,0.3-1.2,0.6-1.2,1.4c0.5-0.5,0,9.8,0,9.8c0.4-0.2-1.2,1.4-1.2,1.4c-0.3-0.6,0-12.6,0-12.6c0-0.3,0.6-1.4,1.2-1.4
		c0-0.9,7.5,0,7.5,0c0.6,0.1,1.2,0.6,1.2,1.4C37.5,15.5,37.1,28,37.1,28z"/>
	<path fill="none" stroke="#3B2C31" stroke-width="2" stroke-linecap="round" stroke-linejoin="round" stroke-miterlimit="10" d="
		M37.1,28c-0.6-0.6-1.2-1.4-1.2-1.4c-0.4,0.6,0-9.8,0-9.8c0.2-0.9-0.6-1.4-1.2-1.4c-0.1-0.3-5,0-5,0c-0.2,0.3-1.2,0.6-1.2,1.4
		c0.5-0.5,0,9.8,0,9.8c0.4-0.2-1.2,1.4-1.2,1.4c-0.3-0.6,0-12.6,0-12.6c0-0.3,0.6-1.4,1.2-1.4c0-0.9,7.5,0,7.5,0
		c0.6,0.1,1.2,0.6,1.2,1.4C37.5,15.5,37.1,28,37.1,28z"/>
</g>
<g>
	<path fill="none" stroke="#3B2C31" stroke-width="2" stroke-linecap="round" stroke-linejoin="round" stroke-miterlimit="10" d="
		M28.9,73c-0.2,0.2,0.3,0,0.3,0c0.6,0.6,1.3-0.6,1.3-1.3c0.1,0.4,0-10.7,0-10.7c0.1-0.1-3,0-3,0c0,0.6,0,10.7,0,10.7
		C27.7,72.6,28.2,73,28.9,73z"/>
</g>
<g>
	<path fill="none" stroke="#3B2C31" stroke-width="2" stroke-linecap="round" stroke-linejoin="round" stroke-miterlimit="10" d="
		M29.1,73C28.9,73.1,29.1,73,29.1,73c0.6,0.2,1.5-0.7,1.5-1.5c0.2,0.2,0,0,0,0c0.2-0.9-0.7-1.5-1.5-1.5c-0.1,0.1,0,0,0,0
		c-0.8,0.2-1.5,0.7-1.5,1.5c0-0.2,0,0,0,0C27.6,72.3,28.3,73,29.1,73z"/>
</g>
<g>
	<path fill="none" stroke="#3B2C31" stroke-width="2" stroke-linecap="round" stroke-linejoin="round" stroke-miterlimit="10" d="
		M35.1,73C34.9,73.1,35.1,73,35.1,73c0.6,0.2,1.5-0.7,1.5-1.5c0.2,0.2,0,0,0,0c0.2-0.9-0.7-1.5-1.5-1.5c-0.1,0.1,0,0,0,0
		c-0.8,0.2-1.5,0.7-1.5,1.5c0-0.2,0,0,0,0C33.6,72.3,34.3,73,35.1,73z"/>
</g>
<g>
	<path fill="none" stroke="#3B2C31" stroke-width="2" stroke-linecap="round" stroke-linejoin="round" stroke-miterlimit="10" d="
		M34.9,73c-0.2,0.2,0.3,0,0.3,0c0.6,0.6,1.3-0.6,1.3-1.3c0.1,0.4,0-10.7,0-10.7c0.1-0.1-3,0-3,0c0,0.6,0,10.7,0,10.7
		C33.7,72.6,34.2,73,34.9,73z"/>
</g>
<g>
	<path fill="none" stroke="#3B2C31" stroke-width="2" stroke-linecap="round" stroke-linejoin="round" stroke-miterlimit="10" d="
		M36.1,40.5C36,40.6,36.1,40.5,36.1,40.5c-0.3,0.9-0.6,1.5-1.3,1.5c-0.3,0.1-5.3,0-5.3,0c-0.4,0.1-1.3-0.7-1.3-1.5c-0.2,0.2,0,0,0,0
		c0-0.8,0.6-1.5,1.3-1.5c-0.2,0,5.3,0,5.3,0C35.7,39.2,36.1,39.7,36.1,40.5z"/>
</g>
<g>
	<path fill="none" stroke="#3B2C31" stroke-width="2" stroke-linecap="round" stroke-linejoin="round" stroke-miterlimit="10" d="
		M24.7,51c0.1,0.2-0.3,0-0.3,0c-0.9,0.2-1.4-0.6-1.4-1.4c-0.2,0,0-1.3,0-1.3c0.2-0.9,0.6-1.4,1.4-1.4c0,0,0.3,0,0.3,0
		c0.9,0.1,1.4,0.6,1.4,1.4c-0.2,0.1,0,1.3,0,1.3C26.1,50.6,25.5,51,24.7,51z"/>
</g>
<g>
	<path fill="none" stroke="#EA4870" stroke-width="2" stroke-linecap="round" stroke-linejoin="round" stroke-miterlimit="10" d="
		M35.9,1c-0.4-0.1-8.2,0-8.2,0c-0.4,0.1-2.6,2.2-2.6,2.2c0-0.3,0,0.5,0,0.5c-0.3,0,7,6.3,7,6.3c-0.7,0.1,7-6.3,7-6.3
		c-0.6-0.1,0-0.5,0-0.5C39.8,3.3,35.9,1,35.9,1z"/>
</g>
<g>
	<path fill="#3B2C31" d="M31.8,19c-0.1,0.6-0.4,1-1,1c-0.6,0.1-1-0.4-1-1c0.1-0.6,0.4-1,1-1C31.4,18.1,31.8,18.5,31.8,19z"/>
</g>
<g>
	<path fill="#3B2C31" d="M34.4,19c0,0.7-0.4,1-1,1c-0.7,0-1-0.4-1-1c0.1-0.6,0.4-1,1-1C33.9,18.1,34.4,18.5,34.4,19z"/>
</g>
<g>
	<path fill="none" stroke="#3B2C31" stroke-width="2" stroke-linecap="round" stroke-linejoin="round" stroke-miterlimit="10" d="
		M33.1,22.8c-0.1,0-0.1,0-0.3,0c-0.1,0-1.3,0-1.3,0c-0.2,0-0.3,0-0.3,0"/>
</g>
<g>
	<path fill="none" stroke="#3B2C31" stroke-width="2" stroke-linecap="round" stroke-linejoin="round" stroke-miterlimit="10" d="
		M6.4,42.1c-0.6,0.4-1.2,1-1.7,1.6"/>
</g>
<g>
	<path fill="none" stroke="#3B2C31" stroke-width="2" stroke-linecap="round" stroke-linejoin="round" stroke-miterlimit="10" d="
		M15.5,43.7c-0.4-0.6-1.1-1.2-1.8-1.7"/>
</g>
<g>
	<path fill="none" stroke="#3B2C31" stroke-width="2" stroke-linecap="round" stroke-linejoin="round" stroke-miterlimit="10" d="
		M3.1,51.1c0.4,0.5,0,8.7,0,8.7c0.5,1,0.6,1.3,1.4,1.3c-0.4,0,11.2,0,11.2,0c0.6,0.2,1.4-0.6,1.4-1.3c-0.5,0,0-8.7,0-8.7"/>
</g>
<g>
	<path fill="none" stroke="#3B2C31" stroke-width="2" stroke-linecap="round" stroke-linejoin="round" stroke-miterlimit="10" d="
		M16.1,37.3c0.1-0.1,0,8.3,0,8.3c0,0.9,0.7,1.4,1.5,1.4c0,0.8,0,0,0,0c0.8,0.3,1.5-0.6,1.5-1.4c0.1,0.6,0-11.2,0-11.2
		c0.1-0.4-0.7-1.4-1.5-1.4"/>
</g>
<g>
	<path fill="none" stroke="#3B2C31" stroke-width="2" stroke-linecap="round" stroke-linejoin="round" stroke-miterlimit="10" d="
		M17.5,51c0.1,0.2,0.3,0,0.3,0c0.6,0.2,1.4-0.6,1.4-1.4c-0.2,0,0-1.3,0-1.3c0.2-0.9-0.6-1.4-1.4-1.4c0,0-0.3,0-0.3,0
		c-0.6,0.1-1.4,0.6-1.4,1.4c-0.2,0.1,0,1.3,0,1.3C16.1,50.6,16.7,51,17.5,51z"/>
</g>
<g>
	<path fill="none" stroke="#3B2C31" stroke-width="2" stroke-linecap="round" stroke-linejoin="round" stroke-miterlimit="10" d="
		M4.1,37.3c0.1-0.1,0,8.3,0,8.3c0,0.9-0.7,1.4-1.5,1.4c0,0.8,0,0,0,0c-0.9,0.3-1.5-0.6-1.5-1.4c0.1,0.6,0-11.2,0-11.2
		C1.2,34.1,1.8,33,2.6,33"/>
</g>
<g>
	<path fill="none" stroke="#3B2C31" stroke-width="2" stroke-linecap="round" stroke-linejoin="round" stroke-miterlimit="10" d="
		M14.3,39c1.4-2,2.8-5.9,2.8-5.9c0.6-2.3-1.9-4-4.2-4c0.6-0.4-1.4,0-1.4,0c-0.5-0.3-2.8,0-2.8,0c0.9-0.6-1.4,0-1.4,0
		c-2.2,0.2-4.2,1.8-4.2,4c0.2,0.5,1.8,4.4,2.9,6"/>
</g>
<g>
	<path fill="none" stroke="#3B2C31" stroke-width="2" stroke-linecap="round" stroke-linejoin="round" stroke-miterlimit="10" d="
		M10.2,30c0,0-0.3,0-0.3,0c-0.9-0.2-1.4-0.6-1.4-1.4c-0.1,0,0-2.3,0-2.3C8.5,26.3,8.7,26,8.9,26c0,0.1,2.3,0,2.3,0
		c0.3,0,0.3,0.2,0.3,0.3c-0.1,0,0,2.3,0,2.3C11.7,29.4,11,30,10.2,30z"/>
</g>
<g>
	<path fill="none" stroke="#3B2C31" stroke-width="2" stroke-linecap="round" stroke-linejoin="round" stroke-miterlimit="10" d="
		M10.1,26C9.6,25.6,10.1,26,10.1,26c-2.3-0.5-4-1.8-4-4c-0.4,0,0-6,0-6c0.1-0.9,0.5-1,1-1c-0.2,0.3,6,0,6,0c0.9,0.3,1,0.5,1,1
		c0.3,0.2,0,6,0,6C14.5,24.8,12.3,26,10.1,26z"/>
</g>
<g>
	<path fill="#3B2C31" d="M15.1,28c-0.6-0.6-1.2-1.4-1.2-1.4c-0.4,0.6,0-9.8,0-9.8c0.2-0.9-0.6-1.4-1.2-1.4c-0.1-0.3-5,0-5,0
		c-0.2,0.3-1.2,0.6-1.2,1.4c0.5-0.5,0,9.8,0,9.8C6.7,26.4,5.1,28,5.1,28c-0.3-0.6,0-12.6,0-12.6c0-0.3,0.6-1.4,1.2-1.4
		c0-0.9,7.5,0,7.5,0c0.6,0.1,1.2,0.6,1.2,1.4C15.5,15.5,15.1,28,15.1,28z"/>
	<path fill="none" stroke="#3B2C31" stroke-width="2" stroke-linecap="round" stroke-linejoin="round" stroke-miterlimit="10" d="
		M15.1,28c-0.6-0.6-1.2-1.4-1.2-1.4c-0.4,0.6,0-9.8,0-9.8c0.2-0.9-0.6-1.4-1.2-1.4c-0.1-0.3-5,0-5,0c-0.2,0.3-1.2,0.6-1.2,1.4
		c0.5-0.5,0,9.8,0,9.8C6.7,26.4,5.1,28,5.1,28c-0.3-0.6,0-12.6,0-12.6c0-0.3,0.6-1.4,1.2-1.4c0-0.9,7.5,0,7.5,0
		c0.6,0.1,1.2,0.6,1.2,1.4C15.5,15.5,15.1,28,15.1,28z"/>
</g>
<g>
	<path fill="none" stroke="#3B2C31" stroke-width="2" stroke-linecap="round" stroke-linejoin="round" stroke-miterlimit="10" d="
		M6.9,73c-0.2,0.2,0.3,0,0.3,0c0.6,0.6,1.3-0.6,1.3-1.3c0.1,0.4,0-10.7,0-10.7c0.1-0.1-3,0-3,0c0,0.6,0,10.7,0,10.7
		C5.7,72.6,6.2,73,6.9,73z"/>
</g>
<g>
	<path fill="none" stroke="#3B2C31" stroke-width="2" stroke-linecap="round" stroke-linejoin="round" stroke-miterlimit="10" d="
		M7.1,73C6.9,73.1,7.1,73,7.1,73c0.6,0.2,1.5-0.7,1.5-1.5c0.2,0.2,0,0,0,0C8.8,70.6,7.9,70,7.1,70c-0.1,0.1,0,0,0,0
		c-0.8,0.2-1.5,0.7-1.5,1.5c0-0.2,0,0,0,0C5.6,72.3,6.3,73,7.1,73z"/>
</g>
<g>
	<path fill="none" stroke="#3B2C31" stroke-width="2" stroke-linecap="round" stroke-linejoin="round" stroke-miterlimit="10" d="
		M13.1,73C12.9,73.1,13.1,73,13.1,73c0.6,0.2,1.5-0.7,1.5-1.5c0.2,0.2,0,0,0,0c0.2-0.9-0.7-1.5-1.5-1.5c-0.1,0.1,0,0,0,0
		c-0.8,0.2-1.5,0.7-1.5,1.5c0-0.2,0,0,0,0C11.6,72.3,12.3,73,13.1,73z"/>
</g>
<g>
	<path fill="none" stroke="#3B2C31" stroke-width="2" stroke-linecap="round" stroke-linejoin="round" stroke-miterlimit="10" d="
		M12.9,73c-0.2,0.2,0.3,0,0.3,0c0.6,0.6,1.3-0.6,1.3-1.3c0.1,0.4,0-10.7,0-10.7c0.1-0.1-3,0-3,0c0,0.6,0,10.7,0,10.7
		C11.7,72.6,12.2,73,12.9,73z"/>
</g>
<g>
	<path fill="none" stroke="#3B2C31" stroke-width="2" stroke-linecap="round" stroke-linejoin="round" stroke-miterlimit="10" d="
		M14.1,40.5C14,40.6,14.1,40.5,14.1,40.5c-0.3,0.9-0.6,1.5-1.3,1.5c-0.3,0.1-5.3,0-5.3,0c-0.4,0.1-1.3-0.7-1.3-1.5c-0.2,0.2,0,0,0,0
		c0-0.8,0.6-1.5,1.3-1.5c-0.2,0,5.3,0,5.3,0C13.7,39.2,14.1,39.7,14.1,40.5z"/>
</g>
<g>
	<path fill="none" stroke="#3B2C31" stroke-width="2" stroke-linecap="round" stroke-linejoin="round" stroke-miterlimit="10" d="
		M2.7,51c0.1,0.2-0.3,0-0.3,0c-0.9,0.2-1.4-0.6-1.4-1.4c-0.2,0,0-1.3,0-1.3C1.3,47.5,1.7,47,2.4,47c0,0,0.3,0,0.3,0
		c0.9,0.1,1.4,0.6,1.4,1.4c-0.2,0.1,0,1.3,0,1.3C4.1,50.6,3.5,51,2.7,51z"/>
</g>
<g>
	<path fill="none" stroke="#EA4870" stroke-width="2" stroke-linecap="round" stroke-linejoin="round" stroke-miterlimit="10" d="
		M13.9,1c-0.4-0.1-8.2,0-8.2,0C5.3,1.2,3.1,3.3,3.1,3.3c0-0.3,0,0.5,0,0.5c-0.3,0,7,6.3,7,6.3c-0.7,0.1,7-6.3,7-6.3
		c-0.6-0.1,0-0.5,0-0.5C17.8,3.3,13.9,1,13.9,1z"/>
</g>
<g>
	<path fill="#3B2C31" d="M9.8,19c-0.1,0.6-0.4,1-1,1c-0.6,0.1-1-0.4-1-1c0.1-0.6,0.4-1,1-1C9.4,18.1,9.8,18.5,9.8,19z"/>
</g>
<g>
	<path fill="#3B2C31" d="M12.4,19c0,0.7-0.4,1-1,1c-0.7,0-1-0.4-1-1c0.1-0.6,0.4-1,1-1C11.9,18.1,12.4,18.5,12.4,19z"/>
</g>
<g>
	<path fill="none" stroke="#3B2C31" stroke-width="2" stroke-linecap="round" stroke-linejoin="round" stroke-miterlimit="10" d="
		M11.1,22.8c-0.1,0-0.2,0-0.3,0c-0.1,0-1.3,0-1.3,0c-0.2,0-0.3,0-0.3,0"/>
</g>
</svg>
