<?xml version="1.0" encoding="utf-8"?>
<!-- Generator: Adobe Illustrator 18.0.0, SVG Export Plug-In . SVG Version: 6.00 Build 0)  -->
<!DOCTYPE svg PUBLIC "-//W3C//DTD SVG 1.1//EN" "http://www.w3.org/Graphics/SVG/1.1/DTD/svg11.dtd">
<svg version="1.1" id="Слой_1" xmlns="http://www.w3.org/2000/svg" xmlns:xlink="http://www.w3.org/1999/xlink" x="0px" y="0px"
	 viewBox="0 0 26 26" enable-background="new 0 0 26 26" xml:space="preserve">
<line fill="none" stroke="#000000" stroke-width="2" stroke-linecap="round" stroke-miterlimit="10" x1="10" y1="4" x2="10" y2="1"/>
<line fill="none" stroke="#000000" stroke-width="2" stroke-linecap="round" stroke-miterlimit="10" x1="7" y1="4" x2="7" y2="1"/>
<line fill="none" stroke="#000000" stroke-width="2" stroke-linecap="round" stroke-miterlimit="10" x1="4" y1="4" x2="4" y2="1"/>
<line fill="none" stroke="#000000" stroke-width="2" stroke-miterlimit="10" x1="8.1" y1="8" x2="0" y2="8"/>
<line fill="none" stroke="#000000" stroke-width="2" stroke-miterlimit="10" x1="26" y1="8" x2="17.9" y2="8"/>
<g>
	<path d="M24,2L24,2v22L2,24L2,2H24 M24,0H2C0.9,0,0,0.9,0,2v22c0,1.1,0.9,2,2,2h22c1.1,0,2-0.9,2-2V2C26,0.9,25.1,0,24,0L24,0z"/>
</g>
<path fill="none" stroke="#000000" stroke-width="2" stroke-miterlimit="10" d="M23,8h-2c-1.1,0-2-0.9-2-2V3c0-1.1,0.9-2,2-2h2
	c1.1,0,2,0.9,2,2v3C25,7.1,24.1,8,23,8z"/>
<circle fill="none" stroke="#000000" stroke-width="2" stroke-miterlimit="10" cx="13" cy="13" r="2.5"/>
<circle fill="none" stroke="#000000" stroke-width="2" stroke-miterlimit="10" cx="13" cy="13" r="7"/>
</svg>
