<?xml version="1.0" encoding="utf-8"?>
<!-- Generator: Adobe Illustrator 18.0.0, SVG Export Plug-In . SVG Version: 6.00 Build 0)  -->
<!DOCTYPE svg PUBLIC "-//W3C//DTD SVG 1.1//EN" "http://www.w3.org/Graphics/SVG/1.1/DTD/svg11.dtd">
<svg version="1.1" id="Слой_1" xmlns="http://www.w3.org/2000/svg" xmlns:xlink="http://www.w3.org/1999/xlink" x="0px" y="0px"
	 viewBox="0 0 26 26" enable-background="new 0 0 26 26" xml:space="preserve">
<g>
	<path d="M24,2L24,2v22L2,24L2,2H24 M24,0H2C0.9,0,0,0.9,0,2v22c0,1.1,0.9,2,2,2h22c1.1,0,2-0.9,2-2V2C26,0.9,25.1,0,24,0L24,0z"/>
</g>
<path fill="none" stroke="#010101" stroke-width="2" stroke-linecap="round" stroke-linejoin="round" stroke-miterlimit="10" d="
	M5.3,9.4C5.3,16.5,13,17,13,17V9.3h-1.6"/>
<path fill="none" stroke="#010101" stroke-width="2" stroke-linecap="round" stroke-linejoin="round" stroke-miterlimit="10" d="
	M13,13.2c0,0,7.7,0.5,7.7-4"/>
<path fill="none" stroke="#010101" stroke-width="2" stroke-linecap="round" stroke-linejoin="round" stroke-miterlimit="10" d="
	M16.3,13.1c0,0,4.1,0.9,4.1,4.1"/>
</svg>
