<?xml version="1.0" encoding="UTF-8" standalone="no"?>
<!-- Generator: Adobe Illustrator 18.0.0, SVG Export Plug-In . SVG Version: 6.00 Build 0)  -->

<svg
   xmlns:osb="http://www.openswatchbook.org/uri/2009/osb"
   xmlns:dc="http://purl.org/dc/elements/1.1/"
   xmlns:cc="http://creativecommons.org/ns#"
   xmlns:rdf="http://www.w3.org/1999/02/22-rdf-syntax-ns#"
   xmlns:svg="http://www.w3.org/2000/svg"
   xmlns="http://www.w3.org/2000/svg"
   xmlns:sodipodi="http://sodipodi.sourceforge.net/DTD/sodipodi-0.dtd"
   xmlns:inkscape="http://www.inkscape.org/namespaces/inkscape"
   version="1.1"
   id="Слой_1"
   x="0px"
   y="0px"
   viewBox="0 0 18 16"
   enable-background="new 0 0 18 16"
   xml:space="preserve"
   inkscape:version="0.91 r13725"
   sodipodi:docname="wedding.svg"><metadata
     id="metadata11"><rdf:RDF><cc:Work
         rdf:about=""><dc:format>image/svg+xml</dc:format><dc:type
           rdf:resource="http://purl.org/dc/dcmitype/StillImage" /></cc:Work></rdf:RDF></metadata><defs
     id="defs9"><linearGradient
       id="linearGradient5625"
       osb:paint="solid"><stop
         style="stop-color:#d90a51;stop-opacity:1;"
         offset="0"
         id="stop5627" /></linearGradient><linearGradient
       id="linearGradient4153"
       osb:paint="solid"><stop
         style="stop-color:#d90a51;stop-opacity:1;"
         offset="0"
         id="stop4155" /></linearGradient><linearGradient
       id="linearGradient4139"
       osb:paint="solid"><stop
         style="stop-color:#000000;stop-opacity:1;"
         offset="0"
         id="stop4141" /></linearGradient></defs><sodipodi:namedview
     pagecolor="#ffffff"
     bordercolor="#666666"
     borderopacity="1"
     objecttolerance="10"
     gridtolerance="10"
     guidetolerance="10"
     inkscape:pageopacity="0"
     inkscape:pageshadow="2"
     inkscape:window-width="1920"
     inkscape:window-height="1017"
     id="namedview7"
     showgrid="false"
     inkscape:zoom="14.75"
     inkscape:cx="-0.83050847"
     inkscape:cy="8"
     inkscape:window-x="-8"
     inkscape:window-y="-8"
     inkscape:window-maximized="1"
     inkscape:current-layer="Слой_1" /><circle
     fill="none"
     stroke="#000000"
     stroke-width="2"
     stroke-linecap="round"
     stroke-linejoin="round"
     stroke-miterlimit="10"
     cx="11"
     cy="9"
     r="6"
     id="circle3"
     style="stroke:#d90a51;stroke-opacity:1" /><circle
     fill="none"
     stroke="#000000"
     stroke-width="2"
     stroke-linecap="round"
     stroke-linejoin="round"
     stroke-miterlimit="10"
     cx="5"
     cy="5"
     r="4"
     id="circle5"
     style="fill:none;fill-opacity:1;stroke-opacity:1;stroke:#d90a51" /><path
     style="fill:none;fill-opacity:1"
     d="M 9.8338983,15.868674 C 7.6566705,15.460686 5.8876582,14.181323 4.8790115,12.285264 4.5237747,11.617489 4.2807071,10.951523 4.1670212,10.334528 L 4.0852509,9.8907444 3.5548479,9.737482 C 2.2323047,9.3553275 1.1267042,8.3872793 0.51191047,7.0731295 -0.60054691,4.6952008 0.36071614,1.8370778 2.6813559,0.62271792 3.4771913,0.20626793 4.028866,0.07514543 4.9864407,0.07484349 5.8720595,0.07456424 6.1930588,0.13369294 6.9186441,0.43075908 7.6906542,0.74683241 8.5170298,1.3981134 9.0218834,2.0883593 l 0.1340488,0.1832746 0.440678,-0.091412 c 1.4581838,-0.3024778 2.9746178,-0.126613 4.3119108,0.5000635 1.859291,0.8712929 3.185915,2.4230235 3.800292,4.4451382 0.171618,0.5648495 0.185666,0.7008102 0.189135,1.8305085 0.0044,1.4215958 -0.0973,1.9229688 -0.609709,3.0068828 -1.131065,2.392567 -3.412091,3.889112 -6.06451,3.978828 -0.578892,0.01958 -1.019341,-0.0035 -1.3898307,-0.07297 z M 12.212884,13.872119 C 15.139966,13.137112 16.79462,9.9312658 15.676134,7.1621708 15.395216,6.4666898 15.079191,5.9988612 14.496649,5.4161182 14.023344,4.9426504 13.833756,4.8073531 13.242412,4.5210455 12.237623,4.0345636 11.233969,3.8713389 10.215355,4.0287541 l -0.2965096,0.045822 0.011833,0.788079 C 9.9454115,5.8438309 9.8311532,6.3696775 9.4184169,7.2202319 9.1611098,7.7504814 9.0107417,7.9564251 8.5224068,8.447402 7.893019,9.0801959 7.3431078,9.4327729 6.5593062,9.7060488 6.3094844,9.7931505 6.0962044,9.9065932 6.0853507,9.9581437 c -0.010854,0.05155 0.054822,0.3285053 0.1459457,0.6154563 0.5086053,1.601608 1.8510575,2.860216 3.5160602,3.29646 0.6846464,0.179383 1.7557954,0.180278 2.4655274,0.0021 l 0,-2e-6 z M 4.3027844,7.1254237 C 4.4787664,6.4749074 4.8710624,5.62731 5.2662843,5.0436793 5.6210756,4.5197532 6.5346533,3.5987865 6.9693702,3.3268188 7.1464224,3.2160515 7.2913376,3.0896654 7.2914041,3.0459609 7.2916075,2.9143015 6.7420461,2.4853735 6.3065305,2.2772721 4.7841808,1.5498508 2.9837495,2.1988575 2.2653692,3.7340009 1.5812051,5.1960259 2.198313,6.9753159 3.6392868,7.695379 4.1339685,7.9425742 4.0659069,8.00104 4.3027844,7.1254237 Z M 6.7248631,7.4908102 C 7.1145268,7.223941 7.5156332,6.7506507 7.7226122,6.3135055 7.9012481,5.9362196 8.0940563,5.0917967 8.0187593,5.0164992 7.9466569,4.9443967 7.3711403,5.464092 7.0435275,5.89714 6.726198,6.3165956 6.2508919,7.2343159 6.1664766,7.5905498 6.123728,7.7709492 6.1318137,7.7809505 6.2822937,7.7338041 6.3712694,7.7059275 6.5704257,7.5965803 6.7248631,7.4908102 Z"
     id="path5603"
     inkscape:connector-curvature="0" /><path
     style="fill:none;fill-opacity:1"
     d="M 9.8338983,15.868674 C 7.6566705,15.460686 5.8876582,14.181323 4.8790115,12.285264 4.5237747,11.617489 4.2807071,10.951523 4.1670212,10.334528 L 4.0852509,9.8907444 3.5548479,9.737482 C 2.2323047,9.3553275 1.1267042,8.3872793 0.51191047,7.0731295 -0.60054691,4.6952008 0.36071614,1.8370778 2.6813559,0.62271792 3.4771913,0.20626793 4.028866,0.07514543 4.9864407,0.07484349 5.8720595,0.07456424 6.1930588,0.13369294 6.9186441,0.43075908 7.6906542,0.74683241 8.5170298,1.3981134 9.0218834,2.0883593 l 0.1340488,0.1832746 0.440678,-0.091412 c 1.4581838,-0.3024778 2.9746178,-0.126613 4.3119108,0.5000635 1.859291,0.8712929 3.185915,2.4230235 3.800292,4.4451382 0.171618,0.5648495 0.185666,0.7008102 0.189135,1.8305085 0.0044,1.4215958 -0.0973,1.9229688 -0.609709,3.0068828 -1.131065,2.392567 -3.412091,3.889112 -6.06451,3.978828 -0.578892,0.01958 -1.019341,-0.0035 -1.3898307,-0.07297 z M 12.212884,13.872119 C 15.139966,13.137112 16.79462,9.9312658 15.676134,7.1621708 15.395216,6.4666898 15.079191,5.9988612 14.496649,5.4161182 14.023344,4.9426504 13.833756,4.8073531 13.242412,4.5210455 12.237623,4.0345636 11.233969,3.8713389 10.215355,4.0287541 l -0.2965096,0.045822 0.011833,0.788079 C 9.9454115,5.8438309 9.8311532,6.3696775 9.4184169,7.2202319 9.1611098,7.7504814 9.0107417,7.9564251 8.5224068,8.447402 7.893019,9.0801959 7.3431078,9.4327729 6.5593062,9.7060488 6.3094844,9.7931505 6.0962044,9.9065932 6.0853507,9.9581437 c -0.010854,0.05155 0.054822,0.3285053 0.1459457,0.6154563 0.5086053,1.601608 1.8510575,2.860216 3.5160602,3.29646 0.6846464,0.179383 1.7557954,0.180278 2.4655274,0.0021 l 0,-2e-6 z M 4.3027844,7.1254237 C 4.4787664,6.4749074 4.8710624,5.62731 5.2662843,5.0436793 5.6210756,4.5197532 6.5346533,3.5987865 6.9693702,3.3268188 7.1464224,3.2160515 7.2913376,3.0896654 7.2914041,3.0459609 7.2916075,2.9143015 6.7420461,2.4853735 6.3065305,2.2772721 4.7841808,1.5498508 2.9837495,2.1988575 2.2653692,3.7340009 1.5812051,5.1960259 2.198313,6.9753159 3.6392868,7.695379 4.1339685,7.9425742 4.0659069,8.00104 4.3027844,7.1254237 Z M 6.7248631,7.4908102 C 7.1145268,7.223941 7.5156332,6.7506507 7.7226122,6.3135055 7.9012481,5.9362196 8.0940563,5.0917967 8.0187593,5.0164992 7.9466569,4.9443967 7.3711403,5.464092 7.0435275,5.89714 6.726198,6.3165956 6.2508919,7.2343159 6.1664766,7.5905498 6.123728,7.7709492 6.1318137,7.7809505 6.2822937,7.7338041 6.3712694,7.7059275 6.5704257,7.5965803 6.7248631,7.4908102 Z"
     id="path5605"
     inkscape:connector-curvature="0" /><path
     style="fill:#d90a51;fill-opacity:0"
     d="M 9.8338983,15.868674 C 7.6566705,15.460686 5.8876582,14.181323 4.8790115,12.285264 4.5237747,11.617489 4.2807071,10.951523 4.1670212,10.334528 L 4.0852509,9.8907444 3.5548479,9.737482 C 2.2323047,9.3553275 1.1267042,8.3872793 0.51191047,7.0731295 -0.60054691,4.6952008 0.36071614,1.8370778 2.6813559,0.62271792 3.4771913,0.20626793 4.028866,0.07514543 4.9864407,0.07484349 5.8720595,0.07456424 6.1930588,0.13369294 6.9186441,0.43075908 7.6906542,0.74683241 8.5170298,1.3981134 9.0218834,2.0883593 l 0.1340488,0.1832746 0.440678,-0.091412 c 1.4581838,-0.3024778 2.9746178,-0.126613 4.3119108,0.5000635 1.859291,0.8712929 3.185915,2.4230235 3.800292,4.4451382 0.171618,0.5648495 0.185666,0.7008102 0.189135,1.8305085 0.0044,1.4215958 -0.0973,1.9229688 -0.609709,3.0068828 -1.131065,2.392567 -3.412091,3.889112 -6.06451,3.978828 -0.578892,0.01958 -1.019341,-0.0035 -1.3898307,-0.07297 z M 12.212884,13.872119 C 15.139966,13.137112 16.79462,9.9312658 15.676134,7.1621708 15.395216,6.4666898 15.079191,5.9988612 14.496649,5.4161182 14.023344,4.9426504 13.833756,4.8073531 13.242412,4.5210455 12.237623,4.0345636 11.233969,3.8713389 10.215355,4.0287541 l -0.2965096,0.045822 0.011833,0.788079 C 9.9454115,5.8438309 9.8311532,6.3696775 9.4184169,7.2202319 9.1611098,7.7504814 9.0107417,7.9564251 8.5224068,8.447402 7.893019,9.0801959 7.3431078,9.4327729 6.5593062,9.7060488 6.3094844,9.7931505 6.0962044,9.9065932 6.0853507,9.9581437 c -0.010854,0.05155 0.054822,0.3285053 0.1459457,0.6154563 0.5086053,1.601608 1.8510575,2.860216 3.5160602,3.29646 0.6846464,0.179383 1.7557954,0.180278 2.4655274,0.0021 l 0,-2e-6 z M 4.3027844,7.1254237 C 4.4787664,6.4749074 4.8710624,5.62731 5.2662843,5.0436793 5.6210756,4.5197532 6.5346533,3.5987865 6.9693702,3.3268188 7.1464224,3.2160515 7.2913376,3.0896654 7.2914041,3.0459609 7.2916075,2.9143015 6.7420461,2.4853735 6.3065305,2.2772721 4.7841808,1.5498508 2.9837495,2.1988575 2.2653692,3.7340009 1.5812051,5.1960259 2.198313,6.9753159 3.6392868,7.695379 4.1339685,7.9425742 4.0659069,8.00104 4.3027844,7.1254237 Z M 6.7248631,7.4908102 C 7.1145268,7.223941 7.5156332,6.7506507 7.7226122,6.3135055 7.9012481,5.9362196 8.0940563,5.0917967 8.0187593,5.0164992 7.9466569,4.9443967 7.3711403,5.464092 7.0435275,5.89714 6.726198,6.3165956 6.2508919,7.2343159 6.1664766,7.5905498 6.123728,7.7709492 6.1318137,7.7809505 6.2822937,7.7338041 6.3712694,7.7059275 6.5704257,7.5965803 6.7248631,7.4908102 Z"
     id="path5607"
     inkscape:connector-curvature="0" /><path
     style="fill:#d90a51;fill-opacity:0"
     d="M 9.8338983,15.868674 C 7.6566705,15.460686 5.8876582,14.181323 4.8790115,12.285264 4.5237747,11.617489 4.2807071,10.951523 4.1670212,10.334528 L 4.0852509,9.8907444 3.5548479,9.737482 C 2.2323047,9.3553275 1.1267042,8.3872793 0.51191047,7.0731295 -0.60054691,4.6952008 0.36071614,1.8370778 2.6813559,0.62271792 3.4771913,0.20626793 4.028866,0.07514543 4.9864407,0.07484349 5.8720595,0.07456424 6.1930588,0.13369294 6.9186441,0.43075908 7.6906542,0.74683241 8.5170298,1.3981134 9.0218834,2.0883593 l 0.1340488,0.1832746 0.440678,-0.091412 c 1.4581838,-0.3024778 2.9746178,-0.126613 4.3119108,0.5000635 1.859291,0.8712929 3.185915,2.4230235 3.800292,4.4451382 0.171618,0.5648495 0.185666,0.7008102 0.189135,1.8305085 0.0044,1.4215958 -0.0973,1.9229688 -0.609709,3.0068828 -1.131065,2.392567 -3.412091,3.889112 -6.06451,3.978828 -0.578892,0.01958 -1.019341,-0.0035 -1.3898307,-0.07297 z M 12.212884,13.872119 C 15.139966,13.137112 16.79462,9.9312658 15.676134,7.1621708 15.395216,6.4666898 15.079191,5.9988612 14.496649,5.4161182 14.023344,4.9426504 13.833756,4.8073531 13.242412,4.5210455 12.237623,4.0345636 11.233969,3.8713389 10.215355,4.0287541 l -0.2965096,0.045822 0.011833,0.788079 C 9.9454115,5.8438309 9.8311532,6.3696775 9.4184169,7.2202319 9.1611098,7.7504814 9.0107417,7.9564251 8.5224068,8.447402 7.893019,9.0801959 7.3431078,9.4327729 6.5593062,9.7060488 6.3094844,9.7931505 6.0962044,9.9065932 6.0853507,9.9581437 c -0.010854,0.05155 0.054822,0.3285053 0.1459457,0.6154563 0.5086053,1.601608 1.8510575,2.860216 3.5160602,3.29646 0.6846464,0.179383 1.7557954,0.180278 2.4655274,0.0021 l 0,-2e-6 z M 4.3027844,7.1254237 C 4.4787664,6.4749074 4.8710624,5.62731 5.2662843,5.0436793 5.6210756,4.5197532 6.5346533,3.5987865 6.9693702,3.3268188 7.1464224,3.2160515 7.2913376,3.0896654 7.2914041,3.0459609 7.2916075,2.9143015 6.7420461,2.4853735 6.3065305,2.2772721 4.7841808,1.5498508 2.9837495,2.1988575 2.2653692,3.7340009 1.5812051,5.1960259 2.198313,6.9753159 3.6392868,7.695379 4.1339685,7.9425742 4.0659069,8.00104 4.3027844,7.1254237 Z M 6.7248631,7.4908102 C 7.1145268,7.223941 7.5156332,6.7506507 7.7226122,6.3135055 7.9012481,5.9362196 8.0940563,5.0917967 8.0187593,5.0164992 7.9466569,4.9443967 7.3711403,5.464092 7.0435275,5.89714 6.726198,6.3165956 6.2508919,7.2343159 6.1664766,7.5905498 6.123728,7.7709492 6.1318137,7.7809505 6.2822937,7.7338041 6.3712694,7.7059275 6.5704257,7.5965803 6.7248631,7.4908102 Z"
     id="path5609"
     inkscape:connector-curvature="0" /><path
     style="fill:#d90a51;fill-opacity:0"
     d="M 9.8338983,15.868674 C 7.6566705,15.460686 5.8876582,14.181323 4.8790115,12.285264 4.5237747,11.617489 4.2807071,10.951523 4.1670212,10.334528 L 4.0852509,9.8907444 3.5548479,9.737482 C 2.2323047,9.3553275 1.1267042,8.3872793 0.51191047,7.0731295 -0.60054691,4.6952008 0.36071614,1.8370778 2.6813559,0.62271792 3.4771913,0.20626793 4.028866,0.07514543 4.9864407,0.07484349 5.8720595,0.07456424 6.1930588,0.13369294 6.9186441,0.43075908 7.6906542,0.74683241 8.5170298,1.3981134 9.0218834,2.0883593 l 0.1340488,0.1832746 0.440678,-0.091412 c 1.4581838,-0.3024778 2.9746178,-0.126613 4.3119108,0.5000635 1.859291,0.8712929 3.185915,2.4230235 3.800292,4.4451382 0.171618,0.5648495 0.185666,0.7008102 0.189135,1.8305085 0.0044,1.4215958 -0.0973,1.9229688 -0.609709,3.0068828 -1.131065,2.392567 -3.412091,3.889112 -6.06451,3.978828 -0.578892,0.01958 -1.019341,-0.0035 -1.3898307,-0.07297 z M 12.212884,13.872119 C 15.139966,13.137112 16.79462,9.9312658 15.676134,7.1621708 15.395216,6.4666898 15.079191,5.9988612 14.496649,5.4161182 14.023344,4.9426504 13.833756,4.8073531 13.242412,4.5210455 12.237623,4.0345636 11.233969,3.8713389 10.215355,4.0287541 l -0.2965096,0.045822 0.011833,0.788079 C 9.9454115,5.8438309 9.8311532,6.3696775 9.4184169,7.2202319 9.1611098,7.7504814 9.0107417,7.9564251 8.5224068,8.447402 7.893019,9.0801959 7.3431078,9.4327729 6.5593062,9.7060488 6.3094844,9.7931505 6.0962044,9.9065932 6.0853507,9.9581437 c -0.010854,0.05155 0.054822,0.3285053 0.1459457,0.6154563 0.5086053,1.601608 1.8510575,2.860216 3.5160602,3.29646 0.6846464,0.179383 1.7557954,0.180278 2.4655274,0.0021 l 0,-2e-6 z M 4.3027844,7.1254237 C 4.4787664,6.4749074 4.8710624,5.62731 5.2662843,5.0436793 5.6210756,4.5197532 6.5346533,3.5987865 6.9693702,3.3268188 7.1464224,3.2160515 7.2913376,3.0896654 7.2914041,3.0459609 7.2916075,2.9143015 6.7420461,2.4853735 6.3065305,2.2772721 4.7841808,1.5498508 2.9837495,2.1988575 2.2653692,3.7340009 1.5812051,5.1960259 2.198313,6.9753159 3.6392868,7.695379 4.1339685,7.9425742 4.0659069,8.00104 4.3027844,7.1254237 Z M 6.7248631,7.4908102 C 7.1145268,7.223941 7.5156332,6.7506507 7.7226122,6.3135055 7.9012481,5.9362196 8.0940563,5.0917967 8.0187593,5.0164992 7.9466569,4.9443967 7.3711403,5.464092 7.0435275,5.89714 6.726198,6.3165956 6.2508919,7.2343159 6.1664766,7.5905498 6.123728,7.7709492 6.1318137,7.7809505 6.2822937,7.7338041 6.3712694,7.7059275 6.5704257,7.5965803 6.7248631,7.4908102 Z"
     id="path5611"
     inkscape:connector-curvature="0" /><path
     style="fill:#d90a51;fill-opacity:0;stroke:none"
     d="M 9.8338983,15.868674 C 7.6566705,15.460686 5.8876582,14.181323 4.8790115,12.285264 4.5237747,11.617489 4.2807071,10.951523 4.1670212,10.334528 L 4.0852509,9.8907444 3.5548479,9.737482 C 2.2323047,9.3553275 1.1267042,8.3872793 0.51191047,7.0731295 -0.60054691,4.6952008 0.36071614,1.8370778 2.6813559,0.62271792 3.4771913,0.20626793 4.028866,0.07514543 4.9864407,0.07484349 5.8720595,0.07456424 6.1930588,0.13369294 6.9186441,0.43075908 7.6906542,0.74683241 8.5170298,1.3981134 9.0218834,2.0883593 l 0.1340488,0.1832746 0.440678,-0.091412 c 1.4581838,-0.3024778 2.9746178,-0.126613 4.3119108,0.5000635 1.859291,0.8712929 3.185915,2.4230235 3.800292,4.4451382 0.171618,0.5648495 0.185666,0.7008102 0.189135,1.8305085 0.0044,1.4215958 -0.0973,1.9229688 -0.609709,3.0068828 -1.131065,2.392567 -3.412091,3.889112 -6.06451,3.978828 -0.578892,0.01958 -1.019341,-0.0035 -1.3898307,-0.07297 z M 12.212884,13.872119 C 15.139966,13.137112 16.79462,9.9312658 15.676134,7.1621708 15.395216,6.4666898 15.079191,5.9988612 14.496649,5.4161182 14.023344,4.9426504 13.833756,4.8073531 13.242412,4.5210455 12.237623,4.0345636 11.233969,3.8713389 10.215355,4.0287541 l -0.2965096,0.045822 0.011833,0.788079 C 9.9454115,5.8438309 9.8311532,6.3696775 9.4184169,7.2202319 9.1611098,7.7504814 9.0107417,7.9564251 8.5224068,8.447402 7.893019,9.0801959 7.3431078,9.4327729 6.5593062,9.7060488 6.3094844,9.7931505 6.0962044,9.9065932 6.0853507,9.9581437 c -0.010854,0.05155 0.054822,0.3285053 0.1459457,0.6154563 0.5086053,1.601608 1.8510575,2.860216 3.5160602,3.29646 0.6846464,0.179383 1.7557954,0.180278 2.4655274,0.0021 l 0,-2e-6 z M 4.3027844,7.1254237 C 4.4787664,6.4749074 4.8710624,5.62731 5.2662843,5.0436793 5.6210756,4.5197532 6.5346533,3.5987865 6.9693702,3.3268188 7.1464224,3.2160515 7.2913376,3.0896654 7.2914041,3.0459609 7.2916075,2.9143015 6.7420461,2.4853735 6.3065305,2.2772721 4.7841808,1.5498508 2.9837495,2.1988575 2.2653692,3.7340009 1.5812051,5.1960259 2.198313,6.9753159 3.6392868,7.695379 4.1339685,7.9425742 4.0659069,8.00104 4.3027844,7.1254237 Z M 6.7248631,7.4908102 C 7.1145268,7.223941 7.5156332,6.7506507 7.7226122,6.3135055 7.9012481,5.9362196 8.0940563,5.0917967 8.0187593,5.0164992 7.9466569,4.9443967 7.3711403,5.464092 7.0435275,5.89714 6.726198,6.3165956 6.2508919,7.2343159 6.1664766,7.5905498 6.123728,7.7709492 6.1318137,7.7809505 6.2822937,7.7338041 6.3712694,7.7059275 6.5704257,7.5965803 6.7248631,7.4908102 Z"
     id="path5613"
     inkscape:connector-curvature="0" /></svg>