<?xml version="1.0" encoding="utf-8"?>
<!-- Generator: Adobe Illustrator 18.0.0, SVG Export Plug-In . SVG Version: 6.00 Build 0)  -->
<!DOCTYPE svg PUBLIC "-//W3C//DTD SVG 1.1//EN" "http://www.w3.org/Graphics/SVG/1.1/DTD/svg11.dtd">
<svg version="1.1" id="Слой_1" xmlns="http://www.w3.org/2000/svg" xmlns:xlink="http://www.w3.org/1999/xlink" x="0px" y="0px"
	 viewBox="0 0 26 120" enable-background="new 0 0 26 120" xml:space="preserve">
<path fill="#FFFFFF" stroke="#3B2C31" stroke-width="2" stroke-linecap="round" stroke-linejoin="round" stroke-miterlimit="10" d="
	M3,78.8V98c0,1.1,0.9,2,2,2h16c1.1,0,2-0.9,2-2V78.8L21,68c-0.7-1-1.6-1.8-2.7-2.4L7.5,65.7C6.5,66.3,5.7,67.1,5,68"/>
<path fill="#FFFFFF" stroke="#3B2C31" stroke-width="2" stroke-linecap="round" stroke-linejoin="round" stroke-miterlimit="10" d="
	M5,59.1V71c0,1.1-0.9,2-2,2h0c-1.1,0-2-0.9-2-2V55c0-1.1,0.9-2,2-2"/>
<path fill="#FFFFFF" stroke="#3B2C31" stroke-width="2" stroke-linecap="round" stroke-linejoin="round" stroke-miterlimit="10" d="
	M21,59v12c0,1.1,0.9,2,2,2h0c1.1,0,2-0.9,2-2V55c0-1.1-0.9-2-2-2"/>
<path fill="#FFFFFF" stroke="#3B2C31" stroke-width="2" stroke-linecap="round" stroke-linejoin="round" stroke-miterlimit="10" d="
	M19,62.9c1.6-2.6,4-8.9,4-8.9c0-3.3-2.7-6-6-6h-2h-4H9c-3.3,0-6,2.7-6,6c0,0,2.6,6.6,4.1,9"/>
<path fill="#FFFFFF" stroke="#3B2C31" stroke-width="2" stroke-linecap="round" stroke-linejoin="round" stroke-miterlimit="10" d="
	M13,49L13,49c-1.1,0-2-0.9-2-2v-3.5c0-0.3,0.2-0.5,0.5-0.5h3c0.3,0,0.5,0.2,0.5,0.5V47C15,48.1,14.1,49,13,49z"/>
<path fill="#FFFFFF" stroke="#3B2C31" stroke-width="2" stroke-linecap="round" stroke-linejoin="round" stroke-miterlimit="10" d="
	M13,43L13,43c-3.3,0-6-2.7-6-6v-8.5C7,27.7,7.7,27,8.5,27h9c0.8,0,1.5,0.7,1.5,1.5V37C19,40.3,16.3,43,13,43z"/>
<path fill="#3B2C31" stroke="#3B2C31" stroke-width="2" stroke-linecap="round" stroke-linejoin="round" stroke-miterlimit="10" d="
	M21,45l-2-2V29c0-1.1-0.9-2-2-2H9c-1.1,0-2,0.9-2,2v14l-2,2V27c0-1.1,0.9-2,2-2h12c1.1,0,2,0.9,2,2V45z"/>
<circle fill="#3B2C31" cx="15" cy="32" r="1"/>
<circle fill="#3B2C31" cx="11" cy="32" r="1"/>
<path fill="#FFFFFF" stroke="#3B2C31" stroke-width="2" stroke-linecap="round" stroke-linejoin="round" stroke-miterlimit="10" d="
	M15,38.2c0,0.5-0.3,1-0.7,1h-2.7c-0.4,0-0.7-0.5-0.7-1"/>
<path fill="#FFFFFF" stroke="#3B2C31" stroke-width="2" stroke-linecap="round" stroke-linejoin="round" stroke-miterlimit="10" d="
	M19,119L19,119c1.1,0,2-0.9,2-2v-17h-4v17C17,118.1,17.9,119,19,119z"/>
<path fill="#FFFFFF" stroke="#3B2C31" stroke-width="2" stroke-linecap="round" stroke-linejoin="round" stroke-miterlimit="10" d="
	M8,119L8,119c1.1,0,2-0.9,2-2v-17H6v17C6,118.1,6.9,119,8,119z"/>
<path fill="#FFFFFF" stroke="#3B2C31" stroke-width="2" stroke-linecap="round" stroke-linejoin="round" stroke-miterlimit="10" d="
	M8,119L8,119c1.1,0,2-0.9,2-2l0,0c0-1.1-0.9-2-2-2h0c-1.1,0-2,0.9-2,2l0,0C6,118.1,6.9,119,8,119z"/>
<path fill="#FFFFFF" stroke="#3B2C31" stroke-width="2" stroke-linecap="round" stroke-linejoin="round" stroke-miterlimit="10" d="
	M19,119L19,119c1.1,0,2-0.9,2-2l0,0c0-1.1-0.9-2-2-2h0c-1.1,0-2,0.9-2,2l0,0C17,118.1,17.9,119,19,119z"/>
<path fill="#FFFFFF" stroke="#3B2C31" stroke-width="2" stroke-linecap="round" stroke-linejoin="round" stroke-miterlimit="10" d="
	M19,64L19,64c0,1.1-0.9,2-2,2H9c-1.1,0-2-0.9-2-2v0c0-1.1,0.9-2,2-2h8C18.1,62,19,62.9,19,64z"/>
<path fill="#FFFFFF" stroke="#3B2C31" stroke-width="2" stroke-linecap="round" stroke-linejoin="round" stroke-miterlimit="10" d="
	M4,79L4,79c-1.1,0-2-0.9-2-2v-2c0-1.1,0.9-2,2-2h0c1.1,0,2,0.9,2,2v2C6,78.1,5.1,79,4,79z"/>
<path fill="#FFFFFF" stroke="#3B2C31" stroke-width="2" stroke-linecap="round" stroke-linejoin="round" stroke-miterlimit="10" d="
	M22,79L22,79c1.1,0,2-0.9,2-2v-2c0-1.1-0.9-2-2-2h0c-1.1,0-2,0.9-2,2v2C20,78.1,20.9,79,22,79z"/>
<polygon fill="none" stroke="#EA4870" stroke-width="2" stroke-linecap="round" stroke-linejoin="round" stroke-miterlimit="10" points="
	18.4,1 6.8,1 3,4.1 3,4.8 13,13.6 23,4.8 23,4.1 "/>
</svg>
