<?xml version="1.0" encoding="utf-8"?>
<!-- Generator: Adobe Illustrator 18.0.0, SVG Export Plug-In . SVG Version: 6.00 Build 0)  -->
<!DOCTYPE svg PUBLIC "-//W3C//DTD SVG 1.1//EN" "http://www.w3.org/Graphics/SVG/1.1/DTD/svg11.dtd">
<svg version="1.1" id="Слой_1" xmlns="http://www.w3.org/2000/svg" xmlns:xlink="http://www.w3.org/1999/xlink" x="0px" y="0px"
	 viewBox="0 0 41.1 96" enable-background="new 0 0 41.1 96" xml:space="preserve">
<path fill="#FFFFFF" stroke="#3B2C31" stroke-width="2" stroke-linecap="round" stroke-linejoin="round" stroke-miterlimit="10" d="
	M23.7,21l-3-2V6c0-1.1-0.9-2-2-2h-6c-1.1,0-2,0.9-2,2v13l-3,2V3c0-1.1,0.9-2,2-2h12c1.1,0,2,0.9,2,2V21z"/>
<path fill="#FFFFFF" stroke="#3B2C31" stroke-width="2" stroke-linecap="round" stroke-linejoin="round" stroke-miterlimit="10" d="
	M5.7,54.8V74c0,1.1,0.9,2,2,2h16c1.1,0,2-0.9,2-2V54.8l-2-10.8c-0.7-1-1.6-1.8-2.7-2.4l-10.8,0.1c-0.9,0.6-1.8,1.4-2.5,2.3"/>
<path fill="#FFFFFF" stroke="#3B2C31" stroke-width="2" stroke-linecap="round" stroke-linejoin="round" stroke-miterlimit="10" d="
	M7.7,35.1V47c0,1.1-0.9,2-2,2h0c-1.1,0-2-0.9-2-2V31c0-1.1,0.9-2,2-2"/>
<path fill="#FFFFFF" stroke="#3B2C31" stroke-width="2" stroke-linecap="round" stroke-linejoin="round" stroke-miterlimit="10" d="
	M23.7,35v12c0,1.1,0.9,2,2,2h0c1.1,0,2-0.9,2-2V31c0-1.1-0.9-2-2-2"/>
<path fill="#FFFFFF" stroke="#3B2C31" stroke-width="2" stroke-linecap="round" stroke-linejoin="round" stroke-miterlimit="10" d="
	M21.7,38.9c1.6-2.6,4-8.9,4-8.9c0-3.3-2.7-6-6-6h-2h-4h-2c-3.3,0-6,2.7-6,6c0,0,2.6,6.6,4.1,9"/>
<path fill="#FFFFFF" stroke="#3B2C31" stroke-width="2" stroke-linecap="round" stroke-linejoin="round" stroke-miterlimit="10" d="
	M15.7,25L15.7,25c-1.1,0-2-0.9-2-2v-3.5c0-0.3,0.2-0.5,0.5-0.5h3c0.3,0,0.5,0.2,0.5,0.5V23C17.7,24.1,16.8,25,15.7,25z"/>
<path fill="#FFFFFF" stroke="#3B2C31" stroke-width="2" stroke-linecap="round" stroke-linejoin="round" stroke-miterlimit="10" d="
	M15.7,19L15.7,19c-2.8,0-5-2.2-5-5V5.2C10.7,4.6,11.3,4,12,4h7.5c0.7,0,1.2,0.6,1.2,1.2V14C20.7,16.8,18.5,19,15.7,19z"/>
<circle fill="#3B2C31" cx="17.7" cy="8" r="1"/>
<circle fill="#3B2C31" cx="13.7" cy="8" r="1"/>
<path fill="#FFFFFF" stroke="#3B2C31" stroke-width="2" stroke-linecap="round" stroke-linejoin="round" stroke-miterlimit="10" d="
	M17.7,14.2c0,0.5-0.3,1-0.7,1h-2.7c-0.4,0-0.7-0.4-0.7-1"/>
<path fill="#FFFFFF" stroke="#3B2C31" stroke-width="2" stroke-linecap="round" stroke-linejoin="round" stroke-miterlimit="10" d="
	M21.7,95L21.7,95c1.1,0,2-0.9,2-2V76h-4v17C19.7,94.1,20.6,95,21.7,95z"/>
<path fill="#FFFFFF" stroke="#3B2C31" stroke-width="2" stroke-linecap="round" stroke-linejoin="round" stroke-miterlimit="10" d="
	M10.7,95L10.7,95c1.1,0,2-0.9,2-2V76h-4v17C8.7,94.1,9.6,95,10.7,95z"/>
<path fill="#FFFFFF" stroke="#3B2C31" stroke-width="2" stroke-linecap="round" stroke-linejoin="round" stroke-miterlimit="10" d="
	M10.7,95L10.7,95c1.1,0,2-0.9,2-2l0,0c0-1.1-0.9-2-2-2h0c-1.1,0-2,0.9-2,2l0,0C8.7,94.1,9.6,95,10.7,95z"/>
<path fill="#FFFFFF" stroke="#3B2C31" stroke-width="2" stroke-linecap="round" stroke-linejoin="round" stroke-miterlimit="10" d="
	M21.7,95L21.7,95c1.1,0,2-0.9,2-2l0,0c0-1.1-0.9-2-2-2h0c-1.1,0-2,0.9-2,2l0,0C19.7,94.1,20.6,95,21.7,95z"/>
<path fill="#FFFFFF" stroke="#3B2C31" stroke-width="2" stroke-linecap="round" stroke-linejoin="round" stroke-miterlimit="10" d="
	M21.7,40L21.7,40c0,1.1-0.9,2-2,2h-8c-1.1,0-2-0.9-2-2v0c0-1.1,0.9-2,2-2h8C20.8,38,21.7,38.9,21.7,40z"/>
<g>
	
		<polygon fill="#FFFFFF" stroke="#3B2C31" stroke-width="2" stroke-linecap="round" stroke-linejoin="round" stroke-miterlimit="10" points="
		7.4,54.6 11.6,58.9 8.1,65.2 1,58.2 	"/>
	
		<polygon fill="#FFFFFF" stroke="#3B2C31" stroke-width="2" stroke-linecap="round" stroke-linejoin="round" stroke-miterlimit="10" points="
		11.6,58.9 7.4,54.6 19.4,28.5 37.8,46.9 	"/>
	
		<circle fill="#FF1565" stroke="#3B2C31" stroke-width="2" stroke-linecap="round" stroke-linejoin="round" stroke-miterlimit="10" cx="35.6" cy="44.7" r="3"/>
	
		<circle fill="#FF1565" stroke="#3B2C31" stroke-width="2" stroke-linecap="round" stroke-linejoin="round" stroke-miterlimit="10" cx="37.1" cy="37.7" r="3"/>
	
		<circle fill="#FF1565" stroke="#3B2C31" stroke-width="2" stroke-linecap="round" stroke-linejoin="round" stroke-miterlimit="10" cx="32.8" cy="33.4" r="3"/>
	
		<circle fill="#FF1565" stroke="#3B2C31" stroke-width="2" stroke-linecap="round" stroke-linejoin="round" stroke-miterlimit="10" cx="31.4" cy="40.5" r="3"/>
	
		<circle fill="#FF1565" stroke="#3B2C31" stroke-width="2" stroke-linecap="round" stroke-linejoin="round" stroke-miterlimit="10" cx="28.6" cy="29.2" r="3"/>
	
		<circle fill="#FF1565" stroke="#3B2C31" stroke-width="2" stroke-linecap="round" stroke-linejoin="round" stroke-miterlimit="10" cx="26.5" cy="35.5" r="3"/>
	
		<circle fill="#FF1565" stroke="#3B2C31" stroke-width="2" stroke-linecap="round" stroke-linejoin="round" stroke-miterlimit="10" cx="21.5" cy="30.6" r="3"/>
</g>
<path fill="#FFFFFF" stroke="#3B2C31" stroke-width="2" stroke-linecap="round" stroke-linejoin="round" stroke-miterlimit="10" d="
	M24.7,55L24.7,55c1.1,0,2-0.9,2-2v-2c0-1.1-0.9-2-2-2h0c-1.1,0-2,0.9-2,2v2C22.7,54.1,23.6,55,24.7,55z"/>
<path fill="#FFFFFF" stroke="#3B2C31" stroke-width="2" stroke-linecap="round" stroke-linejoin="round" stroke-miterlimit="10" d="
	M6.7,55L6.7,55c-1.1,0-2-0.9-2-2v-2c0-1.1,0.9-2,2-2h0c1.1,0,2,0.9,2,2v2C8.7,54.1,7.8,55,6.7,55z"/>
</svg>
