<?xml version="1.0" encoding="utf-8"?>
<!-- Generator: Adobe Illustrator 18.0.0, SVG Export Plug-In . SVG Version: 6.00 Build 0)  -->
<!DOCTYPE svg PUBLIC "-//W3C//DTD SVG 1.1//EN" "http://www.w3.org/Graphics/SVG/1.1/DTD/svg11.dtd">
<svg version="1.1" id="Слой_1" xmlns="http://www.w3.org/2000/svg" xmlns:xlink="http://www.w3.org/1999/xlink" x="0px" y="0px"
	 viewBox="0 0 198 91" enable-background="new 0 0 198 91" xml:space="preserve">
<g>
	
		<path fill="#FFFFFF" stroke="#3B2C31" stroke-width="2" stroke-linecap="round" stroke-linejoin="round" stroke-miterlimit="10" d="
		M72,58.8V78c0,1.1,0.9,2,2,2h16c1.1,0,2-0.9,2-2V58.8L90,48c-0.7-1-1.6-1.8-2.7-2.4l-10.8,0.1c-0.9,0.6-1.8,1.4-2.5,2.3"/>
	
		<path fill="#FFFFFF" stroke="#3B2C31" stroke-width="2" stroke-linecap="round" stroke-linejoin="round" stroke-miterlimit="10" d="
		M74,39.1V51c0,1.1-0.9,2-2,2l0,0c-1.1,0-2-0.9-2-2V35c0-1.1,0.9-2,2-2"/>
	
		<path fill="#FFFFFF" stroke="#3B2C31" stroke-width="2" stroke-linecap="round" stroke-linejoin="round" stroke-miterlimit="10" d="
		M90,39v12c0,1.1,0.9,2,2,2l0,0c1.1,0,2-0.9,2-2V35c0-1.1-0.9-2-2-2"/>
	
		<path fill="#FFFFFF" stroke="#3B2C31" stroke-width="2" stroke-linecap="round" stroke-linejoin="round" stroke-miterlimit="10" d="
		M88,42.9c1.6-2.6,4-8.9,4-8.9c0-3.3-2.7-6-6-6h-2h-4h-2c-3.3,0-6,2.7-6,6c0,0,2.6,6.6,4.1,9"/>
	
		<path fill="#FFFFFF" stroke="#3B2C31" stroke-width="2" stroke-linecap="round" stroke-linejoin="round" stroke-miterlimit="10" d="
		M82,29L82,29c-1.1,0-2-0.9-2-2v-3.5c0-0.3,0.2-0.5,0.5-0.5h3c0.3,0,0.5,0.2,0.5,0.5V27C84,28.1,83.1,29,82,29z"/>
	
		<path fill="#FFFFFF" stroke="#3B2C31" stroke-width="2" stroke-linecap="round" stroke-linejoin="round" stroke-miterlimit="10" d="
		M82,23L82,23c-3.3,0-6-2.7-6-6V8.5C76,7.7,76.7,7,77.5,7h9C87.3,7,88,7.7,88,8.5V17C88,20.3,85.3,23,82,23z"/>
	
		<path fill="#3B2C31" stroke="#3B2C31" stroke-width="2" stroke-linecap="round" stroke-linejoin="round" stroke-miterlimit="10" d="
		M90,25l-2-2V9c0-1.1-0.9-2-2-2h-8c-1.1,0-2,0.9-2,2v14l-2,2V7c0-1.1,0.9-2,2-2h12c1.1,0,2,0.9,2,2V25z"/>
	<circle fill="#3B2C31" cx="84" cy="12" r="1"/>
	<circle fill="#3B2C31" cx="80" cy="12" r="1"/>
	
		<path fill="#FFFFFF" stroke="#3B2C31" stroke-width="2" stroke-linecap="round" stroke-linejoin="round" stroke-miterlimit="10" d="
		M84,18.2c0,0.5-0.3,1-0.7,1h-2.7c-0.4,0-0.7-0.4-0.7-1"/>
	
		<path fill="#FFFFFF" stroke="#3B2C31" stroke-width="2" stroke-linecap="round" stroke-linejoin="round" stroke-miterlimit="10" d="
		M88,79L88,79c1.1,0,2-0.9,2-2v3h-4v-3C86,78.1,86.9,79,88,79z"/>
	
		<path fill="#FFFFFF" stroke="#3B2C31" stroke-width="2" stroke-linecap="round" stroke-linejoin="round" stroke-miterlimit="10" d="
		M77,79L77,79c1.1,0,2-0.9,2-2v3h-4v-3C75,78.1,75.9,79,77,79z"/>
	
		<path fill="#FFFFFF" stroke="#3B2C31" stroke-width="2" stroke-linecap="round" stroke-linejoin="round" stroke-miterlimit="10" d="
		M77,79L77,79c1.1,0,2-0.9,2-2l0,0c0-1.1-0.9-2-2-2l0,0c-1.1,0-2,0.9-2,2l0,0C75,78.1,75.9,79,77,79z"/>
	
		<path fill="#FFFFFF" stroke="#3B2C31" stroke-width="2" stroke-linecap="round" stroke-linejoin="round" stroke-miterlimit="10" d="
		M88,79L88,79c1.1,0,2-0.9,2-2l0,0c0-1.1-0.9-2-2-2l0,0c-1.1,0-2,0.9-2,2l0,0C86,78.1,86.9,79,88,79z"/>
	
		<path fill="#FFFFFF" stroke="#3B2C31" stroke-width="2" stroke-linecap="round" stroke-linejoin="round" stroke-miterlimit="10" d="
		M88,44L88,44c0,1.1-0.9,2-2,2h-8c-1.1,0-2-0.9-2-2v0c0-1.1,0.9-2,2-2h8C87.1,42,88,42.9,88,44z"/>
	
		<path fill="#FFFFFF" stroke="#3B2C31" stroke-width="2" stroke-linecap="round" stroke-linejoin="round" stroke-miterlimit="10" d="
		M73,59L73,59c-1.1,0-2-0.9-2-2v-2c0-1.1,0.9-2,2-2l0,0c1.1,0,2,0.9,2,2v2C75,58.1,74.1,59,73,59z"/>
	
		<path fill="#FFFFFF" stroke="#3B2C31" stroke-width="2" stroke-linecap="round" stroke-linejoin="round" stroke-miterlimit="10" d="
		M91,59L91,59c1.1,0,2-0.9,2-2v-2c0-1.1-0.9-2-2-2l0,0c-1.1,0-2,0.9-2,2v2C89,58.1,89.9,59,91,59z"/>
</g>
<g>
	
		<path fill="#FFFFFF" stroke="#3B2C31" stroke-width="2" stroke-linecap="round" stroke-linejoin="round" stroke-miterlimit="10" d="
		M132,58.8V78c0,1.1,0.9,2,2,2h16c1.1,0,2-0.9,2-2V58.8L150,48c-0.7-1-1.6-1.8-2.7-2.4l-10.8,0.1c-0.9,0.6-1.8,1.4-2.5,2.3"/>
	
		<path fill="#FFFFFF" stroke="#3B2C31" stroke-width="2" stroke-linecap="round" stroke-linejoin="round" stroke-miterlimit="10" d="
		M134,39.1V51c0,1.1-0.9,2-2,2l0,0c-1.1,0-2-0.9-2-2V35c0-1.1,0.9-2,2-2"/>
	
		<path fill="#FFFFFF" stroke="#3B2C31" stroke-width="2" stroke-linecap="round" stroke-linejoin="round" stroke-miterlimit="10" d="
		M150,39v12c0,1.1,0.9,2,2,2l0,0c1.1,0,2-0.9,2-2V35c0-1.1-0.9-2-2-2"/>
	
		<path fill="#FFFFFF" stroke="#3B2C31" stroke-width="2" stroke-linecap="round" stroke-linejoin="round" stroke-miterlimit="10" d="
		M148,42.9c1.6-2.6,4-8.9,4-8.9c0-3.3-2.7-6-6-6h-2h-4h-2c-3.3,0-6,2.7-6,6c0,0,2.6,6.6,4.1,9"/>
	
		<path fill="#FFFFFF" stroke="#3B2C31" stroke-width="2" stroke-linecap="round" stroke-linejoin="round" stroke-miterlimit="10" d="
		M142,29L142,29c-1.1,0-2-0.9-2-2v-3.5c0-0.3,0.2-0.5,0.5-0.5h3c0.3,0,0.5,0.2,0.5,0.5V27C144,28.1,143.1,29,142,29z"/>
	
		<path fill="#FFFFFF" stroke="#3B2C31" stroke-width="2" stroke-linecap="round" stroke-linejoin="round" stroke-miterlimit="10" d="
		M142,23L142,23c-3.3,0-6-2.7-6-6V8.5c0-0.8,0.7-1.5,1.5-1.5h9c0.8,0,1.5,0.7,1.5,1.5V17C148,20.3,145.3,23,142,23z"/>
	
		<path fill="#FFFFFF" stroke="#3B2C31" stroke-width="2" stroke-linecap="round" stroke-linejoin="round" stroke-miterlimit="10" d="
		M150,25l-3-2V10c0-1.1-0.9-2-2-2h-6c-1.1,0-2,0.9-2,2v13l-3,2V7c0-1.1,0.9-2,2-2h12c1.1,0,2,0.9,2,2V25z"/>
	<circle fill="#3B2C31" cx="144" cy="12" r="1"/>
	<circle fill="#3B2C31" cx="140" cy="12" r="1"/>
	
		<path fill="#FFFFFF" stroke="#3B2C31" stroke-width="2" stroke-linecap="round" stroke-linejoin="round" stroke-miterlimit="10" d="
		M144,18.2c0,0.5-0.3,1-0.7,1h-2.7c-0.4,0-0.7-0.4-0.7-1"/>
	
		<path fill="#FFFFFF" stroke="#3B2C31" stroke-width="2" stroke-linecap="round" stroke-linejoin="round" stroke-miterlimit="10" d="
		M148,79L148,79c1.1,0,2-0.9,2-2v3h-4v-3C146,78.1,146.9,79,148,79z"/>
	
		<path fill="#FFFFFF" stroke="#3B2C31" stroke-width="2" stroke-linecap="round" stroke-linejoin="round" stroke-miterlimit="10" d="
		M137,79L137,79c1.1,0,2-0.9,2-2v3h-4v-3C135,78.1,135.9,79,137,79z"/>
	
		<path fill="#FFFFFF" stroke="#3B2C31" stroke-width="2" stroke-linecap="round" stroke-linejoin="round" stroke-miterlimit="10" d="
		M137,79L137,79c1.1,0,2-0.9,2-2l0,0c0-1.1-0.9-2-2-2l0,0c-1.1,0-2,0.9-2,2l0,0C135,78.1,135.9,79,137,79z"/>
	
		<path fill="#FFFFFF" stroke="#3B2C31" stroke-width="2" stroke-linecap="round" stroke-linejoin="round" stroke-miterlimit="10" d="
		M148,79L148,79c1.1,0,2-0.9,2-2l0,0c0-1.1-0.9-2-2-2l0,0c-1.1,0-2,0.9-2,2l0,0C146,78.1,146.9,79,148,79z"/>
	
		<path fill="#FFFFFF" stroke="#3B2C31" stroke-width="2" stroke-linecap="round" stroke-linejoin="round" stroke-miterlimit="10" d="
		M148,44L148,44c0,1.1-0.9,2-2,2h-8c-1.1,0-2-0.9-2-2v0c0-1.1,0.9-2,2-2h8C147.1,42,148,42.9,148,44z"/>
	
		<path fill="#FFFFFF" stroke="#3B2C31" stroke-width="2" stroke-linecap="round" stroke-linejoin="round" stroke-miterlimit="10" d="
		M133,59L133,59c-1.1,0-2-0.9-2-2v-2c0-1.1,0.9-2,2-2l0,0c1.1,0,2,0.9,2,2v2C135,58.1,134.1,59,133,59z"/>
	
		<path fill="#FFFFFF" stroke="#3B2C31" stroke-width="2" stroke-linecap="round" stroke-linejoin="round" stroke-miterlimit="10" d="
		M151,59L151,59c1.1,0,2-0.9,2-2v-2c0-1.1-0.9-2-2-2l0,0c-1.1,0-2,0.9-2,2v2C149,58.1,149.9,59,151,59z"/>
</g>
<g>
	
		<path fill="#FFFFFF" stroke="#3B2C31" stroke-width="2" stroke-linecap="round" stroke-linejoin="round" stroke-miterlimit="10" d="
		M12,58.8V78c0,1.1,0.9,2,2,2h16c1.1,0,2-0.9,2-2V58.8L30,48c-0.7-1-1.6-1.8-2.7-2.4l-10.8,0.1c-0.9,0.6-1.8,1.4-2.5,2.3"/>
	
		<path fill="#FFFFFF" stroke="#3B2C31" stroke-width="2" stroke-linecap="round" stroke-linejoin="round" stroke-miterlimit="10" d="
		M14,39.1V51c0,1.1-0.9,2-2,2h0c-1.1,0-2-0.9-2-2V35c0-1.1,0.9-2,2-2"/>
	
		<path fill="#FFFFFF" stroke="#3B2C31" stroke-width="2" stroke-linecap="round" stroke-linejoin="round" stroke-miterlimit="10" d="
		M30,39v12c0,1.1,0.9,2,2,2h0c1.1,0,2-0.9,2-2V35c0-1.1-0.9-2-2-2"/>
	
		<path fill="#FFFFFF" stroke="#3B2C31" stroke-width="2" stroke-linecap="round" stroke-linejoin="round" stroke-miterlimit="10" d="
		M28,42.9c1.6-2.6,4-8.9,4-8.9c0-3.3-2.7-6-6-6h-2h-4h-2c-3.3,0-6,2.7-6,6c0,0,2.6,6.6,4.1,9"/>
	
		<path fill="#FFFFFF" stroke="#3B2C31" stroke-width="2" stroke-linecap="round" stroke-linejoin="round" stroke-miterlimit="10" d="
		M22,29L22,29c-1.1,0-2-0.9-2-2v-3.5c0-0.3,0.2-0.5,0.5-0.5h3c0.3,0,0.5,0.2,0.5,0.5V27C24,28.1,23.1,29,22,29z"/>
	
		<path fill="#FFFFFF" stroke="#3B2C31" stroke-width="2" stroke-linecap="round" stroke-linejoin="round" stroke-miterlimit="10" d="
		M22,23L22,23c-3.3,0-6-2.7-6-6V8.5C16,7.7,16.7,7,17.5,7h9C27.3,7,28,7.7,28,8.5V17C28,20.3,25.3,23,22,23z"/>
	
		<path fill="#3B2C31" stroke="#3B2C31" stroke-width="2" stroke-linecap="round" stroke-linejoin="round" stroke-miterlimit="10" d="
		M30,18l-2-2V9c0-1.1-0.9-2-2-2h-8c-1.1,0-2,0.9-2,2v7l-2,2V7c0-1.1,0.9-2,2-2h12c1.1,0,2,0.9,2,2V18z"/>
	<circle fill="#3B2C31" cx="24" cy="12" r="1"/>
	<circle fill="#3B2C31" cx="20" cy="12" r="1"/>
	
		<path fill="#FFFFFF" stroke="#3B2C31" stroke-width="2" stroke-linecap="round" stroke-linejoin="round" stroke-miterlimit="10" d="
		M24,18.2c0,0.5-0.3,1-0.7,1h-2.7c-0.4,0-0.7-0.4-0.7-1"/>
	
		<path fill="#FFFFFF" stroke="#3B2C31" stroke-width="2" stroke-linecap="round" stroke-linejoin="round" stroke-miterlimit="10" d="
		M28,79L28,79c1.1,0,2-0.9,2-2v3h-4v-3C26,78.1,26.9,79,28,79z"/>
	
		<path fill="#FFFFFF" stroke="#3B2C31" stroke-width="2" stroke-linecap="round" stroke-linejoin="round" stroke-miterlimit="10" d="
		M17,79L17,79c1.1,0,2-0.9,2-2v3h-4v-3C15,78.1,15.9,79,17,79z"/>
	
		<path fill="#FFFFFF" stroke="#3B2C31" stroke-width="2" stroke-linecap="round" stroke-linejoin="round" stroke-miterlimit="10" d="
		M17,79L17,79c1.1,0,2-0.9,2-2l0,0c0-1.1-0.9-2-2-2h0c-1.1,0-2,0.9-2,2l0,0C15,78.1,15.9,79,17,79z"/>
	
		<path fill="#FFFFFF" stroke="#3B2C31" stroke-width="2" stroke-linecap="round" stroke-linejoin="round" stroke-miterlimit="10" d="
		M28,79L28,79c1.1,0,2-0.9,2-2l0,0c0-1.1-0.9-2-2-2h0c-1.1,0-2,0.9-2,2l0,0C26,78.1,26.9,79,28,79z"/>
	
		<path fill="#FFFFFF" stroke="#3B2C31" stroke-width="2" stroke-linecap="round" stroke-linejoin="round" stroke-miterlimit="10" d="
		M28,44L28,44c0,1.1-0.9,2-2,2h-8c-1.1,0-2-0.9-2-2v0c0-1.1,0.9-2,2-2h8C27.1,42,28,42.9,28,44z"/>
	
		<path fill="#FFFFFF" stroke="#3B2C31" stroke-width="2" stroke-linecap="round" stroke-linejoin="round" stroke-miterlimit="10" d="
		M13,59L13,59c-1.1,0-2-0.9-2-2v-2c0-1.1,0.9-2,2-2h0c1.1,0,2,0.9,2,2v2C15,58.1,14.1,59,13,59z"/>
	
		<path fill="#FFFFFF" stroke="#3B2C31" stroke-width="2" stroke-linecap="round" stroke-linejoin="round" stroke-miterlimit="10" d="
		M31,59L31,59c1.1,0,2-0.9,2-2v-2c0-1.1-0.9-2-2-2h0c-1.1,0-2,0.9-2,2v2C29,58.1,29.9,59,31,59z"/>
</g>
<g>
	
		<path fill="#FFFFFF" stroke="#3B2C31" stroke-width="2" stroke-linecap="round" stroke-linejoin="round" stroke-miterlimit="10" d="
		M101,54v19c0,1.1,0.9,2,2,2h4c1.1,0,2-0.9,2-2l2-2h2l2,2c0,1.1,0.9,2,2,2h4c1.1,0,2-0.9,2-2V54H101z"/>
	
		<path fill="#FFFFFF" stroke="#3B2C31" stroke-width="2" stroke-linecap="round" stroke-linejoin="round" stroke-miterlimit="10" d="
		M116,61c0-2-4-6-4-6s-4,4-4,6h-6c-1.1,0-2-0.9-2-2V23c0-1.1,0.9-2,2-2h20c1.1,0,2,0.9,2,2v36c0,1.1-0.9,2-2,2H116z"/>
	
		<path fill="#FFFFFF" stroke="#3B2C31" stroke-width="2" stroke-linecap="round" stroke-linejoin="round" stroke-miterlimit="10" d="
		M112,43c0,0-12-7.6-12-12v-8c0-1.1,1.3-2,3-2h18c1.7,0,3,0.9,3,2v8C124,35.4,112,43,112,43z"/>
	
		<path fill="#FFFFFF" stroke="#3B2C31" stroke-width="2" stroke-linecap="round" stroke-linejoin="round" stroke-miterlimit="10" d="
		M112,43c0,0-8-7.6-8-12v-8c0-1.1,0.9-2,2-2h12c1.1,0,2,0.9,2,2v8C120,35.4,112,43,112,43z"/>
	
		<path fill="#FFFFFF" stroke="#3B2C31" stroke-width="2" stroke-linecap="round" stroke-linejoin="round" stroke-miterlimit="10" d="
		M115,21h-6c-2.8,0-5-2.2-5-5V6c0-2.8,2.2-5,5-5h6c2.8,0,5,2.2,5,5v10C120,18.8,117.8,21,115,21z"/>
	<circle fill="#3B2C31" cx="114" cy="10" r="1"/>
	<circle fill="#3B2C31" cx="110" cy="10" r="1"/>
	
		<path fill="#FFFFFF" stroke="#3B2C31" stroke-width="2" stroke-linecap="round" stroke-linejoin="round" stroke-miterlimit="10" d="
		M115,16.2c0,0.5-0.4,1-1,1h-4c-0.6,0-1-0.4-1-1"/>
	
		<path fill="#FFFFFF" stroke="#3B2C31" stroke-width="2" stroke-linecap="round" stroke-linejoin="round" stroke-miterlimit="10" d="
		M114.2,41.2l-0.9,0.9c-0.7,0.7-1.8,0.7-2.5,0l-0.9-0.9c-0.7-0.7-0.7-11.8,0-12.5l0.9-0.9c0.7-0.7,1.8-0.7,2.5,0l0.9,0.9
		C114.9,29.4,114.9,40.6,114.2,41.2z"/>
	
		<path fill="#FFFFFF" stroke="#3B2C31" stroke-width="2" stroke-linecap="round" stroke-linejoin="round" stroke-miterlimit="10" d="
		M114.2,25.2l-0.9,0.9c-0.7,0.7-1.8,0.7-2.5,0l-0.9-0.9c-0.7-0.7-0.7-1.8,0-2.5l0.9-0.9c0.7-0.7,1.8-0.7,2.5,0l0.9,0.9
		C114.9,23.4,114.9,24.6,114.2,25.2z"/>
	
		<path fill="#FFFFFF" stroke="#3B2C31" stroke-width="2" stroke-linecap="round" stroke-linejoin="round" stroke-miterlimit="10" d="
		M125,67L125,67c1.1,0,2-0.9,2-2v-2c0-1.1-0.9-2-2-2l0,0c-1.1,0-2,0.9-2,2v2C123,66.1,123.9,67,125,67z"/>
	
		<path fill="#FFFFFF" stroke="#3B2C31" stroke-width="2" stroke-linecap="round" stroke-linejoin="round" stroke-miterlimit="10" d="
		M99,67L99,67c1.1,0,2-0.9,2-2v-2c0-1.1-0.9-2-2-2l0,0c-1.1,0-2,0.9-2,2v2C97,66.1,97.9,67,99,67z"/>
	
		<path fill="#FFFFFF" stroke="#3B2C31" stroke-width="2" stroke-linecap="round" stroke-linejoin="round" stroke-miterlimit="10" d="
		M98,61L98,61c1.1,0,2-0.9,2-2V23c0-1.1-0.9-2-2-2l0,0c-1.1,0-2,0.9-2,2v36C96,60.1,96.9,61,98,61z"/>
	
		<path fill="#FFFFFF" stroke="#3B2C31" stroke-width="2" stroke-linecap="round" stroke-linejoin="round" stroke-miterlimit="10" d="
		M126,61L126,61c1.1,0,2-0.9,2-2V23c0-1.1-0.9-2-2-2l0,0c-1.1,0-2,0.9-2,2v36C124,60.1,124.9,61,126,61z"/>
	
		<path fill="#FFFFFF" stroke="#3B2C31" stroke-width="2" stroke-linecap="round" stroke-linejoin="round" stroke-miterlimit="10" d="
		M117,79h12c1.1,0,2-0.9,2-2l0,0c0-1.1-0.9-2-2-2h-12c-1.1,0-2,0.9-2,2l0,0C115,78.1,115.9,79,117,79z"/>
	
		<path fill="#FFFFFF" stroke="#3B2C31" stroke-width="2" stroke-linecap="round" stroke-linejoin="round" stroke-miterlimit="10" d="
		M95,79h12c1.1,0,2-0.9,2-2l0,0c0-1.1-0.9-2-2-2H95c-1.1,0-2,0.9-2,2l0,0C93,78.1,93.9,79,95,79z"/>
</g>
<g>
	
		<path fill="#FFFFFF" stroke="#3B2C31" stroke-width="2" stroke-linecap="round" stroke-linejoin="round" stroke-miterlimit="10" d="
		M41,54v19c0,1.1,0.9,2,2,2h4c1.1,0,2-0.9,2-2l2-2h2l2,2c0,1.1,0.9,2,2,2h4c1.1,0,2-0.9,2-2V54H41z"/>
	
		<path fill="#FFFFFF" stroke="#3B2C31" stroke-width="2" stroke-linecap="round" stroke-linejoin="round" stroke-miterlimit="10" d="
		M56,61c0-2-4-6-4-6s-4,4-4,6h-6c-1.1,0-2-0.9-2-2V23c0-1.1,0.9-2,2-2h20c1.1,0,2,0.9,2,2v36c0,1.1-0.9,2-2,2H56z"/>
	
		<path fill="#FFFFFF" stroke="#3B2C31" stroke-width="2" stroke-linecap="round" stroke-linejoin="round" stroke-miterlimit="10" d="
		M52,43c0,0-12-7.6-12-12v-8c0-1.1,1.3-2,3-2h18c1.7,0,3,0.9,3,2v8C64,35.4,52,43,52,43z"/>
	
		<path fill="#FFFFFF" stroke="#3B2C31" stroke-width="2" stroke-linecap="round" stroke-linejoin="round" stroke-miterlimit="10" d="
		M52,43c0,0-8-7.6-8-12v-8c0-1.1,0.9-2,2-2h12c1.1,0,2,0.9,2,2v8C60,35.4,52,43,52,43z"/>
	
		<path fill="#FFFFFF" stroke="#3B2C31" stroke-width="2" stroke-linecap="round" stroke-linejoin="round" stroke-miterlimit="10" d="
		M57,21c0,2.8-2.2,5-5,5s-5-2.2-5-5"/>
	
		<path fill="#FFFFFF" stroke="#3B2C31" stroke-width="2" stroke-linecap="round" stroke-linejoin="round" stroke-miterlimit="10" d="
		M55,21h-6c-2.8,0-5-2.2-5-5V3c0-1.1,0.9-2,2-2h12c1.1,0,2,0.9,2,2v13C60,18.8,57.8,21,55,21z"/>
	
		<path fill="#3B2C31" stroke="#3B2C31" stroke-width="2" stroke-linecap="round" stroke-linejoin="round" stroke-miterlimit="10" d="
		M60,11l-3-2V6c0-1.1-0.9-2-2-2h-6c-1.1,0-2,0.9-2,2v3l-3,2V3c0-1.1,0.9-2,2-2h12c1.1,0,2,0.9,2,2V11z"/>
	<circle fill="#3B2C31" cx="54" cy="10" r="1"/>
	<circle fill="#3B2C31" cx="50" cy="10" r="1"/>
	
		<path fill="#FFFFFF" stroke="#3B2C31" stroke-width="2" stroke-linecap="round" stroke-linejoin="round" stroke-miterlimit="10" d="
		M55,16.2c0,0.5-0.5,1-1,1h-4c-0.5,0-1-0.4-1-1"/>
	
		<path fill="#FFFFFF" stroke="#3B2C31" stroke-width="2" stroke-linecap="round" stroke-linejoin="round" stroke-miterlimit="10" d="
		M65,67L65,67c1.1,0,2-0.9,2-2v-2c0-1.1-0.9-2-2-2l0,0c-1.1,0-2,0.9-2,2v2C63,66.1,63.9,67,65,67z"/>
	
		<path fill="#FFFFFF" stroke="#3B2C31" stroke-width="2" stroke-linecap="round" stroke-linejoin="round" stroke-miterlimit="10" d="
		M39,67L39,67c1.1,0,2-0.9,2-2v-2c0-1.1-0.9-2-2-2h0c-1.1,0-2,0.9-2,2v2C37,66.1,37.9,67,39,67z"/>
	
		<path fill="#FFFFFF" stroke="#3B2C31" stroke-width="2" stroke-linecap="round" stroke-linejoin="round" stroke-miterlimit="10" d="
		M38,61L38,61c1.1,0,2-0.9,2-2V23c0-1.1-0.9-2-2-2h0c-1.1,0-2,0.9-2,2v36C36,60.1,36.9,61,38,61z"/>
	
		<path fill="#FFFFFF" stroke="#3B2C31" stroke-width="2" stroke-linecap="round" stroke-linejoin="round" stroke-miterlimit="10" d="
		M66,61L66,61c1.1,0,2-0.9,2-2V23c0-1.1-0.9-2-2-2l0,0c-1.1,0-2,0.9-2,2v36C64,60.1,64.9,61,66,61z"/>
	
		<path fill="#FFFFFF" stroke="#3B2C31" stroke-width="2" stroke-linecap="round" stroke-linejoin="round" stroke-miterlimit="10" d="
		M57,79h12c1.1,0,2-0.9,2-2l0,0c0-1.1-0.9-2-2-2H57c-1.1,0-2,0.9-2,2l0,0C55,78.1,55.9,79,57,79z"/>
	
		<path fill="#FFFFFF" stroke="#3B2C31" stroke-width="2" stroke-linecap="round" stroke-linejoin="round" stroke-miterlimit="10" d="
		M35,79h12c1.1,0,2-0.9,2-2l0,0c0-1.1-0.9-2-2-2H35c-1.1,0-2,0.9-2,2l0,0C33,78.1,33.9,79,35,79z"/>
</g>
<g>
	
		<path fill="#FFFFFF" stroke="#3B2C31" stroke-width="2" stroke-linecap="round" stroke-linejoin="round" stroke-miterlimit="10" d="
		M161,54v19c0,1.1,0.9,2,2,2h4c1.1,0,2-0.9,2-2l2-2h2l2,2c0,1.1,0.9,2,2,2h4c1.1,0,2-0.9,2-2V54H161z"/>
	
		<path fill="#FFFFFF" stroke="#3B2C31" stroke-width="2" stroke-linecap="round" stroke-linejoin="round" stroke-miterlimit="10" d="
		M176,61c0-2-4-6-4-6s-4,4-4,6h-6c-1.1,0-2-0.9-2-2V23c0-1.1,0.9-2,2-2h20c1.1,0,2,0.9,2,2v36c0,1.1-0.9,2-2,2H176z"/>
	
		<path fill="#FFFFFF" stroke="#3B2C31" stroke-width="2" stroke-linecap="round" stroke-linejoin="round" stroke-miterlimit="10" d="
		M172,43c0,0-12-7.6-12-12v-8c0-1.1,1.4-2,3-2h18c1.6,0,3,0.9,3,2v8C184,35.4,172,43,172,43z"/>
	
		<path fill="#FFFFFF" stroke="#3B2C31" stroke-width="2" stroke-linecap="round" stroke-linejoin="round" stroke-miterlimit="10" d="
		M172,43c0,0-8-7.6-8-12v-8c0-1.1,0.9-2,2-2h12c1.1,0,2,0.9,2,2v8C180,35.4,172,43,172,43z"/>
	
		<path fill="#FFFFFF" stroke="#3B2C31" stroke-width="2" stroke-linecap="round" stroke-linejoin="round" stroke-miterlimit="10" d="
		M175,21h-6c-2.8,0-5-2.2-5-5V3c0-1.1,0.9-2,2-2h12c1.1,0,2,0.9,2,2v13C180,18.8,177.8,21,175,21z"/>
	
		<path fill="#FFFFFF" stroke="#3B2C31" stroke-width="2" stroke-linecap="round" stroke-linejoin="round" stroke-miterlimit="10" d="
		M180,11l-3-2V6c0-1.1-0.9-2-2-2h-6c-1.1,0-2,0.9-2,2v3l-3,2V3c0-1.1,0.9-2,2-2h12c1.1,0,2,0.9,2,2V11z"/>
	<circle fill="#3B2C31" cx="174" cy="10" r="1"/>
	<circle fill="#3B2C31" cx="170" cy="10" r="1"/>
	
		<path fill="#FFFFFF" stroke="#3B2C31" stroke-width="2" stroke-linecap="round" stroke-linejoin="round" stroke-miterlimit="10" d="
		M175,16.2c0,0.5-0.4,1-1,1h-4c-0.6,0-1-0.4-1-1"/>
	
		<path fill="#FFFFFF" stroke="#3B2C31" stroke-width="2" stroke-linecap="round" stroke-linejoin="round" stroke-miterlimit="10" d="
		M174.2,41.2l-0.9,0.9c-0.7,0.7-1.8,0.7-2.5,0l-0.9-0.9c-0.7-0.7-0.7-11.8,0-12.5l0.9-0.9c0.7-0.7,1.8-0.7,2.5,0l0.9,0.9
		C174.9,29.4,174.9,40.6,174.2,41.2z"/>
	
		<path fill="#FFFFFF" stroke="#3B2C31" stroke-width="2" stroke-linecap="round" stroke-linejoin="round" stroke-miterlimit="10" d="
		M174.2,25.2l-0.9,0.9c-0.7,0.7-1.8,0.7-2.5,0l-0.9-0.9c-0.7-0.7-0.7-1.8,0-2.5l0.9-0.9c0.7-0.7,1.8-0.7,2.5,0l0.9,0.9
		C174.9,23.4,174.9,24.6,174.2,25.2z"/>
	
		<path fill="#FFFFFF" stroke="#3B2C31" stroke-width="2" stroke-linecap="round" stroke-linejoin="round" stroke-miterlimit="10" d="
		M185,67L185,67c1.1,0,2-0.9,2-2v-2c0-1.1-0.9-2-2-2l0,0c-1.1,0-2,0.9-2,2v2C183,66.1,183.9,67,185,67z"/>
	
		<path fill="#FFFFFF" stroke="#3B2C31" stroke-width="2" stroke-linecap="round" stroke-linejoin="round" stroke-miterlimit="10" d="
		M159,67L159,67c1.1,0,2-0.9,2-2v-2c0-1.1-0.9-2-2-2l0,0c-1.1,0-2,0.9-2,2v2C157,66.1,157.9,67,159,67z"/>
	
		<path fill="#FFFFFF" stroke="#3B2C31" stroke-width="2" stroke-linecap="round" stroke-linejoin="round" stroke-miterlimit="10" d="
		M158,61L158,61c1.1,0,2-0.9,2-2V23c0-1.1-0.9-2-2-2l0,0c-1.1,0-2,0.9-2,2v36C156,60.1,156.9,61,158,61z"/>
	
		<path fill="#FFFFFF" stroke="#3B2C31" stroke-width="2" stroke-linecap="round" stroke-linejoin="round" stroke-miterlimit="10" d="
		M186,61L186,61c1.1,0,2-0.9,2-2V23c0-1.1-0.9-2-2-2l0,0c-1.1,0-2,0.9-2,2v36C184,60.1,184.9,61,186,61z"/>
	
		<path fill="#FFFFFF" stroke="#3B2C31" stroke-width="2" stroke-linecap="round" stroke-linejoin="round" stroke-miterlimit="10" d="
		M177,79h12c1.1,0,2-0.9,2-2l0,0c0-1.1-0.9-2-2-2h-12c-1.1,0-2,0.9-2,2l0,0C175,78.1,175.9,79,177,79z"/>
	
		<path fill="#FFFFFF" stroke="#3B2C31" stroke-width="2" stroke-linecap="round" stroke-linejoin="round" stroke-miterlimit="10" d="
		M155,79h12c1.1,0,2-0.9,2-2l0,0c0-1.1-0.9-2-2-2h-12c-1.1,0-2,0.9-2,2l0,0C153,78.1,153.9,79,155,79z"/>
</g>
<path fill="#FFFFFF" stroke="#3B2C31" stroke-width="2" stroke-linecap="round" stroke-linejoin="round" stroke-miterlimit="10" d="
	M29,83c0,3.9,3.1,7,7,7s7-3.1,7-7c0,3.9,3.1,7,7,7s7-3.1,7-7c0,3.9,3.1,7,7,7s7-3.1,7-7c0,3.9,3.1,7,7,7s7-3.1,7-7c0,3.9,3.1,7,7,7
	s7-3.1,7-7c0,3.9,3.1,7,7,7s7-3.1,7-7c0,3.9,3.1,7,7,7s7-3.1,7-7c0,3.9,3.1,7,7,7s7-3.1,7-7c0,3.9,3.1,7,7,7s7-3.1,7-7
	c0,3.9,3.1,7,7,7s7-3.1,7-7c0,3.9,3.1,7,7,7s7-3.1,7-7c0,3.9,3.1,7,7,7s7-3.1,7-7V44c0-1.1-0.9-2-2-2H3c-1.1,0-2,0.9-2,2v39
	c0,3.9,3.1,7,7,7s7-3.1,7-7c0,3.9,3.1,7,7,7S29,86.9,29,83z"/>
</svg>
