<?xml version="1.0" encoding="utf-8"?>
<!-- Generator: Adobe Illustrator 18.0.0, SVG Export Plug-In . SVG Version: 6.00 Build 0)  -->
<!DOCTYPE svg PUBLIC "-//W3C//DTD SVG 1.1//EN" "http://www.w3.org/Graphics/SVG/1.1/DTD/svg11.dtd">
<svg version="1.1" id="Слой_1" xmlns="http://www.w3.org/2000/svg" xmlns:xlink="http://www.w3.org/1999/xlink" x="0px" y="0px"
	 viewBox="0 0 71 104" enable-background="new 0 0 71 104" xml:space="preserve">
<path fill="#FFFFFF" stroke="#3B2C31" stroke-width="2" stroke-linecap="round" stroke-linejoin="round" stroke-miterlimit="10" d="
	M62,61v36c0,1.1-0.9,2-2,2h-4c-1.1,0-2-0.9-2-2l-2-26h-2l-2,26c0,1.1-0.9,2-2,2h-4c-1.1,0-2-0.9-2-2V61"/>
<path fill="#FFFFFF" stroke="#3B2C31" stroke-width="2" stroke-linecap="round" stroke-linejoin="round" stroke-miterlimit="10" d="
	M48,21h6c2.8,0,5-2.2,5-5V3c0-1.1-0.9-2-2-2H45c-1.1,0-2,0.9-2,2v13C43,18.8,45.2,21,48,21z"/>
<circle fill="#3B2C31" cx="53" cy="10" r="1"/>
<circle fill="#3B2C31" cx="49" cy="10" r="1"/>
<path fill="#FFFFFF" stroke="#3B2C31" stroke-width="2" stroke-linecap="round" stroke-linejoin="round" stroke-miterlimit="10" d="
	M48,16.2c0,0.5,0.5,1,1,1h4c0.5,0,1-0.4,1-1"/>
<path fill="#FFFFFF" stroke="#3B2C31" stroke-width="2" stroke-linecap="round" stroke-linejoin="round" stroke-miterlimit="10" d="
	M13,38L13,38c0-1.1,0.9-2,2-2h2c1.1,0,2,0.9,2,2v0c0,1.1-0.9,2-2,2h-2C13.9,40,13,39.1,13,38z"/>
<path fill="#FFFFFF" stroke="#3B2C31" stroke-width="2" stroke-linecap="round" stroke-linejoin="round" stroke-miterlimit="10" d="
	M8,25L8,25c-1.1,0-2-0.9-2-2v-3c0-0.6,0.4-1,1-1h2c0.6,0,1,0.4,1,1v3C10,24.1,9.1,25,8,25z"/>
<line fill="#FFFFFF" stroke="#3B2C31" stroke-width="2" stroke-linecap="round" stroke-linejoin="round" stroke-miterlimit="10" x1="8" y1="25" x2="8" y2="35"/>
<path fill="#FFFFFF" stroke="#3B2C31" stroke-width="2" stroke-linecap="round" stroke-linejoin="round" stroke-miterlimit="10" d="
	M16,25L16,25c-1.1,0-2-0.9-2-2v-3c0-0.6,0.4-1,1-1h2c0.6,0,1,0.4,1,1v3C18,24.1,17.1,25,16,25z"/>
<line fill="#FFFFFF" stroke="#3B2C31" stroke-width="2" stroke-linecap="round" stroke-linejoin="round" stroke-miterlimit="10" x1="16" y1="25" x2="16" y2="35"/>
<path fill="#FFFFFF" stroke="#3B2C31" stroke-width="2" stroke-linecap="round" stroke-linejoin="round" stroke-miterlimit="10" d="
	M24,25L24,25c-1.1,0-2-0.9-2-2v-3c0-0.6,0.4-1,1-1h2c0.6,0,1,0.4,1,1v3C26,24.1,25.1,25,24,25z"/>
<path fill="#FFFFFF" stroke="#3B2C31" stroke-width="2" stroke-linecap="round" stroke-linejoin="round" stroke-miterlimit="10" d="
	M64,67L64,67c-1.1,0-2-0.9-2-2v-2c0-1.1,0.9-2,2-2h0c1.1,0,2,0.9,2,2v2C66,66.1,65.1,67,64,67z"/>
<path fill="#FFFFFF" stroke="#3B2C31" stroke-width="2" stroke-linecap="round" stroke-linejoin="round" stroke-miterlimit="10" d="
	M65,61L65,61c-1.1,0-2-0.9-2-2V23c0-1.1,0.9-2,2-2l0,0c1.1,0,2,0.9,2,2v36C67,60.1,66.1,61,65,61z"/>
<path fill="none" stroke="#3B2C31" stroke-width="2" stroke-linecap="round" stroke-linejoin="round" stroke-miterlimit="10" d="
	M31,33L31,33c0,1.1-0.9,2-2,2H3c-1.1,0-2-0.9-2-2v0"/>
<path fill="#FFFFFF" stroke="#3B2C31" stroke-width="2" stroke-linecap="round" stroke-linejoin="round" stroke-miterlimit="10" d="
	M18,41L18,41c0-1.1,0.9-2,2-2h16c1.1,0,2,0.9,2,2v0c0,1.1-0.9,2-2,2H20C18.9,43,18,42.1,18,41z"/>
<path fill="#FFFFFF" stroke="#3B2C31" stroke-width="2" stroke-linecap="round" stroke-linejoin="round" stroke-miterlimit="10" d="
	M37,41L37,41c-1.1,0-2-0.9-2-2V23c0-1.1,0.9-2,2-2h0c1.1,0,2,0.9,2,2v16C39,40.1,38.1,41,37,41z"/>
<path fill="#FFFFFF" stroke="#3B2C31" stroke-width="2" stroke-linecap="round" stroke-linejoin="round" stroke-miterlimit="10" d="
	M46,103H34c-1.1,0-2-0.9-2-2l0,0c0-1.1,0.9-2,2-2h12c1.1,0,2,0.9,2,2l0,0C48,102.1,47.1,103,46,103z"/>
<path fill="#FFFFFF" stroke="#3B2C31" stroke-width="2" stroke-linecap="round" stroke-linejoin="round" stroke-miterlimit="10" d="
	M68,103H56c-1.1,0-2-0.9-2-2l0,0c0-1.1,0.9-2,2-2h12c1.1,0,2,0.9,2,2l0,0C70,102.1,69.1,103,68,103z"/>
<path fill="#FFFFFF" stroke="#3B2C31" stroke-width="2" stroke-linecap="round" stroke-linejoin="round" stroke-miterlimit="10" d="
	M47,61c0-2,4-6,4-6s4,4,4,6h6c1.1,0,2-0.9,2-2V23c0-1.1-0.9-2-2-2H41c-1.1,0-2,0.9-2,2v36c0,1.1,0.9,2,2,2H47z"/>
<path fill="#FFFFFF" stroke="#3B2C31" stroke-width="2" stroke-linecap="round" stroke-linejoin="round" stroke-miterlimit="10" d="
	M51,43c0,0,12-7.6,12-12v-8c0-1.1-1.3-2-3-2H42c-1.7,0-3,0.9-3,2v8C39,35.4,51,43,51,43z"/>
<path fill="#FFFFFF" stroke="#3B2C31" stroke-width="2" stroke-linecap="round" stroke-linejoin="round" stroke-miterlimit="10" d="
	M51,43c0,0,8-7.6,8-12v-8c0-1.1-0.9-2-2-2H45c-1.1,0-2,0.9-2,2v8C43,35.4,51,43,51,43z"/>
<path fill="#FFFFFF" stroke="#3B2C31" stroke-width="2" stroke-linecap="round" stroke-linejoin="round" stroke-miterlimit="10" d="
	M46.1,25.2l0.9,0.9c0.7,0.7,1.8,0.7,2.5,0l0.9-0.9c0.7-0.7,0.7-1.8,0-2.5l-0.9-0.9c-0.7-0.7-1.8-0.7-2.5,0l-0.9,0.9
	C45.4,23.4,45.4,24.6,46.1,25.2z"/>
<path fill="#FFFFFF" stroke="#3B2C31" stroke-width="2" stroke-linecap="round" stroke-linejoin="round" stroke-miterlimit="10" d="
	M51.5,25.2l0.9,0.9c0.7,0.7,1.8,0.7,2.5,0l0.9-0.9c0.7-0.7,0.7-1.8,0-2.5l-0.9-0.9c-0.7-0.7-1.8-0.7-2.5,0l-0.9,0.9
	C50.8,23.4,50.8,24.6,51.5,25.2z"/>
<line fill="#FFFFFF" stroke="#3B2C31" stroke-width="2" stroke-linecap="round" stroke-linejoin="round" stroke-miterlimit="10" x1="24" y1="25" x2="24" y2="35"/>
<path fill="#FFFFFF" stroke="#3B2C31" stroke-width="2" stroke-linecap="round" stroke-linejoin="round" stroke-miterlimit="10" d="
	M59,11l-3-2V6c0-1.1-0.9-2-2-2h-6c-1.1,0-2,0.9-2,2v3l-3,2V3c0-1.1,0.9-2,2-2h12c1.1,0,2,0.9,2,2V11z"/>
</svg>
