<?xml version="1.0" encoding="utf-8"?>
<!-- Generator: Adobe Illustrator 18.0.0, SVG Export Plug-In . SVG Version: 6.00 Build 0)  -->
<!DOCTYPE svg PUBLIC "-//W3C//DTD SVG 1.1//EN" "http://www.w3.org/Graphics/SVG/1.1/DTD/svg11.dtd">
<svg version="1.1" id="Слой_1" xmlns="http://www.w3.org/2000/svg" xmlns:xlink="http://www.w3.org/1999/xlink" x="0px" y="0px"
	 viewBox="0 0 71 104" enable-background="new 0 0 71 104" xml:space="preserve">
<path fill="#FFFFFF" stroke="#3B2C31" stroke-width="2" stroke-linecap="round" stroke-linejoin="round" stroke-miterlimit="10" d="
	M9,61v36c0,1.1,0.9,2,2,2h4c1.1,0,2-0.9,2-2l2-26h2l2,26c0,1.1,0.9,2,2,2h4c1.1,0,2-0.9,2-2V61"/>
<path fill="#FFFFFF" stroke="#3B2C31" stroke-width="2" stroke-linecap="round" stroke-linejoin="round" stroke-miterlimit="10" d="
	M23,21h-6c-2.8,0-5-2.2-5-5V3c0-1.1,0.9-2,2-2h12c1.1,0,2,0.9,2,2v13C28,18.8,25.8,21,23,21z"/>
<circle fill="#3B2C31" cx="18" cy="10" r="1"/>
<circle fill="#3B2C31" cx="22" cy="10" r="1"/>
<path fill="#FFFFFF" stroke="#3B2C31" stroke-width="2" stroke-linecap="round" stroke-linejoin="round" stroke-miterlimit="10" d="
	M23,16.2c0,0.5-0.4,1-1,1h-4c-0.5,0-1-0.4-1-1"/>
<path fill="#FFFFFF" stroke="#3B2C31" stroke-width="2" stroke-linecap="round" stroke-linejoin="round" stroke-miterlimit="10" d="
	M58,38L58,38c0-1.1-0.9-2-2-2h-2c-1.1,0-2,0.9-2,2v0c0,1.1,0.9,2,2,2h2C57.1,40,58,39.1,58,38z"/>
<path fill="#FFFFFF" stroke="#3B2C31" stroke-width="2" stroke-linecap="round" stroke-linejoin="round" stroke-miterlimit="10" d="
	M63,25L63,25c1.1,0,2-0.9,2-2v-3c0-0.6-0.4-1-1-1h-2c-0.6,0-1,0.4-1,1v3C61,24.1,61.9,25,63,25z"/>
<line fill="#FFFFFF" stroke="#3B2C31" stroke-width="2" stroke-linecap="round" stroke-linejoin="round" stroke-miterlimit="10" x1="63" y1="25" x2="63" y2="35"/>
<path fill="#FFFFFF" stroke="#3B2C31" stroke-width="2" stroke-linecap="round" stroke-linejoin="round" stroke-miterlimit="10" d="
	M55,25L55,25c1.1,0,2-0.9,2-2v-3c0-0.6-0.4-1-1-1h-2c-0.6,0-1,0.4-1,1v3C53,24.1,53.9,25,55,25z"/>
<line fill="#FFFFFF" stroke="#3B2C31" stroke-width="2" stroke-linecap="round" stroke-linejoin="round" stroke-miterlimit="10" x1="55" y1="25" x2="55" y2="35"/>
<path fill="#FFFFFF" stroke="#3B2C31" stroke-width="2" stroke-linecap="round" stroke-linejoin="round" stroke-miterlimit="10" d="
	M47,25L47,25c1.1,0,2-0.9,2-2v-3c0-0.6-0.4-1-1-1h-2c-0.6,0-1,0.4-1,1v3C45,24.1,45.9,25,47,25z"/>
<path fill="#FFFFFF" stroke="#3B2C31" stroke-width="2" stroke-linecap="round" stroke-linejoin="round" stroke-miterlimit="10" d="
	M7,67L7,67c1.1,0,2-0.9,2-2v-2c0-1.1-0.9-2-2-2h0c-1.1,0-2,0.9-2,2v2C5,66.1,5.9,67,7,67z"/>
<path fill="#FFFFFF" stroke="#3B2C31" stroke-width="2" stroke-linecap="round" stroke-linejoin="round" stroke-miterlimit="10" d="
	M6,61L6,61c1.1,0,2-0.9,2-2V23c0-1.1-0.9-2-2-2h0c-1.1,0-2,0.9-2,2v36C4,60.1,4.9,61,6,61z"/>
<path fill="none" stroke="#3B2C31" stroke-width="2" stroke-linecap="round" stroke-linejoin="round" stroke-miterlimit="10" d="
	M40,33L40,33c0,1.1,0.9,2,2,2h26c1.1,0,2-0.9,2-2v0"/>
<path fill="#FFFFFF" stroke="#3B2C31" stroke-width="2" stroke-linecap="round" stroke-linejoin="round" stroke-miterlimit="10" d="
	M53,41L53,41c0-1.1-0.9-2-2-2H35c-1.1,0-2,0.9-2,2v0c0,1.1,0.9,2,2,2h16C52.1,43,53,42.1,53,41z"/>
<path fill="#FFFFFF" stroke="#3B2C31" stroke-width="2" stroke-linecap="round" stroke-linejoin="round" stroke-miterlimit="10" d="
	M34,41L34,41c1.1,0,2-0.9,2-2V23c0-1.1-0.9-2-2-2h0c-1.1,0-2,0.9-2,2v16C32,40.1,32.9,41,34,41z"/>
<path fill="#FFFFFF" stroke="#3B2C31" stroke-width="2" stroke-linecap="round" stroke-linejoin="round" stroke-miterlimit="10" d="
	M25,103h12c1.1,0,2-0.9,2-2l0,0c0-1.1-0.9-2-2-2H25c-1.1,0-2,0.9-2,2l0,0C23,102.1,23.9,103,25,103z"/>
<path fill="#FFFFFF" stroke="#3B2C31" stroke-width="2" stroke-linecap="round" stroke-linejoin="round" stroke-miterlimit="10" d="
	M3,103h12c1.1,0,2-0.9,2-2l0,0c0-1.1-0.9-2-2-2H3c-1.1,0-2,0.9-2,2l0,0C1,102.1,1.9,103,3,103z"/>
<path fill="#FFFFFF" stroke="#3B2C31" stroke-width="2" stroke-linecap="round" stroke-linejoin="round" stroke-miterlimit="10" d="
	M24,61c0-2-4-6-4-6s-4,4-4,6h-6c-1.1,0-2-0.9-2-2V23c0-1.1,0.9-2,2-2h20c1.1,0,2,0.9,2,2v36c0,1.1-0.9,2-2,2H24z"/>
<path fill="#FFFFFF" stroke="#3B2C31" stroke-width="2" stroke-linecap="round" stroke-linejoin="round" stroke-miterlimit="10" d="
	M20,43c0,0-12-7.6-12-12v-8c0-1.1,1.4-2,3-2h18c1.6,0,3,0.9,3,2v8C32,35.4,20,43,20,43z"/>
<path fill="#FFFFFF" stroke="#3B2C31" stroke-width="2" stroke-linecap="round" stroke-linejoin="round" stroke-miterlimit="10" d="
	M20,43c0,0-8-7.6-8-12v-8c0-1.1,0.9-2,2-2h12c1.1,0,2,0.9,2,2v8C28,35.4,20,43,20,43z"/>
<path fill="#FFFFFF" stroke="#3B2C31" stroke-width="2" stroke-linecap="round" stroke-linejoin="round" stroke-miterlimit="10" d="
	M24.9,25.2l-0.9,0.9c-0.7,0.7-1.8,0.7-2.5,0l-0.9-0.9c-0.7-0.7-0.7-1.8,0-2.5l0.9-0.9c0.7-0.7,1.8-0.7,2.5,0l0.9,0.9
	C25.6,23.4,25.6,24.6,24.9,25.2z"/>
<path fill="#FFFFFF" stroke="#3B2C31" stroke-width="2" stroke-linecap="round" stroke-linejoin="round" stroke-miterlimit="10" d="
	M19.5,25.2l-0.9,0.9c-0.7,0.7-1.8,0.7-2.5,0l-0.9-0.9c-0.7-0.7-0.7-1.8,0-2.5l0.9-0.9c0.7-0.7,1.8-0.7,2.5,0l0.9,0.9
	C20.2,23.4,20.2,24.6,19.5,25.2z"/>
<path fill="#3B2C31" stroke="#3B2C31" stroke-width="2" stroke-linecap="round" stroke-linejoin="round" stroke-miterlimit="10" d="
	M28,11l-2-2V5c0-1.1-0.9-2-2-2h-8c-1.1,0-2,0.9-2,2v4l-2,2V3c0-1.1,0.9-2,2-2h12c1.1,0,2,0.9,2,2V11z"/>
<line fill="#FFFFFF" stroke="#3B2C31" stroke-width="2" stroke-linecap="round" stroke-linejoin="round" stroke-miterlimit="10" x1="47" y1="25" x2="47" y2="35"/>
</svg>
