<?xml version="1.0" encoding="utf-8"?>
<!-- Generator: Adobe Illustrator 18.0.0, SVG Export Plug-In . SVG Version: 6.00 Build 0)  -->
<!DOCTYPE svg PUBLIC "-//W3C//DTD SVG 1.1//EN" "http://www.w3.org/Graphics/SVG/1.1/DTD/svg11.dtd">
<svg version="1.1" id="Слой_1" xmlns="http://www.w3.org/2000/svg" xmlns:xlink="http://www.w3.org/1999/xlink" x="0px" y="0px"
	 viewBox="0 0 66 104.7" enable-background="new 0 0 66 104.7" xml:space="preserve">
<path fill="#FFFFFF" stroke="#3B2C31" stroke-width="2" stroke-linecap="round" stroke-linejoin="round" stroke-miterlimit="10" d="
	M9,51.7v46c0,1.1,0.9,2,2,2h4c1.1,0,2-0.9,2-2l2-26h2l2,26c0,1.1,0.9,2,2,2h4c1.1,0,2-0.9,2-2v-46"/>
<path fill="#FFFFFF" stroke="#3B2C31" stroke-width="2" stroke-linecap="round" stroke-linejoin="round" stroke-miterlimit="10" d="
	M24,61.7c0-2-4-6-4-6s-4,4-4,6h-6c-1.1,0-2-0.9-2-2v-36c0-1.1,0.9-2,2-2h20c1.1,0,2,0.9,2,2v36c0,1.1-0.9,2-2,2H24z"/>
<path fill="#FFFFFF" stroke="#3B2C31" stroke-width="2" stroke-linecap="round" stroke-linejoin="round" stroke-miterlimit="10" d="
	M20,43.7c0,0-12-7.6-12-12v-8c0-1.1,1.4-2,3-2h18c1.6,0,3,0.9,3,2v8C32,36.1,20,43.7,20,43.7z"/>
<path fill="#FFFFFF" stroke="#3B2C31" stroke-width="2" stroke-linecap="round" stroke-linejoin="round" stroke-miterlimit="10" d="
	M20,43.7c0,0-8-7.6-8-12v-8c0-1.1,0.9-2,2-2h12c1.1,0,2,0.9,2,2v8C28,36.1,20,43.7,20,43.7z"/>
<path fill="#FFFFFF" stroke="#3B2C31" stroke-width="2" stroke-linecap="round" stroke-linejoin="round" stroke-miterlimit="10" d="
	M23,21.7h-6c-2.8,0-5-2.2-5-5v-13c0-1.1,0.9-2,2-2h12c1.1,0,2,0.9,2,2v13C28,19.4,25.8,21.7,23,21.7z"/>
<path fill="#3B2C31" stroke="#3B2C31" stroke-width="2" stroke-linecap="round" stroke-linejoin="round" stroke-miterlimit="10" d="
	M28,11.7l-2-2v-4c0-1.1-0.9-2-2-2h-8c-1.1,0-2,0.9-2,2v4l-2,2v-8c0-1.1,0.9-2,2-2h12c1.1,0,2,0.9,2,2V11.7z"/>
<circle fill="#3B2C31" cx="20" cy="51.7" r="1"/>
<circle fill="#3B2C31" cx="20" cy="47.7" r="1"/>
<circle fill="#3B2C31" cx="20" cy="38.7" r="1"/>
<circle fill="#3B2C31" cx="20" cy="34.7" r="1"/>
<circle fill="#3B2C31" cx="20" cy="30.7" r="1"/>
<circle fill="#3B2C31" cx="22" cy="10.7" r="1"/>
<circle fill="#3B2C31" cx="18" cy="10.7" r="1"/>
<path fill="#FFFFFF" stroke="#3B2C31" stroke-width="2" stroke-linecap="round" stroke-linejoin="round" stroke-miterlimit="10" d="
	M23,16.9c0,0.6-0.4,1-1,1h-4c-0.5,0-1-0.4-1-1"/>
<path fill="#FFFFFF" stroke="#3B2C31" stroke-width="2" stroke-linecap="round" stroke-linejoin="round" stroke-miterlimit="10" d="
	M24.9,25.9l-0.9,0.9c-0.7,0.7-1.8,0.7-2.5,0l-0.9-0.9c-0.7-0.7-0.7-1.8,0-2.5l0.9-0.9c0.7-0.7,1.8-0.7,2.5,0l0.9,0.9
	C25.6,24.1,25.6,25.3,24.9,25.9z"/>
<path fill="#FFFFFF" stroke="#3B2C31" stroke-width="2" stroke-linecap="round" stroke-linejoin="round" stroke-miterlimit="10" d="
	M19.5,25.9l-0.9,0.9c-0.7,0.7-1.8,0.7-2.5,0l-0.9-0.9c-0.7-0.7-0.7-1.8,0-2.5l0.9-0.9c0.7-0.7,1.8-0.7,2.5,0l0.9,0.9
	C20.2,24.1,20.2,25.3,19.5,25.9z"/>
<path fill="#FFFFFF" stroke="#3B2C31" stroke-width="2" stroke-linecap="round" stroke-linejoin="round" stroke-miterlimit="10" d="
	M37,61.7L37,61.7c1.1,0,2-0.9,2-2v-2c0-1.1-0.9-2-2-2h0c-1.1,0-2,0.9-2,2v2C35,60.8,35.9,61.7,37,61.7z"/>
<path fill="#FFFFFF" stroke="#3B2C31" stroke-width="2" stroke-linecap="round" stroke-linejoin="round" stroke-miterlimit="10" d="
	M7,67.7L7,67.7c1.1,0,2-0.9,2-2v-2c0-1.1-0.9-2-2-2h0c-1.1,0-2,0.9-2,2v2C5,66.8,5.9,67.7,7,67.7z"/>
<path fill="#FFFFFF" stroke="#3B2C31" stroke-width="2" stroke-linecap="round" stroke-linejoin="round" stroke-miterlimit="10" d="
	M6,61.7L6,61.7c1.1,0,2-0.9,2-2v-36c0-1.1-0.9-2-2-2h0c-1.1,0-2,0.9-2,2v36C4,60.8,4.9,61.7,6,61.7z"/>
<path fill="#FFFFFF" stroke="#3B2C31" stroke-width="2" stroke-linecap="round" stroke-linejoin="round" stroke-miterlimit="10" d="
	M34,55.7L34,55.7c1.1,0,2-0.9,2-2v-30c0-1.1-0.9-2-2-2h0c-1.1,0-2,0.9-2,2v30C32,54.8,32.9,55.7,34,55.7z"/>
<path fill="#FFFFFF" stroke="#3B2C31" stroke-width="2" stroke-linecap="round" stroke-linejoin="round" stroke-miterlimit="10" d="
	M25,103.7h12c1.1,0,2-0.9,2-2l0,0c0-1.1-0.9-2-2-2H25c-1.1,0-2,0.9-2,2l0,0C23,102.8,23.9,103.7,25,103.7z"/>
<path fill="#FFFFFF" stroke="#3B2C31" stroke-width="2" stroke-linecap="round" stroke-linejoin="round" stroke-miterlimit="10" d="
	M3,103.7h12c1.1,0,2-0.9,2-2l0,0c0-1.1-0.9-2-2-2H3c-1.1,0-2,0.9-2,2l0,0C1,102.8,1.9,103.7,3,103.7z"/>
<path fill="#FFFFFF" stroke="#3B2C31" stroke-width="2" stroke-linecap="round" stroke-linejoin="round" stroke-miterlimit="10" d="
	M60,61.4l5,36.3c0,1.1-0.9,2-2,2H37c-1.1,0-2-0.9-2-2l5-41.8l2-6.2c1.8-2.4,4.7-4,8-4h0c3.2,0,6,1.5,7.9,3.8"/>
<path fill="#FFFFFF" stroke="#3B2C31" stroke-width="2" stroke-linecap="round" stroke-linejoin="round" stroke-miterlimit="10" d="
	M50,24.7L50,24.7c-3.3,0-6-2.7-6-6v-8.5c0-0.8,0.7-1.5,1.5-1.5h9c0.8,0,1.5,0.7,1.5,1.5v8.5C56,22,53.3,24.7,50,24.7z"/>
<path fill="#3B2C31" stroke="#3B2C31" stroke-width="2" stroke-linecap="round" stroke-linejoin="round" stroke-miterlimit="10" d="
	M58,26.7l-2-2v-14c0-1.1-0.9-2-2-2h-8c-1.1,0-2,0.9-2,2v14l-2,2v-18c0-1.1,0.9-2,2-2h12c1.1,0,2,0.9,2,2V26.7z"/>
<circle fill="#3B2C31" cx="52" cy="13.7" r="1"/>
<circle fill="#3B2C31" cx="48" cy="13.7" r="1"/>
<path fill="#FFFFFF" stroke="#3B2C31" stroke-width="2" stroke-linecap="round" stroke-linejoin="round" stroke-miterlimit="10" d="
	M52,19.9c0,0.6-0.3,1-0.7,1h-2.7c-0.4,0-0.7-0.4-0.7-1"/>
<path fill="#FFFFFF" stroke="#3B2C31" stroke-width="2" stroke-linecap="round" stroke-linejoin="round" stroke-miterlimit="10" d="
	M46.5,4.5L46.5,4.5c-0.8,1.4-2.1,1.4-2.9,0v0c-0.2-0.4-0.2-1.2,0-1.6v0c0.8-1.4,2.1-1.4,2.9,0v0C46.7,3.3,46.7,4.1,46.5,4.5z"/>
<path fill="#FFFFFF" stroke="#3B2C31" stroke-width="2" stroke-linecap="round" stroke-linejoin="round" stroke-miterlimit="10" d="
	M56.5,4.5L56.5,4.5c-0.8,1.4-2.1,1.4-2.9,0v0c-0.2-0.4-0.2-1.2,0-1.6v0c0.8-1.4,2.1-1.4,2.9,0v0C56.7,3.3,56.7,4.1,56.5,4.5z"/>
<path fill="#FFFFFF" stroke="#3B2C31" stroke-width="2" stroke-linecap="round" stroke-linejoin="round" stroke-miterlimit="10" d="
	M52.2,4.9l-0.9,0.9c-0.7,0.7-1.8,0.7-2.5,0l-0.9-0.9c-0.7-0.7-0.7-1.8,0-2.5l0.9-0.9c0.7-0.7,1.8-0.7,2.5,0l0.9,0.9
	C52.9,3.1,52.9,4.3,52.2,4.9z"/>
<path fill="#FFFFFF" stroke="#3B2C31" stroke-width="2" stroke-linecap="round" stroke-linejoin="round" stroke-miterlimit="10" d="
	M45,103.7L45,103.7c1.1,0,2-0.9,2-2l0,0c0-1.1-0.9-2-2-2h0c-1.1,0-2,0.9-2,2l0,0C43,102.8,43.9,103.7,45,103.7z"/>
<path fill="#FFFFFF" stroke="#3B2C31" stroke-width="2" stroke-linecap="round" stroke-linejoin="round" stroke-miterlimit="10" d="
	M56,103.7L56,103.7c1.1,0,2-0.9,2-2l0,0c0-1.1-0.9-2-2-2h0c-1.1,0-2,0.9-2,2l0,0C54,102.8,54.9,103.7,56,103.7z"/>
<path fill="#FFFFFF" stroke="#3B2C31" stroke-width="2" stroke-linecap="round" stroke-linejoin="round" stroke-miterlimit="10" d="
	M42,39.6v14.1c0,1.1-0.9,2-2,2h0c-1.1,0-2-0.9-2-2v-16c0-1.1,0.9-2,2-2"/>
<path fill="#FFFFFF" stroke="#3B2C31" stroke-width="2" stroke-linecap="round" stroke-linejoin="round" stroke-miterlimit="10" d="
	M59,61.7L59,61.7c1.1,0,2-0.9,2-2v-2c0-1.1-0.9-2-2-2h0c-1.1,0-2,0.9-2,2v2C57,60.8,57.9,61.7,59,61.7z"/>
<path fill="#FFFFFF" stroke="#3B2C31" stroke-width="2" stroke-linecap="round" stroke-linejoin="round" stroke-miterlimit="10" d="
	M58,39.6v14.1c0,1.1,0.9,2,2,2h0c1.1,0,2-0.9,2-2v-16c0-1.1-0.9-2-2-2"/>
<path fill="#FFFFFF" stroke="#3B2C31" stroke-width="2" stroke-linecap="round" stroke-linejoin="round" stroke-miterlimit="10" d="
	M52,29.7h2c3.3,0,6,2.7,6,6c0,0-4.9,10-6,10h-8c-1.1,0-6-10-6-10c0-3.3,2.7-6,6-6h2"/>
<path fill="#FFFFFF" stroke="#3B2C31" stroke-width="2" stroke-linecap="round" stroke-linejoin="round" stroke-miterlimit="10" d="
	M50,30.7L50,30.7c-1.1,0-2-0.9-2-2v-3.5c0-0.3,0.2-0.5,0.5-0.5h3c0.3,0,0.5,0.2,0.5,0.5v3.5C52,29.8,51.1,30.7,50,30.7z"/>
</svg>
