<?xml version="1.0" encoding="utf-8"?>
<!-- Generator: Adobe Illustrator 18.0.0, SVG Export Plug-In . SVG Version: 6.00 Build 0)  -->
<!DOCTYPE svg PUBLIC "-//W3C//DTD SVG 1.1//EN" "http://www.w3.org/Graphics/SVG/1.1/DTD/svg11.dtd">
<svg version="1.1" id="Слой_1" xmlns="http://www.w3.org/2000/svg" xmlns:xlink="http://www.w3.org/1999/xlink" x="0px" y="0px"
	 viewBox="0 0 40 104" enable-background="new 0 0 40 104" xml:space="preserve">
<path fill="#FFFFFF" stroke="#3B2C31" stroke-width="2" stroke-linecap="round" stroke-linejoin="round" stroke-miterlimit="10" d="
	M9,61v36c0,1.1,0.9,2,2,2h4c1.1,0,2-0.9,2-2l2-26h2l2,26c0,1.1,0.9,2,2,2h4c1.1,0,2-0.9,2-2V61"/>
<path fill="#FFFFFF" stroke="#3B2C31" stroke-width="2" stroke-linecap="round" stroke-linejoin="round" stroke-miterlimit="10" d="
	M10,61c-1.1,0-2-0.9-2-2V23c0-1.1,0.9-2,2-2h20c1.1,0,2,0.9,2,2v36c0,1.1-0.9,2-2,2H10z"/>
<path fill="#FFFFFF" stroke="#3B2C31" stroke-width="2" stroke-linecap="round" stroke-linejoin="round" stroke-miterlimit="10" d="
	M17,41v-1c0-1.1,0.9-2,2-2h2c1.1,0,2,0.9,2,2v1"/>
<line fill="#FFFFFF" stroke="#3B2C31" stroke-width="2" stroke-linecap="round" stroke-linejoin="round" stroke-miterlimit="10" x1="14" y1="41" x2="14" y2="21"/>
<line fill="#FFFFFF" stroke="#3B2C31" stroke-width="2" stroke-linecap="round" stroke-linejoin="round" stroke-miterlimit="10" x1="26" y1="21" x2="26" y2="41"/>
<path fill="#FFFFFF" stroke="#3B2C31" stroke-width="2" stroke-linecap="round" stroke-linejoin="round" stroke-miterlimit="10" d="
	M26,51H14c-1.1,0-2-0.9-2-2v-6c0-1.1,0.9-2,2-2h12c1.1,0,2,0.9,2,2v6C28,50.1,27.1,51,26,51z"/>
<path fill="#FFFFFF" stroke="#3B2C31" stroke-width="2" stroke-linecap="round" stroke-linejoin="round" stroke-miterlimit="10" d="
	M25,21c0,2.8-2.2,5-5,5s-5-2.2-5-5"/>
<path fill="#FFFFFF" stroke="#3B2C31" stroke-width="2" stroke-linecap="round" stroke-linejoin="round" stroke-miterlimit="10" d="
	M23,21h-6c-2.8,0-5-2.2-5-5V6c0-2.8,2.2-5,5-5h6c2.8,0,5,2.2,5,5v10C28,18.8,25.8,21,23,21z"/>
<circle fill="#FFFFFF" stroke="#3B2C31" stroke-width="2" stroke-linecap="round" stroke-linejoin="round" stroke-miterlimit="10" cx="17" cy="10" r="2"/>
<circle fill="#FFFFFF" stroke="#3B2C31" stroke-width="2" stroke-linecap="round" stroke-linejoin="round" stroke-miterlimit="10" cx="20" cy="46" r="2"/>
<circle fill="#FFFFFF" stroke="#3B2C31" stroke-width="2" stroke-linecap="round" stroke-linejoin="round" stroke-miterlimit="10" cx="23" cy="10" r="2"/>
<path fill="#FFFFFF" stroke="#3B2C31" stroke-width="2" stroke-linecap="round" stroke-linejoin="round" stroke-miterlimit="10" d="
	M23,16.2c0,0.5-0.4,1-1,1h-4c-0.5,0-1-0.4-1-1"/>
<path fill="#FFFFFF" stroke="#3B2C31" stroke-width="2" stroke-linecap="round" stroke-linejoin="round" stroke-miterlimit="10" d="
	M33,67L33,67c1.1,0,2-0.9,2-2v-2c0-1.1-0.9-2-2-2h0c-1.1,0-2,0.9-2,2v2C31,66.1,31.9,67,33,67z"/>
<path fill="#FFFFFF" stroke="#3B2C31" stroke-width="2" stroke-linecap="round" stroke-linejoin="round" stroke-miterlimit="10" d="
	M7,67L7,67c1.1,0,2-0.9,2-2v-2c0-1.1-0.9-2-2-2h0c-1.1,0-2,0.9-2,2v2C5,66.1,5.9,67,7,67z"/>
<path fill="#FFFFFF" stroke="#3B2C31" stroke-width="2" stroke-linecap="round" stroke-linejoin="round" stroke-miterlimit="10" d="
	M6,61L6,61c1.1,0,2-0.9,2-2V23c0-1.1-0.9-2-2-2h0c-1.1,0-2,0.9-2,2v36C4,60.1,4.9,61,6,61z"/>
<path fill="#FFFFFF" stroke="#3B2C31" stroke-width="2" stroke-linecap="round" stroke-linejoin="round" stroke-miterlimit="10" d="
	M34,61L34,61c1.1,0,2-0.9,2-2V23c0-1.1-0.9-2-2-2h0c-1.1,0-2,0.9-2,2v36C32,60.1,32.9,61,34,61z"/>
<path fill="#FFFFFF" stroke="#3B2C31" stroke-width="2" stroke-linecap="round" stroke-linejoin="round" stroke-miterlimit="10" d="
	M25,103h12c1.1,0,2-0.9,2-2l0,0c0-1.1-0.9-2-2-2H25c-1.1,0-2,0.9-2,2l0,0C23,102.1,23.9,103,25,103z"/>
<path fill="#FFFFFF" stroke="#3B2C31" stroke-width="2" stroke-linecap="round" stroke-linejoin="round" stroke-miterlimit="10" d="
	M3,103h12c1.1,0,2-0.9,2-2l0,0c0-1.1-0.9-2-2-2H3c-1.1,0-2,0.9-2,2l0,0C1,102.1,1.9,103,3,103z"/>
</svg>
