<?xml version="1.0" encoding="utf-8"?>
<!-- Generator: Adobe Illustrator 18.0.0, SVG Export Plug-In . SVG Version: 6.00 Build 0)  -->
<!DOCTYPE svg PUBLIC "-//W3C//DTD SVG 1.1//EN" "http://www.w3.org/Graphics/SVG/1.1/DTD/svg11.dtd">
<svg version="1.1" id="Слой_1" xmlns="http://www.w3.org/2000/svg" xmlns:xlink="http://www.w3.org/1999/xlink" x="0px" y="0px"
	 viewBox="0 0 40 124" enable-background="new 0 0 40 124" xml:space="preserve">
<path fill="#FFFFFF" stroke="#3B2C31" stroke-width="2" stroke-linecap="round" stroke-linejoin="round" stroke-miterlimit="10" d="
	M9,81v36c0,1.1,0.9,2,2,2h4c1.1,0,2-0.9,2-2l2-26h2l2,26c0,1.1,0.9,2,2,2h4c1.1,0,2-0.9,2-2V81"/>
<path fill="#FFFFFF" stroke="#3B2C31" stroke-width="2" stroke-linecap="round" stroke-linejoin="round" stroke-miterlimit="10" d="
	M10,101c-1.1,0-2-1.3-2-3V44c0-1.7,0.9-3,2-3h20c1.1,0,2,1.3,2,3v54c0,1.7-0.9,3-2,3H10z"/>
<path fill="#FFFFFF" stroke="#3B2C31" stroke-width="2" stroke-linecap="round" stroke-linejoin="round" stroke-miterlimit="10" d="
	M25,41c0,2.8-2.2,5-5,5s-5-2.2-5-5"/>
<path fill="#FFFFFF" stroke="#3B2C31" stroke-width="2" stroke-linecap="round" stroke-linejoin="round" stroke-miterlimit="10" d="
	M26,21H14V3c0-1.1,0.9-2,2-2h8c1.1,0,2,0.9,2,2V21z"/>
<path fill="#FFFFFF" stroke="#3B2C31" stroke-width="2" stroke-linecap="round" stroke-linejoin="round" stroke-miterlimit="10" d="
	M23,41h-6c-2.8,0-5-2.2-5-5V26c0-2.8,2.2-5,5-5h6c2.8,0,5,2.2,5,5v10C28,38.8,25.8,41,23,41z"/>
<circle fill="#3B2C31" cx="18" cy="30" r="1"/>
<line fill="none" stroke="#3B2C31" stroke-width="2" stroke-linecap="round" stroke-linejoin="round" stroke-miterlimit="10" x1="17" y1="15" x2="17" y2="7"/>
<line fill="none" stroke="#3B2C31" stroke-width="2" stroke-linecap="round" stroke-linejoin="round" stroke-miterlimit="10" x1="20" y1="15" x2="20" y2="7"/>
<line fill="none" stroke="#3B2C31" stroke-width="2" stroke-linecap="round" stroke-linejoin="round" stroke-miterlimit="10" x1="23" y1="15" x2="23" y2="7"/>
<circle fill="#3B2C31" cx="22" cy="30" r="1"/>
<path fill="#FFFFFF" stroke="#3B2C31" stroke-width="2" stroke-linecap="round" stroke-linejoin="round" stroke-miterlimit="10" d="
	M23,36.2c0,0.5-0.4,1-1,1h-4c-0.5,0-1-0.5-1-1"/>
<path fill="#FFFFFF" stroke="#3B2C31" stroke-width="2" stroke-linecap="round" stroke-linejoin="round" stroke-miterlimit="10" d="
	M33,87L33,87c1.1,0,2-0.9,2-2v-2c0-1.1-0.9-2-2-2h0c-1.1,0-2,0.9-2,2v2C31,86.1,31.9,87,33,87z"/>
<path fill="#FFFFFF" stroke="#3B2C31" stroke-width="2" stroke-linecap="round" stroke-linejoin="round" stroke-miterlimit="10" d="
	M7,87L7,87c1.1,0,2-0.9,2-2v-2c0-1.1-0.9-2-2-2h0c-1.1,0-2,0.9-2,2v2C5,86.1,5.9,87,7,87z"/>
<path fill="#FFFFFF" stroke="#3B2C31" stroke-width="2" stroke-linecap="round" stroke-linejoin="round" stroke-miterlimit="10" d="
	M6,81L6,81c1.1,0,2-0.9,2-2V43c0-1.1-0.9-2-2-2h0c-1.1,0-2,0.9-2,2v36C4,80.1,4.9,81,6,81z"/>
<path fill="#FFFFFF" stroke="#3B2C31" stroke-width="2" stroke-linecap="round" stroke-linejoin="round" stroke-miterlimit="10" d="
	M34,81L34,81c1.1,0,2-0.9,2-2V43c0-1.1-0.9-2-2-2h0c-1.1,0-2,0.9-2,2v36C32,80.1,32.9,81,34,81z"/>
<path fill="#FFFFFF" stroke="#3B2C31" stroke-width="2" stroke-linecap="round" stroke-linejoin="round" stroke-miterlimit="10" d="
	M25,123h12c1.1,0,2-0.9,2-2l0,0c0-1.1-0.9-2-2-2H25c-1.1,0-2,0.9-2,2l0,0C23,122.1,23.9,123,25,123z"/>
<path fill="#FFFFFF" stroke="#3B2C31" stroke-width="2" stroke-linecap="round" stroke-linejoin="round" stroke-miterlimit="10" d="
	M3,123h12c1.1,0,2-0.9,2-2l0,0c0-1.1-0.9-2-2-2H3c-1.1,0-2,0.9-2,2l0,0C1,122.1,1.9,123,3,123z"/>
</svg>
