<?xml version="1.0" encoding="utf-8"?>
<!-- Generator: Adobe Illustrator 18.0.0, SVG Export Plug-In . SVG Version: 6.00 Build 0)  -->
<!DOCTYPE svg PUBLIC "-//W3C//DTD SVG 1.1//EN" "http://www.w3.org/Graphics/SVG/1.1/DTD/svg11.dtd">
<svg version="1.1" id="Слой_1" xmlns="http://www.w3.org/2000/svg" xmlns:xlink="http://www.w3.org/1999/xlink" x="0px" y="0px"
	 viewBox="0 0 29.6 84.8" enable-background="new 0 0 29.6 84.8" xml:space="preserve">
<line fill="none" stroke="#3B2C31" stroke-width="2" stroke-linecap="round" stroke-linejoin="round" stroke-miterlimit="10" x1="11.8" y1="43.8" x2="17.8" y2="43.8"/>
<ellipse fill="none" stroke="#3B2C31" stroke-width="2" stroke-linecap="round" stroke-linejoin="round" stroke-miterlimit="10" cx="14.8" cy="40.8" rx="1.5" ry="3"/>
<g>
	
		<line fill="none" stroke="#3B2C31" stroke-width="2" stroke-linecap="round" stroke-linejoin="round" stroke-miterlimit="10" x1="14.8" y1="16.8" x2="19.7" y2="11.9"/>
	
		<circle fill="#E7D3CA" stroke="#3B2C31" stroke-width="2" stroke-linecap="round" stroke-linejoin="round" stroke-miterlimit="10" cx="22.6" cy="5.1" r="2"/>
	
		<circle fill="#E7D3CA" stroke="#3B2C31" stroke-width="2" stroke-linecap="round" stroke-linejoin="round" stroke-miterlimit="10" cx="22.6" cy="13.1" r="2"/>
	
		<circle fill="#E7D3CA" stroke="#3B2C31" stroke-width="2" stroke-linecap="round" stroke-linejoin="round" stroke-miterlimit="10" cx="26.6" cy="9.1" r="2"/>
	
		<circle fill="none" stroke="#3B2C31" stroke-width="2" stroke-linecap="round" stroke-linejoin="round" stroke-miterlimit="10" cx="22.6" cy="9.1" r="1.5"/>
</g>
<g>
	
		<line fill="none" stroke="#3B2C31" stroke-width="2" stroke-linecap="round" stroke-linejoin="round" stroke-miterlimit="10" x1="14.8" y1="16.8" x2="9.8" y2="11.9"/>
	
		<circle fill="#E7D3CA" stroke="#3B2C31" stroke-width="2" stroke-linecap="round" stroke-linejoin="round" stroke-miterlimit="10" cx="3" cy="9.1" r="2"/>
	
		<circle fill="#E7D3CA" stroke="#3B2C31" stroke-width="2" stroke-linecap="round" stroke-linejoin="round" stroke-miterlimit="10" cx="7" cy="13.1" r="2"/>
	
		<circle fill="#E7D3CA" stroke="#3B2C31" stroke-width="2" stroke-linecap="round" stroke-linejoin="round" stroke-miterlimit="10" cx="7" cy="5.1" r="2"/>
	
		<circle fill="none" stroke="#3B2C31" stroke-width="2" stroke-linecap="round" stroke-linejoin="round" stroke-miterlimit="10" cx="7" cy="9.1" r="1.5"/>
</g>
<g>
	
		<line fill="none" stroke="#3B2C31" stroke-width="2" stroke-linecap="round" stroke-linejoin="round" stroke-miterlimit="10" x1="14.8" y1="16.8" x2="14.8" y2="9.8"/>
	
		<circle fill="#E7D3CA" stroke="#3B2C31" stroke-width="2" stroke-linecap="round" stroke-linejoin="round" stroke-miterlimit="10" cx="11.9" cy="3" r="2"/>
	
		<circle fill="#E7D3CA" stroke="#3B2C31" stroke-width="2" stroke-linecap="round" stroke-linejoin="round" stroke-miterlimit="10" cx="17.6" cy="8.7" r="2"/>
	
		<circle fill="#E7D3CA" stroke="#3B2C31" stroke-width="2" stroke-linecap="round" stroke-linejoin="round" stroke-miterlimit="10" cx="11.9" cy="8.7" r="2"/>
	
		<circle fill="#E7D3CA" stroke="#3B2C31" stroke-width="2" stroke-linecap="round" stroke-linejoin="round" stroke-miterlimit="10" cx="17.6" cy="3" r="2"/>
	
		<circle fill="none" stroke="#3B2C31" stroke-width="2" stroke-linecap="round" stroke-linejoin="round" stroke-miterlimit="10" cx="14.8" cy="5.8" r="1.5"/>
</g>
<path fill="#FFFFFF" stroke="#3B2C31" stroke-width="2" stroke-linecap="round" stroke-linejoin="round" stroke-miterlimit="10" d="
	M6.8,17.8v12c0,4.4,3.6,8,8,8h0c4.4,0,8-3.6,8-8v-12H6.8z"/>
<path fill="#FFFFFF" stroke="#3B2C31" stroke-width="2" stroke-linecap="round" stroke-linejoin="round" stroke-miterlimit="10" d="
	M19.8,45.8h-10c-1.1,0-2,0.9-2,2v34c0,1.1,0.9,2,2,2h10c1.1,0,2-0.9,2-2v-34C21.8,46.7,20.9,45.8,19.8,45.8z"/>
<path fill="#FFFFFF" stroke="#3B2C31" stroke-width="2" stroke-linecap="round" stroke-linejoin="round" stroke-miterlimit="10" d="
	M24.8,68.8c-2.8,0-5-2.2-5-5c0,2.8-2.2,5-5,5s-5-2.2-5-5c0,2.8-2.2,5-5,5v-21c0-1.1,0.9-2,2-2h16c1.1,0,2,0.9,2,2V68.8z"/>
</svg>
