<?xml version="1.0" encoding="utf-8"?>
<!-- Generator: Adobe Illustrator 18.0.0, SVG Export Plug-In . SVG Version: 6.00 Build 0)  -->
<!DOCTYPE svg PUBLIC "-//W3C//DTD SVG 1.1//EN" "http://www.w3.org/Graphics/SVG/1.1/DTD/svg11.dtd">
<svg version="1.1" id="Слой_1" xmlns="http://www.w3.org/2000/svg" xmlns:xlink="http://www.w3.org/1999/xlink" x="0px" y="0px"
	 viewBox="0 0 63.1 104" enable-background="new 0 0 63.1 104" xml:space="preserve">
<path fill="#FFFFFF" stroke="#3B2C31" stroke-width="2" stroke-linecap="round" stroke-linejoin="round" stroke-miterlimit="10" d="
	M32.1,61v36c0,1.1,0.9,2,2,2h4c1.1,0,2-0.9,2-2l2-26h2l2,26c0,1.1,0.9,2,2,2h4c1.1,0,2-0.9,2-2V61"/>
<path fill="#FFFFFF" stroke="#3B2C31" stroke-width="2" stroke-linecap="round" stroke-linejoin="round" stroke-miterlimit="10" d="
	M46.1,21h-6c-2.8,0-5-2.2-5-5V3c0-1.1,0.9-2,2-2h12c1.1,0,2,0.9,2,2v13C51.1,18.8,48.8,21,46.1,21z"/>
<circle fill="#3B2C31" cx="41.1" cy="10" r="1"/>
<circle fill="#3B2C31" cx="45.1" cy="10" r="1"/>
<path fill="#FFFFFF" stroke="#3B2C31" stroke-width="2" stroke-linecap="round" stroke-linejoin="round" stroke-miterlimit="10" d="
	M46.1,16.2c0,0.5-0.5,1-1,1h-4c-0.5,0-1-0.4-1-1"/>
<path fill="#FFFFFF" stroke="#3B2C31" stroke-width="2" stroke-linecap="round" stroke-linejoin="round" stroke-miterlimit="10" d="
	M56.1,67L56.1,67c1.1,0,2-0.9,2-2v-2c0-1.1-0.9-2-2-2h0c-1.1,0-2,0.9-2,2v2C54.1,66.1,55,67,56.1,67z"/>
<path fill="#FFFFFF" stroke="#3B2C31" stroke-width="2" stroke-linecap="round" stroke-linejoin="round" stroke-miterlimit="10" d="
	M57.1,61L57.1,61c1.1,0,2-0.9,2-2V23c0-1.1-0.9-2-2-2h0c-1.1,0-2,0.9-2,2v36C55.1,60.1,56,61,57.1,61z"/>
<path fill="#FFFFFF" stroke="#3B2C31" stroke-width="2" stroke-linecap="round" stroke-linejoin="round" stroke-miterlimit="10" d="
	M18.5,35.7L18.5,35.7c-0.8,0.8-2.1,0.8-2.8,0L4.3,24.4c-0.8-0.8-0.8-2.1,0-2.8l0,0c0.8-0.8,2.1-0.8,2.8,0l11.3,11.3
	C19.3,33.7,19.3,35,18.5,35.7z"/>
<path fill="#FFFFFF" stroke="#3B2C31" stroke-width="2" stroke-linecap="round" stroke-linejoin="round" stroke-miterlimit="10" d="
	M16.3,35.7L16.3,35.7c0.8,0.8,2.1,0.8,2.8,0l11.3-11.3c0.8-0.8,0.8-2.1,0-2.8l0,0c-0.8-0.8-2.1-0.8-2.8,0L16.3,32.9
	C15.6,33.7,15.6,35,16.3,35.7z"/>
<path fill="#FFFFFF" stroke="#3B2C31" stroke-width="2" stroke-linecap="round" stroke-linejoin="round" stroke-miterlimit="10" d="
	M48.1,103h12c1.1,0,2-0.9,2-2l0,0c0-1.1-0.9-2-2-2h-12c-1.1,0-2,0.9-2,2l0,0C46.1,102.1,47,103,48.1,103z"/>
<path fill="#FFFFFF" stroke="#3B2C31" stroke-width="2" stroke-linecap="round" stroke-linejoin="round" stroke-miterlimit="10" d="
	M1.3,27.2c0,0,2.1,0.8,2.8,0l7.8-7.8c0.8-0.8,0.8-2.1,0-2.8l0,0c-0.8-0.8-2.1-0.8-2.8,0l-7.8,7.8C0.6,25.2,1.3,27.2,1.3,27.2z"/>
<path fill="#FFFFFF" stroke="#3B2C31" stroke-width="2" stroke-linecap="round" stroke-linejoin="round" stroke-miterlimit="10" d="
	M26.1,103h12c1.1,0,2-0.9,2-2l0,0c0-1.1-0.9-2-2-2h-12c-1.1,0-2,0.9-2,2l0,0C24.1,102.1,25,103,26.1,103z"/>
<path fill="#FFFFFF" stroke="#3B2C31" stroke-width="2" stroke-linecap="round" stroke-linejoin="round" stroke-miterlimit="10" d="
	M47.1,61c0-2-4-6-4-6s-4,4-4,6h-6c-1.1,0-2-0.9-2-2V23c0-1.1,0.9-2,2-2h20c1.1,0,2,0.9,2,2v36c0,1.1-0.9,2-2,2H47.1z"/>
<path fill="#FFFFFF" stroke="#3B2C31" stroke-width="2" stroke-linecap="round" stroke-linejoin="round" stroke-miterlimit="10" d="
	M14.8,18L14.8,18c1.2-1.2,1.2-3.1,0-4.2l0,0c-1.2-1.2-3.1-1.2-4.2,0l0,0c-1.2,1.2-1.2,3.1,0,4.2l0,0C11.7,19.2,13.6,19.2,14.8,18z"
	/>
<path fill="#FFFFFF" stroke="#3B2C31" stroke-width="2" stroke-linecap="round" stroke-linejoin="round" stroke-miterlimit="10" d="
	M43.1,43c0,0-12-7.6-12-12v-8c0-1.1,1.4-2,3-2h18c1.6,0,3,0.9,3,2v8C55.1,35.4,43.1,43,43.1,43z"/>
<path fill="#FFFFFF" stroke="#3B2C31" stroke-width="2" stroke-linecap="round" stroke-linejoin="round" stroke-miterlimit="10" d="
	M43.1,43c0,0-8-7.6-8-12v-8c0-1.1,0.9-2,2-2h12c1.1,0,2,0.9,2,2v8C51.1,35.4,43.1,43,43.1,43z"/>
<path fill="#FFFFFF" stroke="#3B2C31" stroke-width="2" stroke-linecap="round" stroke-linejoin="round" stroke-miterlimit="10" d="
	M47.9,25.2L47,26.2c-0.7,0.7-1.8,0.7-2.5,0l-0.9-0.9c-0.7-0.7-0.7-1.8,0-2.5l0.9-0.9c0.7-0.7,1.8-0.7,2.5,0l0.9,0.9
	C48.6,23.4,48.6,24.6,47.9,25.2z"/>
<path fill="#FFFFFF" stroke="#3B2C31" stroke-width="2" stroke-linecap="round" stroke-linejoin="round" stroke-miterlimit="10" d="
	M42.6,25.2l-0.9,0.9c-0.7,0.7-1.8,0.7-2.5,0l-0.9-0.9c-0.7-0.7-0.7-1.8,0-2.5l0.9-0.9c0.7-0.7,1.8-0.7,2.5,0l0.9,0.9
	C43.2,23.4,43.2,24.6,42.6,25.2z"/>
<path fill="#3B2C31" stroke="#3B2C31" stroke-width="2" stroke-linecap="round" stroke-linejoin="round" stroke-miterlimit="10" d="
	M51.1,11l-2-2V5c0-1.1-0.9-2-2-2h-8c-1.1,0-2,0.9-2,2v4l-2,2V3c0-1.1,0.9-2,2-2h12c1.1,0,2,0.9,2,2V11z"/>
</svg>
