<?xml version="1.0" encoding="UTF-8" standalone="no"?>
<!-- Generator: Adobe Illustrator 18.0.0, SVG Export Plug-In . SVG Version: 6.00 Build 0)  -->

<svg
   xmlns:dc="http://purl.org/dc/elements/1.1/"
   xmlns:cc="http://creativecommons.org/ns#"
   xmlns:rdf="http://www.w3.org/1999/02/22-rdf-syntax-ns#"
   xmlns:svg="http://www.w3.org/2000/svg"
   xmlns="http://www.w3.org/2000/svg"
   xmlns:sodipodi="http://sodipodi.sourceforge.net/DTD/sodipodi-0.dtd"
   xmlns:inkscape="http://www.inkscape.org/namespaces/inkscape"
   version="1.1"
   id="Слой_1"
   x="0px"
   y="0px"
   viewBox="0 0 26 26"
   enable-background="new 0 0 26 26"
   xml:space="preserve"
   inkscape:version="0.91 r13725"
   sodipodi:docname="vk.svg"><metadata
     id="metadata17"><rdf:RDF><cc:Work
         rdf:about=""><dc:format>image/svg+xml</dc:format><dc:type
           rdf:resource="http://purl.org/dc/dcmitype/StillImage" /></cc:Work></rdf:RDF></metadata><defs
     id="defs15" /><sodipodi:namedview
     pagecolor="#ffffff"
     bordercolor="#666666"
     borderopacity="1"
     objecttolerance="10"
     gridtolerance="10"
     guidetolerance="10"
     inkscape:pageopacity="0"
     inkscape:pageshadow="2"
     inkscape:window-width="1920"
     inkscape:window-height="1017"
     id="namedview13"
     showgrid="false"
     inkscape:zoom="9.0769231"
     inkscape:cx="13"
     inkscape:cy="13"
     inkscape:window-x="-8"
     inkscape:window-y="-8"
     inkscape:window-maximized="1"
     inkscape:current-layer="Слой_1" /><g
     id="g3"
     style="stroke:none;stroke-opacity:1;fill:#ff1565;fill-opacity:1"><path
       d="M24,2L24,2v22L2,24L2,2H24 M24,0H2C0.9,0,0,0.9,0,2v22c0,1.1,0.9,2,2,2h22c1.1,0,2-0.9,2-2V2C26,0.9,25.1,0,24,0L24,0z"
       id="path5"
       style="stroke:none;stroke-opacity:1;fill:#ff1565;fill-opacity:1" /></g><path
     fill="none"
     stroke="#010101"
     stroke-width="2"
     stroke-linecap="round"
     stroke-linejoin="round"
     stroke-miterlimit="10"
     d="  M5.3,9.4C5.3,16.5,13,17,13,17V9.3h-1.6"
     id="path7"
     style="stroke:#ff1565;stroke-opacity:1" /><path
     fill="none"
     stroke="#010101"
     stroke-width="2"
     stroke-linecap="round"
     stroke-linejoin="round"
     stroke-miterlimit="10"
     d="  M13,13.2c0,0,7.7,0.5,7.7-4"
     id="path9"
     style="stroke:#ff1565;stroke-opacity:1" /><path
     fill="none"
     stroke="#010101"
     stroke-width="2"
     stroke-linecap="round"
     stroke-linejoin="round"
     stroke-miterlimit="10"
     d="  M16.3,13.1c0,0,4.1,0.9,4.1,4.1"
     id="path11"
     style="stroke:#ff1565;stroke-opacity:1" /></svg>