<?xml version="1.0" encoding="utf-8"?>
<!-- Generator: Adobe Illustrator 18.0.0, SVG Export Plug-In . SVG Version: 6.00 Build 0)  -->
<!DOCTYPE svg PUBLIC "-//W3C//DTD SVG 1.1//EN" "http://www.w3.org/Graphics/SVG/1.1/DTD/svg11.dtd">
<svg version="1.1" id="Layer_1" xmlns="http://www.w3.org/2000/svg" xmlns:xlink="http://www.w3.org/1999/xlink" x="0px" y="0px"
	 viewBox="0 0 107.2 67.5" enable-background="new 0 0 107.2 67.5" xml:space="preserve">
<path fill="#EA4970" d="M101.7,16.9l-4.6,0.8L91.7,17l-3-9L101.7,16.9L101.7,16.9z M99.2,18.6l2.5-0.4h1.1l-1.8,0.8L99.2,18.6z
	 M91.2,20.3l5.7-0.7l4.4,0.8l1.8-0.8l0.1,0L76,43.4L91.2,20.3z M61,50.1l25.9-25.6L72.3,46.6L56.2,60.8L61,50.1z M47.9,50l5.8-26.6
	l6.2,26.3l-5.9,13.2l-0.4,0.4L53.1,63L47.9,50z M20.5,24.1l26.2,26.3L51,61.1L34.3,46.4L20.5,24.1z M5.8,20.3l5.1-0.8l5.7,0.7
	L31,43.5L4.4,20.1L5.8,20.3z M7.2,18.8L5.8,19l-1.2-0.2c0.3,0,0.6-0.1,0.8-0.1L7.2,18.8z M16,16.8l-5.6,0.9l-5.1-0.3l-0.1,0
	c-0.2,0-0.6,0.1-1,0.1L16.5,7.3L16,16.8z M36,5.8l-4.1-2.6h13.3L36,5.8z M67.9,6.7l-14.3,10l-16.1-10L50,3.2h6.5L67.9,6.7z
	 M69.2,5.8l-8.3-2.6h12L69.2,5.8z M90.8,19l-4.3-0.5l4.7-0.3l2.8,0.4L90.8,19z M74.1,21.1l9.9-1.6l5.5,0.6L62.5,46.8L74.1,21.1z
	 M64.3,19.5l8.4,1.4L60.7,47.7L54.4,21L64.3,19.5z M35.8,20.2l8.4-0.7l8.7,1.4L47,47.9L35.8,20.2z M25.6,19.5l8.8,0.7l11,27.1
	l-27-27.1L25.6,19.5z M16.7,18l5.2,0.6L16.9,19l-3.8-0.5L16.7,18z M34,16.8l-8.9,0.9l-6.4-0.7l16.4-9.2L34,16.8z M34.8,19l-5.6-0.5
	l5.3-0.5l5.4,0.5L34.8,19z M43.5,17.6l-8.2-0.8l1.1-9.2L51.6,17L43.5,17.6z M53.6,19.8l-6.7-1.1l6.7-0.5l7.3,0.6L53.6,19.8z
	 M73,16.5l-10.1,1.1L55.4,17L69,7.5L73,16.5z M74.4,16.4l-3.7-8.5l18.2,9.2L83,17.5L74.4,16.4z M74,19.8l-7.9-1.3l7.8-0.9l7.7,0.9
	L74,19.8z M80.5,3.2l2.2,0.7l4.2,2.9l3.2,9.5L70.6,6.4l4.5-3.2H80.5z M20.4,4l3-0.8h6l5.2,3.2l-17.2,9.7l0.5-10L20.4,4z M82.7,0
	H20.2L0,16.8v3.7l53.4,47l53.8-47.2v-3.5L82.7,0z"/>
</svg>
